solid OpenSCAD_Model
  facet normal -1 0 0
    outer loop
      vertex -2.7 -7.6 -0.79
      vertex -2.7 -4.6 0
      vertex -2.7 -4.6 -0.79
    endloop
  endfacet
  facet normal -1 -0 0
    outer loop
      vertex -2.7 -4.6 0
      vertex -2.7 -7.6 -0.79
      vertex -2.7 -7.6 0
    endloop
  endfacet
  facet normal -0 0 1
    outer loop
      vertex -5.7 -4.6 -0.79
      vertex -2.7 -7.6 -0.79
      vertex -2.7 -4.6 -0.79
    endloop
  endfacet
  facet normal 0 0 1
    outer loop
      vertex -2.7 -7.6 -0.79
      vertex -5.7 -4.6 -0.79
      vertex -5.7 -7.6 -0.79
    endloop
  endfacet
  facet normal 1 -0 0
    outer loop
      vertex -5.7 -7.6 0
      vertex -5.7 -4.6 -0.79
      vertex -5.7 -4.6 0
    endloop
  endfacet
  facet normal 1 0 0
    outer loop
      vertex -5.7 -4.6 -0.79
      vertex -5.7 -7.6 0
      vertex -5.7 -7.6 -0.79
    endloop
  endfacet
  facet normal 0 -1 0
    outer loop
      vertex -5.7 -4.6 -0.79
      vertex -2.7 -4.6 0
      vertex -5.7 -4.6 0
    endloop
  endfacet
  facet normal 0 -1 -0
    outer loop
      vertex -2.7 -4.6 0
      vertex -5.7 -4.6 -0.79
      vertex -2.7 -4.6 -0.79
    endloop
  endfacet
  facet normal 0 1 -0
    outer loop
      vertex -2.7 -7.6 -0.79
      vertex -5.7 -7.6 0
      vertex -2.7 -7.6 0
    endloop
  endfacet
  facet normal 0 1 0
    outer loop
      vertex -5.7 -7.6 0
      vertex -2.7 -7.6 -0.79
      vertex -5.7 -7.6 -0.79
    endloop
  endfacet
  facet normal -1 0 0
    outer loop
      vertex -2.7 -3.8 -0.79
      vertex -2.7 -0.800001 0
      vertex -2.7 -0.800001 -0.79
    endloop
  endfacet
  facet normal -1 -0 0
    outer loop
      vertex -2.7 -0.800001 0
      vertex -2.7 -3.8 -0.79
      vertex -2.7 -3.8 0
    endloop
  endfacet
  facet normal -0 0 1
    outer loop
      vertex -5.7 -0.800001 -0.79
      vertex -2.7 -3.8 -0.79
      vertex -2.7 -0.800001 -0.79
    endloop
  endfacet
  facet normal 0 0 1
    outer loop
      vertex -2.7 -3.8 -0.79
      vertex -5.7 -0.800001 -0.79
      vertex -5.7 -3.8 -0.79
    endloop
  endfacet
  facet normal 1 -0 0
    outer loop
      vertex -5.7 -3.8 0
      vertex -5.7 -0.800001 -0.79
      vertex -5.7 -0.800001 0
    endloop
  endfacet
  facet normal 1 0 0
    outer loop
      vertex -5.7 -0.800001 -0.79
      vertex -5.7 -3.8 0
      vertex -5.7 -3.8 -0.79
    endloop
  endfacet
  facet normal 0 -1 0
    outer loop
      vertex -5.7 -0.800001 -0.79
      vertex -2.7 -0.800001 0
      vertex -5.7 -0.800001 0
    endloop
  endfacet
  facet normal 0 -1 -0
    outer loop
      vertex -2.7 -0.800001 0
      vertex -5.7 -0.800001 -0.79
      vertex -2.7 -0.800001 -0.79
    endloop
  endfacet
  facet normal 0 1 -0
    outer loop
      vertex -2.7 -3.8 -0.79
      vertex -5.7 -3.8 0
      vertex -2.7 -3.8 0
    endloop
  endfacet
  facet normal 0 1 0
    outer loop
      vertex -5.7 -3.8 0
      vertex -2.7 -3.8 -0.79
      vertex -5.7 -3.8 -0.79
    endloop
  endfacet
  facet normal -1 0 0
    outer loop
      vertex -2.7 -5.72205e-07 -0.79
      vertex -2.7 3 0
      vertex -2.7 3 -0.79
    endloop
  endfacet
  facet normal -1 -0 0
    outer loop
      vertex -2.7 3 0
      vertex -2.7 -5.72205e-07 -0.79
      vertex -2.7 -5.72205e-07 0
    endloop
  endfacet
  facet normal -0 0 1
    outer loop
      vertex -5.7 3 -0.79
      vertex -2.7 -5.72205e-07 -0.79
      vertex -2.7 3 -0.79
    endloop
  endfacet
  facet normal 0 0 1
    outer loop
      vertex -2.7 -5.72205e-07 -0.79
      vertex -5.7 3 -0.79
      vertex -5.7 -5.72205e-07 -0.79
    endloop
  endfacet
  facet normal 1 -0 0
    outer loop
      vertex -5.7 -5.72205e-07 0
      vertex -5.7 3 -0.79
      vertex -5.7 3 0
    endloop
  endfacet
  facet normal 1 0 0
    outer loop
      vertex -5.7 3 -0.79
      vertex -5.7 -5.72205e-07 0
      vertex -5.7 -5.72205e-07 -0.79
    endloop
  endfacet
  facet normal 0 -1 0
    outer loop
      vertex -5.7 3 -0.79
      vertex -2.7 3 0
      vertex -5.7 3 0
    endloop
  endfacet
  facet normal 0 -1 -0
    outer loop
      vertex -2.7 3 0
      vertex -5.7 3 -0.79
      vertex -2.7 3 -0.79
    endloop
  endfacet
  facet normal 0 1 -0
    outer loop
      vertex -2.7 -5.72205e-07 -0.79
      vertex -5.7 -5.72205e-07 0
      vertex -2.7 -5.72205e-07 0
    endloop
  endfacet
  facet normal 0 1 0
    outer loop
      vertex -5.7 -5.72205e-07 0
      vertex -2.7 -5.72205e-07 -0.79
      vertex -5.7 -5.72205e-07 -0.79
    endloop
  endfacet
  facet normal -1 0 0
    outer loop
      vertex -2.7 3.8 -0.79
      vertex -2.7 6.8 0
      vertex -2.7 6.8 -0.79
    endloop
  endfacet
  facet normal -1 -0 0
    outer loop
      vertex -2.7 6.8 0
      vertex -2.7 3.8 -0.79
      vertex -2.7 3.8 0
    endloop
  endfacet
  facet normal -0 0 1
    outer loop
      vertex -5.7 6.8 -0.79
      vertex -2.7 3.8 -0.79
      vertex -2.7 6.8 -0.79
    endloop
  endfacet
  facet normal 0 0 1
    outer loop
      vertex -2.7 3.8 -0.79
      vertex -5.7 6.8 -0.79
      vertex -5.7 3.8 -0.79
    endloop
  endfacet
  facet normal 1 -0 0
    outer loop
      vertex -5.7 3.8 0
      vertex -5.7 6.8 -0.79
      vertex -5.7 6.8 0
    endloop
  endfacet
  facet normal 1 0 0
    outer loop
      vertex -5.7 6.8 -0.79
      vertex -5.7 3.8 0
      vertex -5.7 3.8 -0.79
    endloop
  endfacet
  facet normal 0 -1 0
    outer loop
      vertex -5.7 6.8 -0.79
      vertex -2.7 6.8 0
      vertex -5.7 6.8 0
    endloop
  endfacet
  facet normal 0 -1 -0
    outer loop
      vertex -2.7 6.8 0
      vertex -5.7 6.8 -0.79
      vertex -2.7 6.8 -0.79
    endloop
  endfacet
  facet normal 0 1 -0
    outer loop
      vertex -2.7 3.8 -0.79
      vertex -5.7 3.8 0
      vertex -2.7 3.8 0
    endloop
  endfacet
  facet normal 0 1 0
    outer loop
      vertex -5.7 3.8 0
      vertex -2.7 3.8 -0.79
      vertex -5.7 3.8 -0.79
    endloop
  endfacet
  facet normal -1 0 0
    outer loop
      vertex 1.1 -7.6 -0.79
      vertex 1.1 -4.6 0
      vertex 1.1 -4.6 -0.79
    endloop
  endfacet
  facet normal -1 -0 0
    outer loop
      vertex 1.1 -4.6 0
      vertex 1.1 -7.6 -0.79
      vertex 1.1 -7.6 0
    endloop
  endfacet
  facet normal -0 0 1
    outer loop
      vertex -1.9 -4.6 -0.79
      vertex 1.1 -7.6 -0.79
      vertex 1.1 -4.6 -0.79
    endloop
  endfacet
  facet normal 0 0 1
    outer loop
      vertex 1.1 -7.6 -0.79
      vertex -1.9 -4.6 -0.79
      vertex -1.9 -7.6 -0.79
    endloop
  endfacet
  facet normal 1 -0 0
    outer loop
      vertex -1.9 -7.6 0
      vertex -1.9 -4.6 -0.79
      vertex -1.9 -4.6 0
    endloop
  endfacet
  facet normal 1 0 0
    outer loop
      vertex -1.9 -4.6 -0.79
      vertex -1.9 -7.6 0
      vertex -1.9 -7.6 -0.79
    endloop
  endfacet
  facet normal 0 -1 0
    outer loop
      vertex -1.9 -4.6 -0.79
      vertex 1.1 -4.6 0
      vertex -1.9 -4.6 0
    endloop
  endfacet
  facet normal 0 -1 -0
    outer loop
      vertex 1.1 -4.6 0
      vertex -1.9 -4.6 -0.79
      vertex 1.1 -4.6 -0.79
    endloop
  endfacet
  facet normal 0 1 -0
    outer loop
      vertex 1.1 -7.6 -0.79
      vertex -1.9 -7.6 0
      vertex 1.1 -7.6 0
    endloop
  endfacet
  facet normal 0 1 0
    outer loop
      vertex -1.9 -7.6 0
      vertex 1.1 -7.6 -0.79
      vertex -1.9 -7.6 -0.79
    endloop
  endfacet
  facet normal -1 0 0
    outer loop
      vertex 1.1 -3.8 -0.79
      vertex 1.1 -0.800001 0
      vertex 1.1 -0.800001 -0.79
    endloop
  endfacet
  facet normal -1 -0 0
    outer loop
      vertex 1.1 -0.800001 0
      vertex 1.1 -3.8 -0.79
      vertex 1.1 -3.8 0
    endloop
  endfacet
  facet normal -0 0 1
    outer loop
      vertex -1.9 -0.800001 -0.79
      vertex 1.1 -3.8 -0.79
      vertex 1.1 -0.800001 -0.79
    endloop
  endfacet
  facet normal 0 0 1
    outer loop
      vertex 1.1 -3.8 -0.79
      vertex -1.9 -0.800001 -0.79
      vertex -1.9 -3.8 -0.79
    endloop
  endfacet
  facet normal 1 -0 0
    outer loop
      vertex -1.9 -3.8 0
      vertex -1.9 -0.800001 -0.79
      vertex -1.9 -0.800001 0
    endloop
  endfacet
  facet normal 1 0 0
    outer loop
      vertex -1.9 -0.800001 -0.79
      vertex -1.9 -3.8 0
      vertex -1.9 -3.8 -0.79
    endloop
  endfacet
  facet normal 0 -1 0
    outer loop
      vertex -1.9 -0.800001 -0.79
      vertex 1.1 -0.800001 0
      vertex -1.9 -0.800001 0
    endloop
  endfacet
  facet normal 0 -1 -0
    outer loop
      vertex 1.1 -0.800001 0
      vertex -1.9 -0.800001 -0.79
      vertex 1.1 -0.800001 -0.79
    endloop
  endfacet
  facet normal 0 1 -0
    outer loop
      vertex 1.1 -3.8 -0.79
      vertex -1.9 -3.8 0
      vertex 1.1 -3.8 0
    endloop
  endfacet
  facet normal 0 1 0
    outer loop
      vertex -1.9 -3.8 0
      vertex 1.1 -3.8 -0.79
      vertex -1.9 -3.8 -0.79
    endloop
  endfacet
  facet normal -1 0 0
    outer loop
      vertex 1.1 -5.72205e-07 -0.79
      vertex 1.1 3 0
      vertex 1.1 3 -0.79
    endloop
  endfacet
  facet normal -1 -0 0
    outer loop
      vertex 1.1 3 0
      vertex 1.1 -5.72205e-07 -0.79
      vertex 1.1 -5.72205e-07 0
    endloop
  endfacet
  facet normal -0 0 1
    outer loop
      vertex -1.9 3 -0.79
      vertex 1.1 -5.72205e-07 -0.79
      vertex 1.1 3 -0.79
    endloop
  endfacet
  facet normal 0 0 1
    outer loop
      vertex 1.1 -5.72205e-07 -0.79
      vertex -1.9 3 -0.79
      vertex -1.9 -5.72205e-07 -0.79
    endloop
  endfacet
  facet normal 1 -0 0
    outer loop
      vertex -1.9 -5.72205e-07 0
      vertex -1.9 3 -0.79
      vertex -1.9 3 0
    endloop
  endfacet
  facet normal 1 0 0
    outer loop
      vertex -1.9 3 -0.79
      vertex -1.9 -5.72205e-07 0
      vertex -1.9 -5.72205e-07 -0.79
    endloop
  endfacet
  facet normal 0 -1 0
    outer loop
      vertex -1.9 3 -0.79
      vertex 1.1 3 0
      vertex -1.9 3 0
    endloop
  endfacet
  facet normal 0 -1 -0
    outer loop
      vertex 1.1 3 0
      vertex -1.9 3 -0.79
      vertex 1.1 3 -0.79
    endloop
  endfacet
  facet normal 0 1 -0
    outer loop
      vertex 1.1 -5.72205e-07 -0.79
      vertex -1.9 -5.72205e-07 0
      vertex 1.1 -5.72205e-07 0
    endloop
  endfacet
  facet normal 0 1 0
    outer loop
      vertex -1.9 -5.72205e-07 0
      vertex 1.1 -5.72205e-07 -0.79
      vertex -1.9 -5.72205e-07 -0.79
    endloop
  endfacet
  facet normal -1 0 0
    outer loop
      vertex 1.1 3.8 -0.79
      vertex 1.1 6.8 0
      vertex 1.1 6.8 -0.79
    endloop
  endfacet
  facet normal -1 -0 0
    outer loop
      vertex 1.1 6.8 0
      vertex 1.1 3.8 -0.79
      vertex 1.1 3.8 0
    endloop
  endfacet
  facet normal -0 0 1
    outer loop
      vertex -1.9 6.8 -0.79
      vertex 1.1 3.8 -0.79
      vertex 1.1 6.8 -0.79
    endloop
  endfacet
  facet normal 0 0 1
    outer loop
      vertex 1.1 3.8 -0.79
      vertex -1.9 6.8 -0.79
      vertex -1.9 3.8 -0.79
    endloop
  endfacet
  facet normal 1 -0 0
    outer loop
      vertex -1.9 3.8 0
      vertex -1.9 6.8 -0.79
      vertex -1.9 6.8 0
    endloop
  endfacet
  facet normal 1 0 0
    outer loop
      vertex -1.9 6.8 -0.79
      vertex -1.9 3.8 0
      vertex -1.9 3.8 -0.79
    endloop
  endfacet
  facet normal 0 -1 0
    outer loop
      vertex -1.9 6.8 -0.79
      vertex 1.1 6.8 0
      vertex -1.9 6.8 0
    endloop
  endfacet
  facet normal 0 -1 -0
    outer loop
      vertex 1.1 6.8 0
      vertex -1.9 6.8 -0.79
      vertex 1.1 6.8 -0.79
    endloop
  endfacet
  facet normal 0 1 -0
    outer loop
      vertex 1.1 3.8 -0.79
      vertex -1.9 3.8 0
      vertex 1.1 3.8 0
    endloop
  endfacet
  facet normal 0 1 0
    outer loop
      vertex -1.9 3.8 0
      vertex 1.1 3.8 -0.79
      vertex -1.9 3.8 -0.79
    endloop
  endfacet
  facet normal -1 0 0
    outer loop
      vertex 4.9 -7.6 -0.79
      vertex 4.9 -4.6 0
      vertex 4.9 -4.6 -0.79
    endloop
  endfacet
  facet normal -1 -0 0
    outer loop
      vertex 4.9 -4.6 0
      vertex 4.9 -7.6 -0.79
      vertex 4.9 -7.6 0
    endloop
  endfacet
  facet normal -0 0 1
    outer loop
      vertex 1.9 -4.6 -0.79
      vertex 4.9 -7.6 -0.79
      vertex 4.9 -4.6 -0.79
    endloop
  endfacet
  facet normal 0 0 1
    outer loop
      vertex 4.9 -7.6 -0.79
      vertex 1.9 -4.6 -0.79
      vertex 1.9 -7.6 -0.79
    endloop
  endfacet
  facet normal 1 -0 0
    outer loop
      vertex 1.9 -7.6 0
      vertex 1.9 -4.6 -0.79
      vertex 1.9 -4.6 0
    endloop
  endfacet
  facet normal 1 0 0
    outer loop
      vertex 1.9 -4.6 -0.79
      vertex 1.9 -7.6 0
      vertex 1.9 -7.6 -0.79
    endloop
  endfacet
  facet normal 0 -1 0
    outer loop
      vertex 1.9 -4.6 -0.79
      vertex 4.9 -4.6 0
      vertex 1.9 -4.6 0
    endloop
  endfacet
  facet normal 0 -1 -0
    outer loop
      vertex 4.9 -4.6 0
      vertex 1.9 -4.6 -0.79
      vertex 4.9 -4.6 -0.79
    endloop
  endfacet
  facet normal 0 1 -0
    outer loop
      vertex 4.9 -7.6 -0.79
      vertex 1.9 -7.6 0
      vertex 4.9 -7.6 0
    endloop
  endfacet
  facet normal 0 1 0
    outer loop
      vertex 1.9 -7.6 0
      vertex 4.9 -7.6 -0.79
      vertex 1.9 -7.6 -0.79
    endloop
  endfacet
  facet normal -1 0 0
    outer loop
      vertex 4.9 -3.8 -0.79
      vertex 4.9 -0.800001 0
      vertex 4.9 -0.800001 -0.79
    endloop
  endfacet
  facet normal -1 -0 0
    outer loop
      vertex 4.9 -0.800001 0
      vertex 4.9 -3.8 -0.79
      vertex 4.9 -3.8 0
    endloop
  endfacet
  facet normal -0 0 1
    outer loop
      vertex 1.9 -0.800001 -0.79
      vertex 4.9 -3.8 -0.79
      vertex 4.9 -0.800001 -0.79
    endloop
  endfacet
  facet normal 0 0 1
    outer loop
      vertex 4.9 -3.8 -0.79
      vertex 1.9 -0.800001 -0.79
      vertex 1.9 -3.8 -0.79
    endloop
  endfacet
  facet normal 1 -0 0
    outer loop
      vertex 1.9 -3.8 0
      vertex 1.9 -0.800001 -0.79
      vertex 1.9 -0.800001 0
    endloop
  endfacet
  facet normal 1 0 0
    outer loop
      vertex 1.9 -0.800001 -0.79
      vertex 1.9 -3.8 0
      vertex 1.9 -3.8 -0.79
    endloop
  endfacet
  facet normal 0 -1 0
    outer loop
      vertex 1.9 -0.800001 -0.79
      vertex 4.9 -0.800001 0
      vertex 1.9 -0.800001 0
    endloop
  endfacet
  facet normal 0 -1 -0
    outer loop
      vertex 4.9 -0.800001 0
      vertex 1.9 -0.800001 -0.79
      vertex 4.9 -0.800001 -0.79
    endloop
  endfacet
  facet normal 0 1 -0
    outer loop
      vertex 4.9 -3.8 -0.79
      vertex 1.9 -3.8 0
      vertex 4.9 -3.8 0
    endloop
  endfacet
  facet normal 0 1 0
    outer loop
      vertex 1.9 -3.8 0
      vertex 4.9 -3.8 -0.79
      vertex 1.9 -3.8 -0.79
    endloop
  endfacet
  facet normal -1 0 0
    outer loop
      vertex 4.9 -5.72205e-07 -0.79
      vertex 4.9 3 0
      vertex 4.9 3 -0.79
    endloop
  endfacet
  facet normal -1 -0 0
    outer loop
      vertex 4.9 3 0
      vertex 4.9 -5.72205e-07 -0.79
      vertex 4.9 -5.72205e-07 0
    endloop
  endfacet
  facet normal -0 0 1
    outer loop
      vertex 1.9 3 -0.79
      vertex 4.9 -5.72205e-07 -0.79
      vertex 4.9 3 -0.79
    endloop
  endfacet
  facet normal 0 0 1
    outer loop
      vertex 4.9 -5.72205e-07 -0.79
      vertex 1.9 3 -0.79
      vertex 1.9 -5.72205e-07 -0.79
    endloop
  endfacet
  facet normal 1 -0 0
    outer loop
      vertex 1.9 -5.72205e-07 0
      vertex 1.9 3 -0.79
      vertex 1.9 3 0
    endloop
  endfacet
  facet normal 1 0 0
    outer loop
      vertex 1.9 3 -0.79
      vertex 1.9 -5.72205e-07 0
      vertex 1.9 -5.72205e-07 -0.79
    endloop
  endfacet
  facet normal 0 -1 0
    outer loop
      vertex 1.9 3 -0.79
      vertex 4.9 3 0
      vertex 1.9 3 0
    endloop
  endfacet
  facet normal 0 -1 -0
    outer loop
      vertex 4.9 3 0
      vertex 1.9 3 -0.79
      vertex 4.9 3 -0.79
    endloop
  endfacet
  facet normal 0 1 -0
    outer loop
      vertex 4.9 -5.72205e-07 -0.79
      vertex 1.9 -5.72205e-07 0
      vertex 4.9 -5.72205e-07 0
    endloop
  endfacet
  facet normal 0 1 0
    outer loop
      vertex 1.9 -5.72205e-07 0
      vertex 4.9 -5.72205e-07 -0.79
      vertex 1.9 -5.72205e-07 -0.79
    endloop
  endfacet
  facet normal -1 0 0
    outer loop
      vertex 4.9 3.8 -0.79
      vertex 4.9 6.8 0
      vertex 4.9 6.8 -0.79
    endloop
  endfacet
  facet normal -1 -0 0
    outer loop
      vertex 4.9 6.8 0
      vertex 4.9 3.8 -0.79
      vertex 4.9 3.8 0
    endloop
  endfacet
  facet normal -0 0 1
    outer loop
      vertex 1.9 6.8 -0.79
      vertex 4.9 3.8 -0.79
      vertex 4.9 6.8 -0.79
    endloop
  endfacet
  facet normal 0 0 1
    outer loop
      vertex 4.9 3.8 -0.79
      vertex 1.9 6.8 -0.79
      vertex 1.9 3.8 -0.79
    endloop
  endfacet
  facet normal 1 -0 0
    outer loop
      vertex 1.9 3.8 0
      vertex 1.9 6.8 -0.79
      vertex 1.9 6.8 0
    endloop
  endfacet
  facet normal 1 0 0
    outer loop
      vertex 1.9 6.8 -0.79
      vertex 1.9 3.8 0
      vertex 1.9 3.8 -0.79
    endloop
  endfacet
  facet normal 0 -1 0
    outer loop
      vertex 1.9 6.8 -0.79
      vertex 4.9 6.8 0
      vertex 1.9 6.8 0
    endloop
  endfacet
  facet normal 0 -1 -0
    outer loop
      vertex 4.9 6.8 0
      vertex 1.9 6.8 -0.79
      vertex 4.9 6.8 -0.79
    endloop
  endfacet
  facet normal 0 1 -0
    outer loop
      vertex 4.9 3.8 -0.79
      vertex 1.9 3.8 0
      vertex 4.9 3.8 0
    endloop
  endfacet
  facet normal 0 1 0
    outer loop
      vertex 1.9 3.8 0
      vertex 4.9 3.8 -0.79
      vertex 1.9 3.8 -0.79
    endloop
  endfacet
  facet normal 1 -0 0
    outer loop
      vertex 16.5 -32.5 0
      vertex 16.5 32.5 -2
      vertex 16.5 32.5 0
    endloop
  endfacet
  facet normal 1 0 0
    outer loop
      vertex 16.5 32.5 -2
      vertex 16.5 -32.5 0
      vertex 16.5 -32.5 -2
    endloop
  endfacet
  facet normal -0 0 1
    outer loop
      vertex -5.7 -3.8 0
      vertex -2.7 -4.6 0
      vertex -2.7 -3.8 0
    endloop
  endfacet
  facet normal 0 0 1
    outer loop
      vertex -2.7 -4.6 0
      vertex -5.7 -3.8 0
      vertex -5.7 -4.6 0
    endloop
  endfacet
  facet normal -0 0 1
    outer loop
      vertex -5.7 -5.72205e-07 0
      vertex -2.7 -0.800001 0
      vertex -2.7 -5.72205e-07 0
    endloop
  endfacet
  facet normal 0 0 1
    outer loop
      vertex -2.7 -0.800001 0
      vertex -5.7 -5.72205e-07 0
      vertex -5.7 -0.800001 0
    endloop
  endfacet
  facet normal -0 0 1
    outer loop
      vertex -5.7 3.8 0
      vertex -2.7 3 0
      vertex -2.7 3.8 0
    endloop
  endfacet
  facet normal 0 0 1
    outer loop
      vertex -2.7 3 0
      vertex -5.7 3.8 0
      vertex -5.7 3 0
    endloop
  endfacet
  facet normal -0 0 1
    outer loop
      vertex -1.9 -3.8 0
      vertex 1.1 -4.6 0
      vertex 1.1 -3.8 0
    endloop
  endfacet
  facet normal 0 0 1
    outer loop
      vertex 1.1 -4.6 0
      vertex -1.9 -3.8 0
      vertex -1.9 -4.6 0
    endloop
  endfacet
  facet normal -0 0 1
    outer loop
      vertex -1.9 -5.72205e-07 0
      vertex 1.1 -0.800001 0
      vertex 1.1 -5.72205e-07 0
    endloop
  endfacet
  facet normal 0 0 1
    outer loop
      vertex 1.1 -0.800001 0
      vertex -1.9 -5.72205e-07 0
      vertex -1.9 -0.800001 0
    endloop
  endfacet
  facet normal -0 0 1
    outer loop
      vertex -1.9 3.8 0
      vertex 1.1 3 0
      vertex 1.1 3.8 0
    endloop
  endfacet
  facet normal 0 0 1
    outer loop
      vertex 1.1 3 0
      vertex -1.9 3.8 0
      vertex -1.9 3 0
    endloop
  endfacet
  facet normal -0 0 1
    outer loop
      vertex 1.9 -3.8 0
      vertex 4.9 -4.6 0
      vertex 4.9 -3.8 0
    endloop
  endfacet
  facet normal 0 0 1
    outer loop
      vertex 4.9 -4.6 0
      vertex 1.9 -3.8 0
      vertex 1.9 -4.6 0
    endloop
  endfacet
  facet normal -0 0 1
    outer loop
      vertex 1.9 -5.72205e-07 0
      vertex 4.9 -0.800001 0
      vertex 4.9 -5.72205e-07 0
    endloop
  endfacet
  facet normal 0 0 1
    outer loop
      vertex 4.9 -0.800001 0
      vertex 1.9 -5.72205e-07 0
      vertex 1.9 -0.800001 0
    endloop
  endfacet
  facet normal -0 0 1
    outer loop
      vertex 1.9 3.8 0
      vertex 4.9 3 0
      vertex 4.9 3.8 0
    endloop
  endfacet
  facet normal 0 0 1
    outer loop
      vertex 4.9 3 0
      vertex 1.9 3.8 0
      vertex 1.9 3 0
    endloop
  endfacet
  facet normal -0 0 1
    outer loop
      vertex 15.0217 -29.0056 0
      vertex 16.5 -32.5 0
      vertex 16.5 32.5 0
    endloop
  endfacet
  facet normal 0 0 1
    outer loop
      vertex 16.5 -32.5 0
      vertex 15.0217 -29.0056 0
      vertex 15.1 -29.5 0
    endloop
  endfacet
  facet normal 0 0 1
    outer loop
      vertex 14.9266 29.0365 0
      vertex 16.5 32.5 0
      vertex 15 29.5 0
    endloop
  endfacet
  facet normal 0 0 1
    outer loop
      vertex 16.5 32.5 0
      vertex 14.9266 29.9635 0
      vertex 15 29.5 0
    endloop
  endfacet
  facet normal 0 0 1
    outer loop
      vertex 16.5 32.5 0
      vertex 14.7135 30.3817 0
      vertex 14.9266 29.9635 0
    endloop
  endfacet
  facet normal 0 0 1
    outer loop
      vertex 16.5 32.5 0
      vertex 14.3817 30.7135 0
      vertex 14.7135 30.3817 0
    endloop
  endfacet
  facet normal 0 0 1
    outer loop
      vertex 16.5 32.5 0
      vertex 13.9635 30.9266 0
      vertex 14.3817 30.7135 0
    endloop
  endfacet
  facet normal 0 0 1
    outer loop
      vertex 16.5 32.5 0
      vertex 13.5 31 0
      vertex 13.9635 30.9266 0
    endloop
  endfacet
  facet normal 0 0 1
    outer loop
      vertex 16.5 32.5 0
      vertex 13.0365 30.9266 0
      vertex 13.5 31 0
    endloop
  endfacet
  facet normal 0 0 1
    outer loop
      vertex 13.9944 -27.9783 0
      vertex 4.9 -7.6 0
      vertex 13.5 -27.9 0
    endloop
  endfacet
  facet normal 0 0 1
    outer loop
      vertex 4.9 3.8 0
      vertex 12 29.5 0
      vertex 4.9 6.8 0
    endloop
  endfacet
  facet normal 0 0 1
    outer loop
      vertex -12 29.5 0
      vertex 12 29.5 0
      vertex 12.0734 29.9635 0
    endloop
  endfacet
  facet normal 0 0 1
    outer loop
      vertex 12 29.5 0
      vertex 1.9 6.8 0
      vertex 4.9 6.8 0
    endloop
  endfacet
  facet normal 0 0 1
    outer loop
      vertex 1.1 3.8 0
      vertex 1.9 3.8 0
      vertex 1.9 6.8 0
    endloop
  endfacet
  facet normal 0 0 1
    outer loop
      vertex 1.9 3.8 0
      vertex 1.1 3.8 0
      vertex 1.9 3 0
    endloop
  endfacet
  facet normal 0 0 1
    outer loop
      vertex 1.9 3 0
      vertex 1.1 3 0
      vertex 1.9 -5.72205e-07 0
    endloop
  endfacet
  facet normal 0 0 1
    outer loop
      vertex 1.1 -5.72205e-07 0
      vertex 1.9 -5.72205e-07 0
      vertex 1.1 3 0
    endloop
  endfacet
  facet normal 0 0 1
    outer loop
      vertex 1.1 -0.800001 0
      vertex 1.9 -0.800001 0
      vertex 1.1 -5.72205e-07 0
    endloop
  endfacet
  facet normal 0 0 1
    outer loop
      vertex 1.9 -0.800001 0
      vertex 1.1 -0.800001 0
      vertex 1.9 -3.8 0
    endloop
  endfacet
  facet normal 0 0 1
    outer loop
      vertex 1.1 3.8 0
      vertex 1.9 6.8 0
      vertex 1.1 6.8 0
    endloop
  endfacet
  facet normal 0 0 1
    outer loop
      vertex 12 29.5 0
      vertex 1.1 6.8 0
      vertex 1.9 6.8 0
    endloop
  endfacet
  facet normal 0 0 1
    outer loop
      vertex 12 29.5 0
      vertex -12.2865 28.6183 0
      vertex 1.1 6.8 0
    endloop
  endfacet
  facet normal 0 0 1
    outer loop
      vertex -12.0734 29.9635 0
      vertex 12.0734 29.9635 0
      vertex 12.2865 30.3817 0
    endloop
  endfacet
  facet normal 0 0 1
    outer loop
      vertex -2.7 3.8 0
      vertex -1.9 3.8 0
      vertex -1.9 6.8 0
    endloop
  endfacet
  facet normal 0 0 1
    outer loop
      vertex -1.9 3.8 0
      vertex -2.7 3.8 0
      vertex -1.9 3 0
    endloop
  endfacet
  facet normal 0 0 1
    outer loop
      vertex -1.9 3 0
      vertex -2.7 3 0
      vertex -1.9 -5.72205e-07 0
    endloop
  endfacet
  facet normal 0 0 1
    outer loop
      vertex -2.7 -5.72205e-07 0
      vertex -1.9 -5.72205e-07 0
      vertex -2.7 3 0
    endloop
  endfacet
  facet normal 0 0 1
    outer loop
      vertex -2.7 -0.800001 0
      vertex -1.9 -0.800001 0
      vertex -2.7 -5.72205e-07 0
    endloop
  endfacet
  facet normal 0 0 1
    outer loop
      vertex -1.9 -0.800001 0
      vertex -2.7 -0.800001 0
      vertex -1.9 -3.8 0
    endloop
  endfacet
  facet normal 0 0 1
    outer loop
      vertex -2.7 3.8 0
      vertex -1.9 6.8 0
      vertex -2.7 6.8 0
    endloop
  endfacet
  facet normal 0 0 1
    outer loop
      vertex 1.1 6.8 0
      vertex -12.2865 28.6183 0
      vertex -1.9 6.8 0
    endloop
  endfacet
  facet normal 0 0 1
    outer loop
      vertex -1.9 6.8 0
      vertex -12.2865 28.6183 0
      vertex -2.7 6.8 0
    endloop
  endfacet
  facet normal 0 0 1
    outer loop
      vertex -14.7135 28.6183 0
      vertex -5.7 3.8 0
      vertex -5.7 6.8 0
    endloop
  endfacet
  facet normal 0 0 1
    outer loop
      vertex -5.7 3.8 0
      vertex -14.7135 28.6183 0
      vertex -5.7 3 0
    endloop
  endfacet
  facet normal 0 0 1
    outer loop
      vertex -5.7 3 0
      vertex -14.7135 28.6183 0
      vertex -5.7 -5.72205e-07 0
    endloop
  endfacet
  facet normal 0 0 1
    outer loop
      vertex -14.7944 -28.5595 0
      vertex -5.7 -5.72205e-07 0
      vertex -14.7135 28.6183 0
    endloop
  endfacet
  facet normal 0 0 1
    outer loop
      vertex -5.7 -5.72205e-07 0
      vertex -14.7944 -28.5595 0
      vertex -5.7 -0.800001 0
    endloop
  endfacet
  facet normal 0 0 1
    outer loop
      vertex -5.7 -0.800001 0
      vertex -14.7944 -28.5595 0
      vertex -5.7 -3.8 0
    endloop
  endfacet
  facet normal 0 0 1
    outer loop
      vertex -5.7 -4.6 0
      vertex -14.7944 -28.5595 0
      vertex -5.7 -7.6 0
    endloop
  endfacet
  facet normal 0 0 1
    outer loop
      vertex -5.7 -7.6 0
      vertex -11.9783 -29.0056 0
      vertex -11.9 -29.5 0
    endloop
  endfacet
  facet normal 0 0 1
    outer loop
      vertex 12 29.5 0
      vertex -12.0734 29.0365 0
      vertex -12.2865 28.6183 0
    endloop
  endfacet
  facet normal 0 0 1
    outer loop
      vertex 12 29.5 0
      vertex -12 29.5 0
      vertex -12.0734 29.0365 0
    endloop
  endfacet
  facet normal 0 0 1
    outer loop
      vertex -12.2865 30.3817 0
      vertex 12.2865 30.3817 0
      vertex 12.6183 30.7135 0
    endloop
  endfacet
  facet normal 0 0 1
    outer loop
      vertex -12.6183 30.7135 0
      vertex 12.6183 30.7135 0
      vertex 13.0365 30.9266 0
    endloop
  endfacet
  facet normal 0 0 1
    outer loop
      vertex -13.0365 30.9266 0
      vertex 13.0365 30.9266 0
      vertex 16.5 32.5 0
    endloop
  endfacet
  facet normal 0 0 1
    outer loop
      vertex 12.0734 29.9635 0
      vertex -12.0734 29.9635 0
      vertex -12 29.5 0
    endloop
  endfacet
  facet normal 0 0 1
    outer loop
      vertex 12.2865 30.3817 0
      vertex -12.2865 30.3817 0
      vertex -12.0734 29.9635 0
    endloop
  endfacet
  facet normal 0 0 1
    outer loop
      vertex 12.6183 30.7135 0
      vertex -12.6183 30.7135 0
      vertex -12.2865 30.3817 0
    endloop
  endfacet
  facet normal 0 0 1
    outer loop
      vertex 13.0365 30.9266 0
      vertex -13.0365 30.9266 0
      vertex -12.6183 30.7135 0
    endloop
  endfacet
  facet normal -0 0 1
    outer loop
      vertex -16.5 32.5 0
      vertex -13.0365 30.9266 0
      vertex 16.5 32.5 0
    endloop
  endfacet
  facet normal 0 0 1
    outer loop
      vertex -14.9266 29.0365 0
      vertex -16.5 32.5 0
      vertex -15.0217 -29.0056 0
    endloop
  endfacet
  facet normal 0 0 1
    outer loop
      vertex -16.5 -32.5 0
      vertex -15.0217 -29.0056 0
      vertex -16.5 32.5 0
    endloop
  endfacet
  facet normal 0 0 1
    outer loop
      vertex -14.9266 29.9635 0
      vertex -16.5 32.5 0
      vertex -15 29.5 0
    endloop
  endfacet
  facet normal 0 0 1
    outer loop
      vertex -14.7135 30.3817 0
      vertex -16.5 32.5 0
      vertex -14.9266 29.9635 0
    endloop
  endfacet
  facet normal 0 0 1
    outer loop
      vertex -14.3817 30.7135 0
      vertex -16.5 32.5 0
      vertex -14.7135 30.3817 0
    endloop
  endfacet
  facet normal 0 0 1
    outer loop
      vertex -13.9635 30.9266 0
      vertex -16.5 32.5 0
      vertex -14.3817 30.7135 0
    endloop
  endfacet
  facet normal 0 0 1
    outer loop
      vertex -13.5 31 0
      vertex -16.5 32.5 0
      vertex -13.9635 30.9266 0
    endloop
  endfacet
  facet normal 0 0 1
    outer loop
      vertex -13.0365 30.9266 0
      vertex -16.5 32.5 0
      vertex -13.5 31 0
    endloop
  endfacet
  facet normal -0 0 1
    outer loop
      vertex 15.0217 -29.9944 0
      vertex 16.5 -32.5 0
      vertex 15.1 -29.5 0
    endloop
  endfacet
  facet normal -0 0 1
    outer loop
      vertex 14.7944 -30.4405 0
      vertex 16.5 -32.5 0
      vertex 15.0217 -29.9944 0
    endloop
  endfacet
  facet normal -0 0 1
    outer loop
      vertex 14.4405 -30.7944 0
      vertex 16.5 -32.5 0
      vertex 14.7944 -30.4405 0
    endloop
  endfacet
  facet normal -0 0 1
    outer loop
      vertex 13.9944 -31.0217 0
      vertex 16.5 -32.5 0
      vertex 14.4405 -30.7944 0
    endloop
  endfacet
  facet normal -0 0 1
    outer loop
      vertex 13.5 -31.1 0
      vertex 16.5 -32.5 0
      vertex 13.9944 -31.0217 0
    endloop
  endfacet
  facet normal 0 0 1
    outer loop
      vertex 13.0056 -31.0217 0
      vertex 16.5 -32.5 0
      vertex 13.5 -31.1 0
    endloop
  endfacet
  facet normal 0 0 1
    outer loop
      vertex 4.9 3 0
      vertex 12 29.5 0
      vertex 4.9 3.8 0
    endloop
  endfacet
  facet normal 0 0 1
    outer loop
      vertex 4.9 -5.72205e-07 0
      vertex 12 29.5 0
      vertex 4.9 3 0
    endloop
  endfacet
  facet normal 0 0 1
    outer loop
      vertex 13.5 -27.9 0
      vertex 4.9 -7.6 0
      vertex 13.0056 -27.9783 0
    endloop
  endfacet
  facet normal 0 0 1
    outer loop
      vertex 13.0056 -27.9783 0
      vertex 4.9 -7.6 0
      vertex 12.5595 -28.2056 0
    endloop
  endfacet
  facet normal 0 0 1
    outer loop
      vertex 12.5595 -28.2056 0
      vertex 4.9 -7.6 0
      vertex 12.2056 -28.5595 0
    endloop
  endfacet
  facet normal -0 0 1
    outer loop
      vertex 1.9 -7.6 0
      vertex 12.2056 -28.5595 0
      vertex 4.9 -7.6 0
    endloop
  endfacet
  facet normal -0 0 1
    outer loop
      vertex 1.1 -7.6 0
      vertex 12.2056 -28.5595 0
      vertex 1.9 -7.6 0
    endloop
  endfacet
  facet normal 0 0 1
    outer loop
      vertex -11.9 -29.5 0
      vertex 12.2056 -28.5595 0
      vertex 1.1 -7.6 0
    endloop
  endfacet
  facet normal 0 0 1
    outer loop
      vertex 12.2056 -28.5595 0
      vertex -11.9 -29.5 0
      vertex 11.9783 -29.0056 0
    endloop
  endfacet
  facet normal 0 0 1
    outer loop
      vertex 1.9 3 0
      vertex 1.1 3.8 0
      vertex 1.1 3 0
    endloop
  endfacet
  facet normal 0 0 1
    outer loop
      vertex 1.9 -5.72205e-07 0
      vertex 1.1 -5.72205e-07 0
      vertex 1.9 -0.800001 0
    endloop
  endfacet
  facet normal 0 0 1
    outer loop
      vertex 1.1 -3.8 0
      vertex 1.9 -3.8 0
      vertex 1.1 -0.800001 0
    endloop
  endfacet
  facet normal 0 0 1
    outer loop
      vertex 1.9 -3.8 0
      vertex 1.1 -3.8 0
      vertex 1.9 -4.6 0
    endloop
  endfacet
  facet normal 0 0 1
    outer loop
      vertex 1.1 -4.6 0
      vertex 1.9 -4.6 0
      vertex 1.1 -3.8 0
    endloop
  endfacet
  facet normal 0 0 1
    outer loop
      vertex 1.9 -4.6 0
      vertex 1.1 -4.6 0
      vertex 1.9 -7.6 0
    endloop
  endfacet
  facet normal 0 0 1
    outer loop
      vertex 1.1 -7.6 0
      vertex 1.9 -7.6 0
      vertex 1.1 -4.6 0
    endloop
  endfacet
  facet normal 0 0 1
    outer loop
      vertex 11.9783 -29.0056 0
      vertex -11.9 -29.5 0
      vertex 11.9 -29.5 0
    endloop
  endfacet
  facet normal 0 0 1
    outer loop
      vertex -11.9 -29.5 0
      vertex 1.1 -7.6 0
      vertex -1.9 -7.6 0
    endloop
  endfacet
  facet normal 0 0 1
    outer loop
      vertex 11.9 -29.5 0
      vertex -11.9 -29.5 0
      vertex 11.9783 -29.9944 0
    endloop
  endfacet
  facet normal 0 0 1
    outer loop
      vertex -1.9 3 0
      vertex -2.7 3.8 0
      vertex -2.7 3 0
    endloop
  endfacet
  facet normal 0 0 1
    outer loop
      vertex -1.9 -5.72205e-07 0
      vertex -2.7 -5.72205e-07 0
      vertex -1.9 -0.800001 0
    endloop
  endfacet
  facet normal 0 0 1
    outer loop
      vertex -2.7 -3.8 0
      vertex -1.9 -3.8 0
      vertex -2.7 -0.800001 0
    endloop
  endfacet
  facet normal 0 0 1
    outer loop
      vertex -1.9 -3.8 0
      vertex -2.7 -3.8 0
      vertex -1.9 -4.6 0
    endloop
  endfacet
  facet normal 0 0 1
    outer loop
      vertex -2.7 -4.6 0
      vertex -1.9 -4.6 0
      vertex -2.7 -3.8 0
    endloop
  endfacet
  facet normal 0 0 1
    outer loop
      vertex -1.9 -4.6 0
      vertex -2.7 -4.6 0
      vertex -1.9 -7.6 0
    endloop
  endfacet
  facet normal 0 0 1
    outer loop
      vertex -2.7 -7.6 0
      vertex -1.9 -7.6 0
      vertex -2.7 -4.6 0
    endloop
  endfacet
  facet normal 0 0 1
    outer loop
      vertex -11.9 -29.5 0
      vertex -1.9 -7.6 0
      vertex -2.7 -7.6 0
    endloop
  endfacet
  facet normal 0 0 1
    outer loop
      vertex -11.9 -29.5 0
      vertex -2.7 -7.6 0
      vertex -5.7 -7.6 0
    endloop
  endfacet
  facet normal 0 0 1
    outer loop
      vertex -11.9783 -29.9944 0
      vertex 11.9783 -29.9944 0
      vertex -11.9 -29.5 0
    endloop
  endfacet
  facet normal 0 0 1
    outer loop
      vertex 11.9783 -29.9944 0
      vertex -11.9783 -29.9944 0
      vertex 12.2056 -30.4405 0
    endloop
  endfacet
  facet normal 0 0 1
    outer loop
      vertex -12.2056 -30.4405 0
      vertex 12.2056 -30.4405 0
      vertex -11.9783 -29.9944 0
    endloop
  endfacet
  facet normal 0 0 1
    outer loop
      vertex 12.2056 -30.4405 0
      vertex -12.2056 -30.4405 0
      vertex 12.5595 -30.7944 0
    endloop
  endfacet
  facet normal 0 0 1
    outer loop
      vertex -12.5595 -30.7944 0
      vertex 12.5595 -30.7944 0
      vertex -12.2056 -30.4405 0
    endloop
  endfacet
  facet normal 0 0 1
    outer loop
      vertex 12.5595 -30.7944 0
      vertex -12.5595 -30.7944 0
      vertex 13.0056 -31.0217 0
    endloop
  endfacet
  facet normal 0 0 1
    outer loop
      vertex -13.0056 -31.0217 0
      vertex 13.0056 -31.0217 0
      vertex -12.5595 -30.7944 0
    endloop
  endfacet
  facet normal 0 0 1
    outer loop
      vertex 13.0056 -31.0217 0
      vertex -13.0056 -31.0217 0
      vertex 16.5 -32.5 0
    endloop
  endfacet
  facet normal 0 0 1
    outer loop
      vertex -16.5 -32.5 0
      vertex -13.0056 -31.0217 0
      vertex -13.5 -31.1 0
    endloop
  endfacet
  facet normal 0 0 1
    outer loop
      vertex -13.0056 -31.0217 0
      vertex -16.5 -32.5 0
      vertex 16.5 -32.5 0
    endloop
  endfacet
  facet normal 0 0 1
    outer loop
      vertex -13.9944 -31.0217 0
      vertex -16.5 -32.5 0
      vertex -13.5 -31.1 0
    endloop
  endfacet
  facet normal 0 0 1
    outer loop
      vertex -14.4405 -30.7944 0
      vertex -16.5 -32.5 0
      vertex -13.9944 -31.0217 0
    endloop
  endfacet
  facet normal 0 0 1
    outer loop
      vertex -14.7944 -30.4405 0
      vertex -16.5 -32.5 0
      vertex -14.4405 -30.7944 0
    endloop
  endfacet
  facet normal 0 0 1
    outer loop
      vertex -15.0217 -29.9944 0
      vertex -16.5 -32.5 0
      vertex -14.7944 -30.4405 0
    endloop
  endfacet
  facet normal 0 0 1
    outer loop
      vertex -15.1 -29.5 0
      vertex -16.5 -32.5 0
      vertex -15.0217 -29.9944 0
    endloop
  endfacet
  facet normal 0 0 1
    outer loop
      vertex -15.0217 -29.0056 0
      vertex -16.5 -32.5 0
      vertex -15.1 -29.5 0
    endloop
  endfacet
  facet normal 0 0 1
    outer loop
      vertex 16.5 32.5 0
      vertex 14.9266 29.0365 0
      vertex 15.0217 -29.0056 0
    endloop
  endfacet
  facet normal 0 0 1
    outer loop
      vertex 14.9266 29.0365 0
      vertex 14.7944 -28.5595 0
      vertex 15.0217 -29.0056 0
    endloop
  endfacet
  facet normal -0 0 1
    outer loop
      vertex 14.7135 28.6183 0
      vertex 14.7944 -28.5595 0
      vertex 14.9266 29.0365 0
    endloop
  endfacet
  facet normal -0 0 1
    outer loop
      vertex 4.9 -5.72205e-07 0
      vertex 14.7944 -28.5595 0
      vertex 14.7135 28.6183 0
    endloop
  endfacet
  facet normal 0 0 1
    outer loop
      vertex 4.9 -5.72205e-07 0
      vertex 14.7135 28.6183 0
      vertex 14.3817 28.2865 0
    endloop
  endfacet
  facet normal -0 0 1
    outer loop
      vertex 4.9 -0.800001 0
      vertex 14.7944 -28.5595 0
      vertex 4.9 -5.72205e-07 0
    endloop
  endfacet
  facet normal 0 0 1
    outer loop
      vertex 4.9 -5.72205e-07 0
      vertex 14.3817 28.2865 0
      vertex 13.9635 28.0734 0
    endloop
  endfacet
  facet normal 0 0 1
    outer loop
      vertex 4.9 -5.72205e-07 0
      vertex 13.9635 28.0734 0
      vertex 13.5 28 0
    endloop
  endfacet
  facet normal -0 0 1
    outer loop
      vertex 4.9 -3.8 0
      vertex 14.7944 -28.5595 0
      vertex 4.9 -0.800001 0
    endloop
  endfacet
  facet normal 0 0 1
    outer loop
      vertex 4.9 -5.72205e-07 0
      vertex 13.5 28 0
      vertex 13.0365 28.0734 0
    endloop
  endfacet
  facet normal -0 0 1
    outer loop
      vertex 4.9 -4.6 0
      vertex 14.7944 -28.5595 0
      vertex 4.9 -3.8 0
    endloop
  endfacet
  facet normal 0 0 1
    outer loop
      vertex 4.9 -5.72205e-07 0
      vertex 13.0365 28.0734 0
      vertex 12.6183 28.2865 0
    endloop
  endfacet
  facet normal 0 0 1
    outer loop
      vertex 14.7944 -28.5595 0
      vertex 4.9 -4.6 0
      vertex 14.4405 -28.2056 0
    endloop
  endfacet
  facet normal 0 0 1
    outer loop
      vertex 4.9 -5.72205e-07 0
      vertex 12.6183 28.2865 0
      vertex 12.2865 28.6183 0
    endloop
  endfacet
  facet normal -0 0 1
    outer loop
      vertex 4.9 -7.6 0
      vertex 14.4405 -28.2056 0
      vertex 4.9 -4.6 0
    endloop
  endfacet
  facet normal 0 0 1
    outer loop
      vertex 4.9 -5.72205e-07 0
      vertex 12.2865 28.6183 0
      vertex 12.0734 29.0365 0
    endloop
  endfacet
  facet normal 0 0 1
    outer loop
      vertex 4.9 -5.72205e-07 0
      vertex 12.0734 29.0365 0
      vertex 12 29.5 0
    endloop
  endfacet
  facet normal 0 0 1
    outer loop
      vertex 14.4405 -28.2056 0
      vertex 4.9 -7.6 0
      vertex 13.9944 -27.9783 0
    endloop
  endfacet
  facet normal -0 0 1
    outer loop
      vertex -12.6183 28.2865 0
      vertex -2.7 6.8 0
      vertex -12.2865 28.6183 0
    endloop
  endfacet
  facet normal 0 0 1
    outer loop
      vertex -5.7 -7.6 0
      vertex -12.2056 -28.5595 0
      vertex -11.9783 -29.0056 0
    endloop
  endfacet
  facet normal 0 0 1
    outer loop
      vertex -2.7 6.8 0
      vertex -12.6183 28.2865 0
      vertex -5.7 6.8 0
    endloop
  endfacet
  facet normal 0 0 1
    outer loop
      vertex -5.7 -7.6 0
      vertex -12.5595 -28.2056 0
      vertex -12.2056 -28.5595 0
    endloop
  endfacet
  facet normal -0 0 1
    outer loop
      vertex -13.0365 28.0734 0
      vertex -5.7 6.8 0
      vertex -12.6183 28.2865 0
    endloop
  endfacet
  facet normal 0 0 1
    outer loop
      vertex -5.7 -7.6 0
      vertex -13.0056 -27.9783 0
      vertex -12.5595 -28.2056 0
    endloop
  endfacet
  facet normal -0 0 1
    outer loop
      vertex -13.5 28 0
      vertex -5.7 6.8 0
      vertex -13.0365 28.0734 0
    endloop
  endfacet
  facet normal 0 0 1
    outer loop
      vertex -13.9635 28.0734 0
      vertex -5.7 6.8 0
      vertex -13.5 28 0
    endloop
  endfacet
  facet normal 0 0 1
    outer loop
      vertex -5.7 -7.6 0
      vertex -13.5 -27.9 0
      vertex -13.0056 -27.9783 0
    endloop
  endfacet
  facet normal 0 0 1
    outer loop
      vertex -14.3817 28.2865 0
      vertex -5.7 6.8 0
      vertex -13.9635 28.0734 0
    endloop
  endfacet
  facet normal 0 0 1
    outer loop
      vertex -5.7 -7.6 0
      vertex -13.9944 -27.9783 0
      vertex -13.5 -27.9 0
    endloop
  endfacet
  facet normal 0 0 1
    outer loop
      vertex -14.7135 28.6183 0
      vertex -5.7 6.8 0
      vertex -14.3817 28.2865 0
    endloop
  endfacet
  facet normal 0 0 1
    outer loop
      vertex -5.7 -7.6 0
      vertex -14.4405 -28.2056 0
      vertex -13.9944 -27.9783 0
    endloop
  endfacet
  facet normal 0 0 1
    outer loop
      vertex -5.7 -3.8 0
      vertex -14.7944 -28.5595 0
      vertex -5.7 -4.6 0
    endloop
  endfacet
  facet normal 0 0 1
    outer loop
      vertex -5.7 -7.6 0
      vertex -14.7944 -28.5595 0
      vertex -14.4405 -28.2056 0
    endloop
  endfacet
  facet normal 0 0 1
    outer loop
      vertex -14.9266 29.0365 0
      vertex -14.7944 -28.5595 0
      vertex -14.7135 28.6183 0
    endloop
  endfacet
  facet normal 0 0 1
    outer loop
      vertex -16.5 32.5 0
      vertex -14.9266 29.0365 0
      vertex -15 29.5 0
    endloop
  endfacet
  facet normal 0 0 1
    outer loop
      vertex -14.9266 29.0365 0
      vertex -15.0217 -29.0056 0
      vertex -14.7944 -28.5595 0
    endloop
  endfacet
  facet normal 0 0 -1
    outer loop
      vertex 12.0734 29.0365 -2
      vertex -12.0734 29.0365 -2
      vertex -12 29.5 -2
    endloop
  endfacet
  facet normal 0 0 -1
    outer loop
      vertex -13.0056 -27.9783 -2
      vertex 13.0056 -27.9783 -2
      vertex -12.5595 -28.2056 -2
    endloop
  endfacet
  facet normal 0 0 -1
    outer loop
      vertex 13.0365 28.0734 -2
      vertex -12.2865 28.6183 -2
      vertex -12.0734 29.0365 -2
    endloop
  endfacet
  facet normal 0 0 -1
    outer loop
      vertex 13.0056 -27.9783 -2
      vertex -13.0056 -27.9783 -2
      vertex 13.0365 28.0734 -2
    endloop
  endfacet
  facet normal 0 0 -1
    outer loop
      vertex 13.0365 28.0734 -2
      vertex -12.6183 28.2865 -2
      vertex -12.2865 28.6183 -2
    endloop
  endfacet
  facet normal 0 0 -1
    outer loop
      vertex -13.0365 28.0734 -2
      vertex 13.0365 28.0734 -2
      vertex -13.0056 -27.9783 -2
    endloop
  endfacet
  facet normal 0 0 -1
    outer loop
      vertex 13.0365 28.0734 -2
      vertex -13.0365 28.0734 -2
      vertex -12.6183 28.2865 -2
    endloop
  endfacet
  facet normal 0 0 -1
    outer loop
      vertex -13.5 -27.9 -2
      vertex -13.0365 28.0734 -2
      vertex -13.0056 -27.9783 -2
    endloop
  endfacet
  facet normal 0 0 -1
    outer loop
      vertex -13.5 -27.9 -2
      vertex -13.5 28 -2
      vertex -13.0365 28.0734 -2
    endloop
  endfacet
  facet normal 0 0 -1
    outer loop
      vertex -13.5 -27.9 -2
      vertex -13.9635 28.0734 -2
      vertex -13.5 28 -2
    endloop
  endfacet
  facet normal 0 0 -1
    outer loop
      vertex -13.9944 -27.9783 -2
      vertex -13.9635 28.0734 -2
      vertex -13.5 -27.9 -2
    endloop
  endfacet
  facet normal 0 0 -1
    outer loop
      vertex -13.9944 -27.9783 -2
      vertex -14.3817 28.2865 -2
      vertex -13.9635 28.0734 -2
    endloop
  endfacet
  facet normal 0 0 -1
    outer loop
      vertex -14.4405 -28.2056 -2
      vertex -14.3817 28.2865 -2
      vertex -13.9944 -27.9783 -2
    endloop
  endfacet
  facet normal 0 0 -1
    outer loop
      vertex -14.4405 -28.2056 -2
      vertex -14.7135 28.6183 -2
      vertex -14.3817 28.2865 -2
    endloop
  endfacet
  facet normal 0 0 -1
    outer loop
      vertex -14.7944 -28.5595 -2
      vertex -14.7135 28.6183 -2
      vertex -14.4405 -28.2056 -2
    endloop
  endfacet
  facet normal 0 0 -1
    outer loop
      vertex -14.7944 -28.5595 -2
      vertex -14.9266 29.0365 -2
      vertex -14.7135 28.6183 -2
    endloop
  endfacet
  facet normal 0 0 -1
    outer loop
      vertex -15.0217 -29.0056 -2
      vertex -14.9266 29.0365 -2
      vertex -14.7944 -28.5595 -2
    endloop
  endfacet
  facet normal 0 0 -1
    outer loop
      vertex -16.5 32.5 -2
      vertex -14.9266 29.0365 -2
      vertex -15.0217 -29.0056 -2
    endloop
  endfacet
  facet normal 0 0 -1
    outer loop
      vertex 16.5 32.5 -2
      vertex 14.9266 29.0365 -2
      vertex 15 29.5 -2
    endloop
  endfacet
  facet normal 0 0 -1
    outer loop
      vertex 14.7944 -28.5595 -2
      vertex 14.9266 29.0365 -2
      vertex 15.0217 -29.0056 -2
    endloop
  endfacet
  facet normal 0 0 -1
    outer loop
      vertex 14.7944 -28.5595 -2
      vertex 14.7135 28.6183 -2
      vertex 14.9266 29.0365 -2
    endloop
  endfacet
  facet normal 0 0 -1
    outer loop
      vertex 14.4405 -28.2056 -2
      vertex 14.7135 28.6183 -2
      vertex 14.7944 -28.5595 -2
    endloop
  endfacet
  facet normal 0 0 -1
    outer loop
      vertex 14.4405 -28.2056 -2
      vertex 14.3817 28.2865 -2
      vertex 14.7135 28.6183 -2
    endloop
  endfacet
  facet normal 0 0 -1
    outer loop
      vertex 13.9944 -27.9783 -2
      vertex 14.3817 28.2865 -2
      vertex 14.4405 -28.2056 -2
    endloop
  endfacet
  facet normal 0 0 -1
    outer loop
      vertex 13.9944 -27.9783 -2
      vertex 13.9635 28.0734 -2
      vertex 14.3817 28.2865 -2
    endloop
  endfacet
  facet normal 0 0 -1
    outer loop
      vertex 13.5 -27.9 -2
      vertex 13.9635 28.0734 -2
      vertex 13.9944 -27.9783 -2
    endloop
  endfacet
  facet normal 0 0 -1
    outer loop
      vertex 13.5 -27.9 -2
      vertex 13.5 28 -2
      vertex 13.9635 28.0734 -2
    endloop
  endfacet
  facet normal 0 0 -1
    outer loop
      vertex 13.5 -27.9 -2
      vertex 13.0365 28.0734 -2
      vertex 13.5 28 -2
    endloop
  endfacet
  facet normal 0 0 -1
    outer loop
      vertex 13.0056 -27.9783 -2
      vertex 13.0365 28.0734 -2
      vertex 13.5 -27.9 -2
    endloop
  endfacet
  facet normal 0 0 -1
    outer loop
      vertex -12.5595 -28.2056 -2
      vertex 12.5595 -28.2056 -2
      vertex -12.2056 -28.5595 -2
    endloop
  endfacet
  facet normal 0 0 -1
    outer loop
      vertex 12.2056 -28.5595 -2
      vertex -12.2056 -28.5595 -2
      vertex 12.5595 -28.2056 -2
    endloop
  endfacet
  facet normal 0 0 -1
    outer loop
      vertex 12.5595 -28.2056 -2
      vertex -12.5595 -28.2056 -2
      vertex 13.0056 -27.9783 -2
    endloop
  endfacet
  facet normal 0 0 -1
    outer loop
      vertex -12.2056 -28.5595 -2
      vertex 12.2056 -28.5595 -2
      vertex -11.9783 -29.0056 -2
    endloop
  endfacet
  facet normal 0 0 -1
    outer loop
      vertex 13.0365 28.0734 -2
      vertex -12.0734 29.0365 -2
      vertex 12.6183 28.2865 -2
    endloop
  endfacet
  facet normal 0 0 -1
    outer loop
      vertex -12.0734 29.0365 -2
      vertex 12.0734 29.0365 -2
      vertex 12.2865 28.6183 -2
    endloop
  endfacet
  facet normal 0 0 -1
    outer loop
      vertex -11.9783 -29.0056 -2
      vertex 12.2056 -28.5595 -2
      vertex 11.9783 -29.0056 -2
    endloop
  endfacet
  facet normal 0 0 -1
    outer loop
      vertex 15.0217 -29.0056 -2
      vertex 16.5 -32.5 -2
      vertex 15.1 -29.5 -2
    endloop
  endfacet
  facet normal 0 0 -1
    outer loop
      vertex 16.5 -32.5 -2
      vertex 15.0217 -29.9944 -2
      vertex 15.1 -29.5 -2
    endloop
  endfacet
  facet normal 0 0 -1
    outer loop
      vertex 16.5 -32.5 -2
      vertex 14.7944 -30.4405 -2
      vertex 15.0217 -29.9944 -2
    endloop
  endfacet
  facet normal 0 0 -1
    outer loop
      vertex 16.5 -32.5 -2
      vertex 14.4405 -30.7944 -2
      vertex 14.7944 -30.4405 -2
    endloop
  endfacet
  facet normal 0 0 -1
    outer loop
      vertex 16.5 -32.5 -2
      vertex 13.9944 -31.0217 -2
      vertex 14.4405 -30.7944 -2
    endloop
  endfacet
  facet normal 0 0 -1
    outer loop
      vertex 16.5 -32.5 -2
      vertex 13.5 -31.1 -2
      vertex 13.9944 -31.0217 -2
    endloop
  endfacet
  facet normal 0 0 -1
    outer loop
      vertex 16.5 -32.5 -2
      vertex 13.0056 -31.0217 -2
      vertex 13.5 -31.1 -2
    endloop
  endfacet
  facet normal 0 0 -1
    outer loop
      vertex 11.9783 -29.9944 -2
      vertex -11.9 -29.5 -2
      vertex 11.9 -29.5 -2
    endloop
  endfacet
  facet normal 0 0 -1
    outer loop
      vertex -11.9783 -29.9944 -2
      vertex 11.9783 -29.9944 -2
      vertex 12.2056 -30.4405 -2
    endloop
  endfacet
  facet normal 0 0 -1
    outer loop
      vertex -12.2056 -30.4405 -2
      vertex 12.2056 -30.4405 -2
      vertex 12.5595 -30.7944 -2
    endloop
  endfacet
  facet normal 0 0 -1
    outer loop
      vertex -12.5595 -30.7944 -2
      vertex 12.5595 -30.7944 -2
      vertex 13.0056 -31.0217 -2
    endloop
  endfacet
  facet normal 0 0 -1
    outer loop
      vertex -13.0056 -31.0217 -2
      vertex 13.0056 -31.0217 -2
      vertex 16.5 -32.5 -2
    endloop
  endfacet
  facet normal 0 0 -1
    outer loop
      vertex 11.9783 -29.9944 -2
      vertex -11.9783 -29.9944 -2
      vertex -11.9 -29.5 -2
    endloop
  endfacet
  facet normal 0 0 -1
    outer loop
      vertex 12.2056 -30.4405 -2
      vertex -12.2056 -30.4405 -2
      vertex -11.9783 -29.9944 -2
    endloop
  endfacet
  facet normal 0 0 -1
    outer loop
      vertex 12.5595 -30.7944 -2
      vertex -12.5595 -30.7944 -2
      vertex -12.2056 -30.4405 -2
    endloop
  endfacet
  facet normal 0 0 -1
    outer loop
      vertex 13.0056 -31.0217 -2
      vertex -13.0056 -31.0217 -2
      vertex -12.5595 -30.7944 -2
    endloop
  endfacet
  facet normal 0 0 -1
    outer loop
      vertex -16.5 -32.5 -2
      vertex -13.0056 -31.0217 -2
      vertex 16.5 -32.5 -2
    endloop
  endfacet
  facet normal -0 0 -1
    outer loop
      vertex -15.0217 -29.9944 -2
      vertex -16.5 -32.5 -2
      vertex -15.1 -29.5 -2
    endloop
  endfacet
  facet normal -0 0 -1
    outer loop
      vertex -14.7944 -30.4405 -2
      vertex -16.5 -32.5 -2
      vertex -15.0217 -29.9944 -2
    endloop
  endfacet
  facet normal -0 0 -1
    outer loop
      vertex -14.4405 -30.7944 -2
      vertex -16.5 -32.5 -2
      vertex -14.7944 -30.4405 -2
    endloop
  endfacet
  facet normal -0 0 -1
    outer loop
      vertex -13.9944 -31.0217 -2
      vertex -16.5 -32.5 -2
      vertex -14.4405 -30.7944 -2
    endloop
  endfacet
  facet normal -0 0 -1
    outer loop
      vertex -13.5 -31.1 -2
      vertex -16.5 -32.5 -2
      vertex -13.9944 -31.0217 -2
    endloop
  endfacet
  facet normal 0 0 -1
    outer loop
      vertex -13.0056 -31.0217 -2
      vertex -16.5 -32.5 -2
      vertex -13.5 -31.1 -2
    endloop
  endfacet
  facet normal 0 0 -1
    outer loop
      vertex 16.5 -32.5 -2
      vertex 15.0217 -29.0056 -2
      vertex 16.5 32.5 -2
    endloop
  endfacet
  facet normal 0 0 -1
    outer loop
      vertex 14.9266 29.0365 -2
      vertex 16.5 32.5 -2
      vertex 15.0217 -29.0056 -2
    endloop
  endfacet
  facet normal 0 0 -1
    outer loop
      vertex 14.9266 29.9635 -2
      vertex 16.5 32.5 -2
      vertex 15 29.5 -2
    endloop
  endfacet
  facet normal 0 0 -1
    outer loop
      vertex 14.7135 30.3817 -2
      vertex 16.5 32.5 -2
      vertex 14.9266 29.9635 -2
    endloop
  endfacet
  facet normal 0 0 -1
    outer loop
      vertex 14.3817 30.7135 -2
      vertex 16.5 32.5 -2
      vertex 14.7135 30.3817 -2
    endloop
  endfacet
  facet normal 0 0 -1
    outer loop
      vertex 13.9635 30.9266 -2
      vertex 16.5 32.5 -2
      vertex 14.3817 30.7135 -2
    endloop
  endfacet
  facet normal 0 0 -1
    outer loop
      vertex 13.5 31 -2
      vertex 16.5 32.5 -2
      vertex 13.9635 30.9266 -2
    endloop
  endfacet
  facet normal 0 0 -1
    outer loop
      vertex 13.0365 30.9266 -2
      vertex 16.5 32.5 -2
      vertex 13.5 31 -2
    endloop
  endfacet
  facet normal 0 0 -1
    outer loop
      vertex -11.9783 -29.0056 -2
      vertex 11.9783 -29.0056 -2
      vertex 11.9 -29.5 -2
    endloop
  endfacet
  facet normal 0 0 -1
    outer loop
      vertex -11.9783 -29.0056 -2
      vertex 11.9 -29.5 -2
      vertex -11.9 -29.5 -2
    endloop
  endfacet
  facet normal 0 0 -1
    outer loop
      vertex -12.0734 29.0365 -2
      vertex 12.2865 28.6183 -2
      vertex 12.6183 28.2865 -2
    endloop
  endfacet
  facet normal 0 0 -1
    outer loop
      vertex 12.0734 29.0365 -2
      vertex -12 29.5 -2
      vertex 12 29.5 -2
    endloop
  endfacet
  facet normal 0 0 -1
    outer loop
      vertex 12 29.5 -2
      vertex -12 29.5 -2
      vertex 12.0734 29.9635 -2
    endloop
  endfacet
  facet normal 0 0 -1
    outer loop
      vertex -12.0734 29.9635 -2
      vertex 12.0734 29.9635 -2
      vertex -12 29.5 -2
    endloop
  endfacet
  facet normal 0 0 -1
    outer loop
      vertex 12.0734 29.9635 -2
      vertex -12.0734 29.9635 -2
      vertex 12.2865 30.3817 -2
    endloop
  endfacet
  facet normal 0 0 -1
    outer loop
      vertex -12.2865 30.3817 -2
      vertex 12.2865 30.3817 -2
      vertex -12.0734 29.9635 -2
    endloop
  endfacet
  facet normal 0 0 -1
    outer loop
      vertex 12.2865 30.3817 -2
      vertex -12.2865 30.3817 -2
      vertex 12.6183 30.7135 -2
    endloop
  endfacet
  facet normal 0 0 -1
    outer loop
      vertex -12.6183 30.7135 -2
      vertex 12.6183 30.7135 -2
      vertex -12.2865 30.3817 -2
    endloop
  endfacet
  facet normal 0 0 -1
    outer loop
      vertex 12.6183 30.7135 -2
      vertex -12.6183 30.7135 -2
      vertex 13.0365 30.9266 -2
    endloop
  endfacet
  facet normal 0 0 -1
    outer loop
      vertex -13.0365 30.9266 -2
      vertex 13.0365 30.9266 -2
      vertex -12.6183 30.7135 -2
    endloop
  endfacet
  facet normal 0 0 -1
    outer loop
      vertex 13.0365 30.9266 -2
      vertex -13.0365 30.9266 -2
      vertex 16.5 32.5 -2
    endloop
  endfacet
  facet normal 0 0 -1
    outer loop
      vertex -16.5 32.5 -2
      vertex -13.0365 30.9266 -2
      vertex -13.5 31 -2
    endloop
  endfacet
  facet normal 0 0 -1
    outer loop
      vertex -16.5 -32.5 -2
      vertex -15.0217 -29.0056 -2
      vertex -15.1 -29.5 -2
    endloop
  endfacet
  facet normal -0 0 -1
    outer loop
      vertex -15.0217 -29.0056 -2
      vertex -16.5 -32.5 -2
      vertex -16.5 32.5 -2
    endloop
  endfacet
  facet normal 0 0 -1
    outer loop
      vertex -13.0365 30.9266 -2
      vertex -16.5 32.5 -2
      vertex 16.5 32.5 -2
    endloop
  endfacet
  facet normal 0 0 -1
    outer loop
      vertex -13.9635 30.9266 -2
      vertex -16.5 32.5 -2
      vertex -13.5 31 -2
    endloop
  endfacet
  facet normal 0 0 -1
    outer loop
      vertex -14.3817 30.7135 -2
      vertex -16.5 32.5 -2
      vertex -13.9635 30.9266 -2
    endloop
  endfacet
  facet normal 0 0 -1
    outer loop
      vertex -14.7135 30.3817 -2
      vertex -16.5 32.5 -2
      vertex -14.3817 30.7135 -2
    endloop
  endfacet
  facet normal 0 0 -1
    outer loop
      vertex -14.9266 29.9635 -2
      vertex -16.5 32.5 -2
      vertex -14.7135 30.3817 -2
    endloop
  endfacet
  facet normal 0 0 -1
    outer loop
      vertex -15 29.5 -2
      vertex -16.5 32.5 -2
      vertex -14.9266 29.9635 -2
    endloop
  endfacet
  facet normal 0 0 -1
    outer loop
      vertex -14.9266 29.0365 -2
      vertex -16.5 32.5 -2
      vertex -15 29.5 -2
    endloop
  endfacet
  facet normal -1 0 0
    outer loop
      vertex -16.5 -32.5 -2
      vertex -16.5 32.5 0
      vertex -16.5 32.5 -2
    endloop
  endfacet
  facet normal -1 -0 0
    outer loop
      vertex -16.5 32.5 0
      vertex -16.5 -32.5 -2
      vertex -16.5 -32.5 0
    endloop
  endfacet
  facet normal 0 1 -0
    outer loop
      vertex 16.5 32.5 -2
      vertex -16.5 32.5 0
      vertex 16.5 32.5 0
    endloop
  endfacet
  facet normal 0 1 0
    outer loop
      vertex -16.5 32.5 0
      vertex 16.5 32.5 -2
      vertex -16.5 32.5 -2
    endloop
  endfacet
  facet normal 0 -1 0
    outer loop
      vertex -16.5 -32.5 -2
      vertex 16.5 -32.5 0
      vertex -16.5 -32.5 0
    endloop
  endfacet
  facet normal 0 -1 -0
    outer loop
      vertex 16.5 -32.5 0
      vertex -16.5 -32.5 -2
      vertex 16.5 -32.5 -2
    endloop
  endfacet
  facet normal -0.890992 -0.454018 0
    outer loop
      vertex 14.9266 29.9635 -2
      vertex 14.7135 30.3817 0
      vertex 14.7135 30.3817 -2
    endloop
  endfacet
  facet normal -0.890992 -0.454018 0
    outer loop
      vertex 14.7135 30.3817 0
      vertex 14.9266 29.9635 -2
      vertex 14.9266 29.9635 0
    endloop
  endfacet
  facet normal -0.987692 -0.156411 0
    outer loop
      vertex 15 29.5 -2
      vertex 14.9266 29.9635 0
      vertex 14.9266 29.9635 -2
    endloop
  endfacet
  facet normal -0.987692 -0.156411 0
    outer loop
      vertex 14.9266 29.9635 0
      vertex 15 29.5 -2
      vertex 15 29.5 0
    endloop
  endfacet
  facet normal -0.707107 -0.707107 0
    outer loop
      vertex 14.3817 30.7135 -2
      vertex 14.7135 30.3817 0
      vertex 14.3817 30.7135 0
    endloop
  endfacet
  facet normal -0.707107 -0.707107 -0
    outer loop
      vertex 14.7135 30.3817 0
      vertex 14.3817 30.7135 -2
      vertex 14.7135 30.3817 -2
    endloop
  endfacet
  facet normal 0.156411 -0.987692 0
    outer loop
      vertex 13.0365 30.9266 -2
      vertex 13.5 31 0
      vertex 13.0365 30.9266 0
    endloop
  endfacet
  facet normal 0.156411 -0.987692 0
    outer loop
      vertex 13.5 31 0
      vertex 13.0365 30.9266 -2
      vertex 13.5 31 -2
    endloop
  endfacet
  facet normal 0.707107 -0.707107 0
    outer loop
      vertex 12.2865 30.3817 -2
      vertex 12.6183 30.7135 0
      vertex 12.2865 30.3817 0
    endloop
  endfacet
  facet normal 0.707107 -0.707107 0
    outer loop
      vertex 12.6183 30.7135 0
      vertex 12.2865 30.3817 -2
      vertex 12.6183 30.7135 -2
    endloop
  endfacet
  facet normal -0.454018 -0.890992 0
    outer loop
      vertex 13.9635 30.9266 -2
      vertex 14.3817 30.7135 0
      vertex 13.9635 30.9266 0
    endloop
  endfacet
  facet normal -0.454018 -0.890992 -0
    outer loop
      vertex 14.3817 30.7135 0
      vertex 13.9635 30.9266 -2
      vertex 14.3817 30.7135 -2
    endloop
  endfacet
  facet normal -0.890992 0.454018 0
    outer loop
      vertex 14.7135 28.6183 -2
      vertex 14.9266 29.0365 0
      vertex 14.9266 29.0365 -2
    endloop
  endfacet
  facet normal -0.890992 0.454018 0
    outer loop
      vertex 14.9266 29.0365 0
      vertex 14.7135 28.6183 -2
      vertex 14.7135 28.6183 0
    endloop
  endfacet
  facet normal -0.156411 -0.987692 0
    outer loop
      vertex 13.5 31 -2
      vertex 13.9635 30.9266 0
      vertex 13.5 31 0
    endloop
  endfacet
  facet normal -0.156411 -0.987692 -0
    outer loop
      vertex 13.9635 30.9266 0
      vertex 13.5 31 -2
      vertex 13.9635 30.9266 -2
    endloop
  endfacet
  facet normal 0.454018 0.890992 -0
    outer loop
      vertex 13.0365 28.0734 -2
      vertex 12.6183 28.2865 0
      vertex 13.0365 28.0734 0
    endloop
  endfacet
  facet normal 0.454018 0.890992 0
    outer loop
      vertex 12.6183 28.2865 0
      vertex 13.0365 28.0734 -2
      vertex 12.6183 28.2865 -2
    endloop
  endfacet
  facet normal -0.454018 0.890992 0
    outer loop
      vertex 14.3817 28.2865 -2
      vertex 13.9635 28.0734 0
      vertex 14.3817 28.2865 0
    endloop
  endfacet
  facet normal -0.454018 0.890992 0
    outer loop
      vertex 13.9635 28.0734 0
      vertex 14.3817 28.2865 -2
      vertex 13.9635 28.0734 -2
    endloop
  endfacet
  facet normal -0.987692 0.156411 0
    outer loop
      vertex 14.9266 29.0365 -2
      vertex 15 29.5 0
      vertex 15 29.5 -2
    endloop
  endfacet
  facet normal -0.987692 0.156411 0
    outer loop
      vertex 15 29.5 0
      vertex 14.9266 29.0365 -2
      vertex 14.9266 29.0365 0
    endloop
  endfacet
  facet normal -0.707107 0.707107 0
    outer loop
      vertex 14.7135 28.6183 -2
      vertex 14.3817 28.2865 0
      vertex 14.7135 28.6183 0
    endloop
  endfacet
  facet normal -0.707107 0.707107 0
    outer loop
      vertex 14.3817 28.2865 0
      vertex 14.7135 28.6183 -2
      vertex 14.3817 28.2865 -2
    endloop
  endfacet
  facet normal 0.890992 0.454018 0
    outer loop
      vertex 12.2865 28.6183 0
      vertex 12.0734 29.0365 -2
      vertex 12.0734 29.0365 0
    endloop
  endfacet
  facet normal 0.890992 0.454018 0
    outer loop
      vertex 12.0734 29.0365 -2
      vertex 12.2865 28.6183 0
      vertex 12.2865 28.6183 -2
    endloop
  endfacet
  facet normal 0.454018 -0.890992 0
    outer loop
      vertex 12.6183 30.7135 -2
      vertex 13.0365 30.9266 0
      vertex 12.6183 30.7135 0
    endloop
  endfacet
  facet normal 0.454018 -0.890992 0
    outer loop
      vertex 13.0365 30.9266 0
      vertex 12.6183 30.7135 -2
      vertex 13.0365 30.9266 -2
    endloop
  endfacet
  facet normal 0.890992 -0.454018 0
    outer loop
      vertex 12.0734 29.9635 0
      vertex 12.2865 30.3817 -2
      vertex 12.2865 30.3817 0
    endloop
  endfacet
  facet normal 0.890992 -0.454018 0
    outer loop
      vertex 12.2865 30.3817 -2
      vertex 12.0734 29.9635 0
      vertex 12.0734 29.9635 -2
    endloop
  endfacet
  facet normal 0.156411 0.987692 -0
    outer loop
      vertex 13.5 28 -2
      vertex 13.0365 28.0734 0
      vertex 13.5 28 0
    endloop
  endfacet
  facet normal 0.156411 0.987692 0
    outer loop
      vertex 13.0365 28.0734 0
      vertex 13.5 28 -2
      vertex 13.0365 28.0734 -2
    endloop
  endfacet
  facet normal 0.987692 0.156411 0
    outer loop
      vertex 12.0734 29.0365 0
      vertex 12 29.5 -2
      vertex 12 29.5 0
    endloop
  endfacet
  facet normal 0.987692 0.156411 0
    outer loop
      vertex 12 29.5 -2
      vertex 12.0734 29.0365 0
      vertex 12.0734 29.0365 -2
    endloop
  endfacet
  facet normal 0.987692 -0.156411 0
    outer loop
      vertex 12 29.5 0
      vertex 12.0734 29.9635 -2
      vertex 12.0734 29.9635 0
    endloop
  endfacet
  facet normal 0.987692 -0.156411 0
    outer loop
      vertex 12.0734 29.9635 -2
      vertex 12 29.5 0
      vertex 12 29.5 -2
    endloop
  endfacet
  facet normal 0.707107 0.707107 -0
    outer loop
      vertex 12.6183 28.2865 -2
      vertex 12.2865 28.6183 0
      vertex 12.6183 28.2865 0
    endloop
  endfacet
  facet normal 0.707107 0.707107 0
    outer loop
      vertex 12.2865 28.6183 0
      vertex 12.6183 28.2865 -2
      vertex 12.2865 28.6183 -2
    endloop
  endfacet
  facet normal -0.156411 0.987692 0
    outer loop
      vertex 13.9635 28.0734 -2
      vertex 13.5 28 0
      vertex 13.9635 28.0734 0
    endloop
  endfacet
  facet normal -0.156411 0.987692 0
    outer loop
      vertex 13.5 28 0
      vertex 13.9635 28.0734 -2
      vertex 13.5 28 -2
    endloop
  endfacet
  facet normal -0.454018 0.890992 0
    outer loop
      vertex -12.6183 28.2865 -2
      vertex -13.0365 28.0734 0
      vertex -12.6183 28.2865 0
    endloop
  endfacet
  facet normal -0.454018 0.890992 0
    outer loop
      vertex -13.0365 28.0734 0
      vertex -12.6183 28.2865 -2
      vertex -13.0365 28.0734 -2
    endloop
  endfacet
  facet normal 0.156411 -0.987692 0
    outer loop
      vertex -13.9635 30.9266 -2
      vertex -13.5 31 0
      vertex -13.9635 30.9266 0
    endloop
  endfacet
  facet normal 0.156411 -0.987692 0
    outer loop
      vertex -13.5 31 0
      vertex -13.9635 30.9266 -2
      vertex -13.5 31 -2
    endloop
  endfacet
  facet normal 0.890992 0.454018 0
    outer loop
      vertex -14.7135 28.6183 0
      vertex -14.9266 29.0365 -2
      vertex -14.9266 29.0365 0
    endloop
  endfacet
  facet normal 0.890992 0.454018 0
    outer loop
      vertex -14.9266 29.0365 -2
      vertex -14.7135 28.6183 0
      vertex -14.7135 28.6183 -2
    endloop
  endfacet
  facet normal 0.707107 -0.707107 0
    outer loop
      vertex -14.7135 30.3817 -2
      vertex -14.3817 30.7135 0
      vertex -14.7135 30.3817 0
    endloop
  endfacet
  facet normal 0.707107 -0.707107 0
    outer loop
      vertex -14.3817 30.7135 0
      vertex -14.7135 30.3817 -2
      vertex -14.3817 30.7135 -2
    endloop
  endfacet
  facet normal -0.987692 0.156411 0
    outer loop
      vertex -12.0734 29.0365 -2
      vertex -12 29.5 0
      vertex -12 29.5 -2
    endloop
  endfacet
  facet normal -0.987692 0.156411 0
    outer loop
      vertex -12 29.5 0
      vertex -12.0734 29.0365 -2
      vertex -12.0734 29.0365 0
    endloop
  endfacet
  facet normal 0.987692 0.156411 0
    outer loop
      vertex -14.9266 29.0365 0
      vertex -15 29.5 -2
      vertex -15 29.5 0
    endloop
  endfacet
  facet normal 0.987692 0.156411 0
    outer loop
      vertex -15 29.5 -2
      vertex -14.9266 29.0365 0
      vertex -14.9266 29.0365 -2
    endloop
  endfacet
  facet normal -0.987692 -0.156411 0
    outer loop
      vertex -12 29.5 -2
      vertex -12.0734 29.9635 0
      vertex -12.0734 29.9635 -2
    endloop
  endfacet
  facet normal -0.987692 -0.156411 0
    outer loop
      vertex -12.0734 29.9635 0
      vertex -12 29.5 -2
      vertex -12 29.5 0
    endloop
  endfacet
  facet normal -0.890992 -0.454018 0
    outer loop
      vertex -12.0734 29.9635 -2
      vertex -12.2865 30.3817 0
      vertex -12.2865 30.3817 -2
    endloop
  endfacet
  facet normal -0.890992 -0.454018 0
    outer loop
      vertex -12.2865 30.3817 0
      vertex -12.0734 29.9635 -2
      vertex -12.0734 29.9635 0
    endloop
  endfacet
  facet normal -0.707107 0.707107 0
    outer loop
      vertex -12.2865 28.6183 -2
      vertex -12.6183 28.2865 0
      vertex -12.2865 28.6183 0
    endloop
  endfacet
  facet normal -0.707107 0.707107 0
    outer loop
      vertex -12.6183 28.2865 0
      vertex -12.2865 28.6183 -2
      vertex -12.6183 28.2865 -2
    endloop
  endfacet
  facet normal 0.987692 -0.156411 0
    outer loop
      vertex -15 29.5 0
      vertex -14.9266 29.9635 -2
      vertex -14.9266 29.9635 0
    endloop
  endfacet
  facet normal 0.987692 -0.156411 0
    outer loop
      vertex -14.9266 29.9635 -2
      vertex -15 29.5 0
      vertex -15 29.5 -2
    endloop
  endfacet
  facet normal -0.707107 -0.707107 0
    outer loop
      vertex -12.6183 30.7135 -2
      vertex -12.2865 30.3817 0
      vertex -12.6183 30.7135 0
    endloop
  endfacet
  facet normal -0.707107 -0.707107 -0
    outer loop
      vertex -12.2865 30.3817 0
      vertex -12.6183 30.7135 -2
      vertex -12.2865 30.3817 -2
    endloop
  endfacet
  facet normal 0.156411 0.987692 -0
    outer loop
      vertex -13.5 28 -2
      vertex -13.9635 28.0734 0
      vertex -13.5 28 0
    endloop
  endfacet
  facet normal 0.156411 0.987692 0
    outer loop
      vertex -13.9635 28.0734 0
      vertex -13.5 28 -2
      vertex -13.9635 28.0734 -2
    endloop
  endfacet
  facet normal -0.156411 -0.987692 0
    outer loop
      vertex -13.5 31 -2
      vertex -13.0365 30.9266 0
      vertex -13.5 31 0
    endloop
  endfacet
  facet normal -0.156411 -0.987692 -0
    outer loop
      vertex -13.0365 30.9266 0
      vertex -13.5 31 -2
      vertex -13.0365 30.9266 -2
    endloop
  endfacet
  facet normal 0.707107 0.707107 -0
    outer loop
      vertex -14.3817 28.2865 -2
      vertex -14.7135 28.6183 0
      vertex -14.3817 28.2865 0
    endloop
  endfacet
  facet normal 0.707107 0.707107 0
    outer loop
      vertex -14.7135 28.6183 0
      vertex -14.3817 28.2865 -2
      vertex -14.7135 28.6183 -2
    endloop
  endfacet
  facet normal 0.454018 -0.890992 0
    outer loop
      vertex -14.3817 30.7135 -2
      vertex -13.9635 30.9266 0
      vertex -14.3817 30.7135 0
    endloop
  endfacet
  facet normal 0.454018 -0.890992 0
    outer loop
      vertex -13.9635 30.9266 0
      vertex -14.3817 30.7135 -2
      vertex -13.9635 30.9266 -2
    endloop
  endfacet
  facet normal 0.454018 0.890992 -0
    outer loop
      vertex -13.9635 28.0734 -2
      vertex -14.3817 28.2865 0
      vertex -13.9635 28.0734 0
    endloop
  endfacet
  facet normal 0.454018 0.890992 0
    outer loop
      vertex -14.3817 28.2865 0
      vertex -13.9635 28.0734 -2
      vertex -14.3817 28.2865 -2
    endloop
  endfacet
  facet normal -0.454018 -0.890992 0
    outer loop
      vertex -13.0365 30.9266 -2
      vertex -12.6183 30.7135 0
      vertex -13.0365 30.9266 0
    endloop
  endfacet
  facet normal -0.454018 -0.890992 -0
    outer loop
      vertex -12.6183 30.7135 0
      vertex -13.0365 30.9266 -2
      vertex -12.6183 30.7135 -2
    endloop
  endfacet
  facet normal 0.890992 -0.454018 0
    outer loop
      vertex -14.9266 29.9635 0
      vertex -14.7135 30.3817 -2
      vertex -14.7135 30.3817 0
    endloop
  endfacet
  facet normal 0.890992 -0.454018 0
    outer loop
      vertex -14.7135 30.3817 -2
      vertex -14.9266 29.9635 0
      vertex -14.9266 29.9635 -2
    endloop
  endfacet
  facet normal -0.156411 0.987692 0
    outer loop
      vertex -13.0365 28.0734 -2
      vertex -13.5 28 0
      vertex -13.0365 28.0734 0
    endloop
  endfacet
  facet normal -0.156411 0.987692 0
    outer loop
      vertex -13.5 28 0
      vertex -13.0365 28.0734 -2
      vertex -13.5 28 -2
    endloop
  endfacet
  facet normal -0.890992 0.454018 0
    outer loop
      vertex -12.2865 28.6183 -2
      vertex -12.0734 29.0365 0
      vertex -12.0734 29.0365 -2
    endloop
  endfacet
  facet normal -0.890992 0.454018 0
    outer loop
      vertex -12.0734 29.0365 0
      vertex -12.2865 28.6183 -2
      vertex -12.2865 28.6183 0
    endloop
  endfacet
  facet normal -0.891006 -0.453992 0
    outer loop
      vertex -11.9783 -29.0056 -2
      vertex -12.2056 -28.5595 0
      vertex -12.2056 -28.5595 -2
    endloop
  endfacet
  facet normal -0.891006 -0.453992 0
    outer loop
      vertex -12.2056 -28.5595 0
      vertex -11.9783 -29.0056 -2
      vertex -11.9783 -29.0056 0
    endloop
  endfacet
  facet normal -0.98769 -0.156424 0
    outer loop
      vertex -11.9 -29.5 -2
      vertex -11.9783 -29.0056 0
      vertex -11.9783 -29.0056 -2
    endloop
  endfacet
  facet normal -0.98769 -0.156424 0
    outer loop
      vertex -11.9783 -29.0056 0
      vertex -11.9 -29.5 -2
      vertex -11.9 -29.5 0
    endloop
  endfacet
  facet normal -0.707107 -0.707107 0
    outer loop
      vertex -12.2056 -28.5595 -2
      vertex -12.5595 -28.2056 0
      vertex -12.5595 -28.2056 -2
    endloop
  endfacet
  facet normal -0.707107 -0.707107 0
    outer loop
      vertex -12.5595 -28.2056 0
      vertex -12.2056 -28.5595 -2
      vertex -12.2056 -28.5595 0
    endloop
  endfacet
  facet normal 0.707107 0.707107 -0
    outer loop
      vertex -14.4405 -30.7944 -2
      vertex -14.7944 -30.4405 0
      vertex -14.4405 -30.7944 0
    endloop
  endfacet
  facet normal 0.707107 0.707107 0
    outer loop
      vertex -14.7944 -30.4405 0
      vertex -14.4405 -30.7944 -2
      vertex -14.7944 -30.4405 -2
    endloop
  endfacet
  facet normal -0.707107 0.707107 0
    outer loop
      vertex -12.2056 -30.4405 -2
      vertex -12.5595 -30.7944 0
      vertex -12.2056 -30.4405 0
    endloop
  endfacet
  facet normal -0.707107 0.707107 0
    outer loop
      vertex -12.5595 -30.7944 0
      vertex -12.2056 -30.4405 -2
      vertex -12.5595 -30.7944 -2
    endloop
  endfacet
  facet normal -0.453992 0.891006 0
    outer loop
      vertex -12.5595 -30.7944 -2
      vertex -13.0056 -31.0217 0
      vertex -12.5595 -30.7944 0
    endloop
  endfacet
  facet normal -0.453992 0.891006 0
    outer loop
      vertex -13.0056 -31.0217 0
      vertex -12.5595 -30.7944 -2
      vertex -13.0056 -31.0217 -2
    endloop
  endfacet
  facet normal 0.453992 0.891006 -0
    outer loop
      vertex -13.9944 -31.0217 -2
      vertex -14.4405 -30.7944 0
      vertex -13.9944 -31.0217 0
    endloop
  endfacet
  facet normal 0.453992 0.891006 0
    outer loop
      vertex -14.4405 -30.7944 0
      vertex -13.9944 -31.0217 -2
      vertex -14.4405 -30.7944 -2
    endloop
  endfacet
  facet normal 0.98769 -0.156424 0
    outer loop
      vertex -15.1 -29.5 0
      vertex -15.0217 -29.0056 -2
      vertex -15.0217 -29.0056 0
    endloop
  endfacet
  facet normal 0.98769 -0.156424 0
    outer loop
      vertex -15.0217 -29.0056 -2
      vertex -15.1 -29.5 0
      vertex -15.1 -29.5 -2
    endloop
  endfacet
  facet normal 0.707107 -0.707107 0
    outer loop
      vertex -14.7944 -28.5595 0
      vertex -14.4405 -28.2056 -2
      vertex -14.4405 -28.2056 0
    endloop
  endfacet
  facet normal 0.707107 -0.707107 0
    outer loop
      vertex -14.4405 -28.2056 -2
      vertex -14.7944 -28.5595 0
      vertex -14.7944 -28.5595 -2
    endloop
  endfacet
  facet normal 0.156424 0.98769 -0
    outer loop
      vertex -13.5 -31.1 -2
      vertex -13.9944 -31.0217 0
      vertex -13.5 -31.1 0
    endloop
  endfacet
  facet normal 0.156424 0.98769 0
    outer loop
      vertex -13.9944 -31.0217 0
      vertex -13.5 -31.1 -2
      vertex -13.9944 -31.0217 -2
    endloop
  endfacet
  facet normal 0.891006 -0.453992 0
    outer loop
      vertex -15.0217 -29.0056 0
      vertex -14.7944 -28.5595 -2
      vertex -14.7944 -28.5595 0
    endloop
  endfacet
  facet normal 0.891006 -0.453992 0
    outer loop
      vertex -14.7944 -28.5595 -2
      vertex -15.0217 -29.0056 0
      vertex -15.0217 -29.0056 -2
    endloop
  endfacet
  facet normal 0.891006 0.453992 0
    outer loop
      vertex -14.7944 -30.4405 0
      vertex -15.0217 -29.9944 -2
      vertex -15.0217 -29.9944 0
    endloop
  endfacet
  facet normal 0.891006 0.453992 0
    outer loop
      vertex -15.0217 -29.9944 -2
      vertex -14.7944 -30.4405 0
      vertex -14.7944 -30.4405 -2
    endloop
  endfacet
  facet normal -0.453992 -0.891006 0
    outer loop
      vertex -13.0056 -27.9783 -2
      vertex -12.5595 -28.2056 0
      vertex -13.0056 -27.9783 0
    endloop
  endfacet
  facet normal -0.453992 -0.891006 -0
    outer loop
      vertex -12.5595 -28.2056 0
      vertex -13.0056 -27.9783 -2
      vertex -12.5595 -28.2056 -2
    endloop
  endfacet
  facet normal -0.98769 0.156424 0
    outer loop
      vertex -11.9783 -29.9944 -2
      vertex -11.9 -29.5 0
      vertex -11.9 -29.5 -2
    endloop
  endfacet
  facet normal -0.98769 0.156424 0
    outer loop
      vertex -11.9 -29.5 0
      vertex -11.9783 -29.9944 -2
      vertex -11.9783 -29.9944 0
    endloop
  endfacet
  facet normal 0.156424 -0.98769 0
    outer loop
      vertex -13.9944 -27.9783 -2
      vertex -13.5 -27.9 0
      vertex -13.9944 -27.9783 0
    endloop
  endfacet
  facet normal 0.156424 -0.98769 0
    outer loop
      vertex -13.5 -27.9 0
      vertex -13.9944 -27.9783 -2
      vertex -13.5 -27.9 -2
    endloop
  endfacet
  facet normal -0.891006 0.453992 0
    outer loop
      vertex -12.2056 -30.4405 -2
      vertex -11.9783 -29.9944 0
      vertex -11.9783 -29.9944 -2
    endloop
  endfacet
  facet normal -0.891006 0.453992 0
    outer loop
      vertex -11.9783 -29.9944 0
      vertex -12.2056 -30.4405 -2
      vertex -12.2056 -30.4405 0
    endloop
  endfacet
  facet normal 0.453992 -0.891006 0
    outer loop
      vertex -14.4405 -28.2056 -2
      vertex -13.9944 -27.9783 0
      vertex -14.4405 -28.2056 0
    endloop
  endfacet
  facet normal 0.453992 -0.891006 0
    outer loop
      vertex -13.9944 -27.9783 0
      vertex -14.4405 -28.2056 -2
      vertex -13.9944 -27.9783 -2
    endloop
  endfacet
  facet normal -0.156424 -0.98769 0
    outer loop
      vertex -13.5 -27.9 -2
      vertex -13.0056 -27.9783 0
      vertex -13.5 -27.9 0
    endloop
  endfacet
  facet normal -0.156424 -0.98769 -0
    outer loop
      vertex -13.0056 -27.9783 0
      vertex -13.5 -27.9 -2
      vertex -13.0056 -27.9783 -2
    endloop
  endfacet
  facet normal 0.98769 0.156424 0
    outer loop
      vertex -15.0217 -29.9944 0
      vertex -15.1 -29.5 -2
      vertex -15.1 -29.5 0
    endloop
  endfacet
  facet normal 0.98769 0.156424 0
    outer loop
      vertex -15.1 -29.5 -2
      vertex -15.0217 -29.9944 0
      vertex -15.0217 -29.9944 -2
    endloop
  endfacet
  facet normal -0.156424 0.98769 0
    outer loop
      vertex -13.0056 -31.0217 -2
      vertex -13.5 -31.1 0
      vertex -13.0056 -31.0217 0
    endloop
  endfacet
  facet normal -0.156424 0.98769 0
    outer loop
      vertex -13.5 -31.1 0
      vertex -13.0056 -31.0217 -2
      vertex -13.5 -31.1 -2
    endloop
  endfacet
  facet normal 0.156424 0.98769 -0
    outer loop
      vertex 13.5 -31.1 -2
      vertex 13.0056 -31.0217 0
      vertex 13.5 -31.1 0
    endloop
  endfacet
  facet normal 0.156424 0.98769 0
    outer loop
      vertex 13.0056 -31.0217 0
      vertex 13.5 -31.1 -2
      vertex 13.0056 -31.0217 -2
    endloop
  endfacet
  facet normal 0.98769 0.156424 0
    outer loop
      vertex 11.9783 -29.9944 0
      vertex 11.9 -29.5 -2
      vertex 11.9 -29.5 0
    endloop
  endfacet
  facet normal 0.98769 0.156424 0
    outer loop
      vertex 11.9 -29.5 -2
      vertex 11.9783 -29.9944 0
      vertex 11.9783 -29.9944 -2
    endloop
  endfacet
  facet normal 0.891006 -0.453992 0
    outer loop
      vertex 11.9783 -29.0056 0
      vertex 12.2056 -28.5595 -2
      vertex 12.2056 -28.5595 0
    endloop
  endfacet
  facet normal 0.891006 -0.453992 0
    outer loop
      vertex 12.2056 -28.5595 -2
      vertex 11.9783 -29.0056 0
      vertex 11.9783 -29.0056 -2
    endloop
  endfacet
  facet normal -0.453992 0.891006 0
    outer loop
      vertex 14.4405 -30.7944 -2
      vertex 13.9944 -31.0217 0
      vertex 14.4405 -30.7944 0
    endloop
  endfacet
  facet normal -0.453992 0.891006 0
    outer loop
      vertex 13.9944 -31.0217 0
      vertex 14.4405 -30.7944 -2
      vertex 13.9944 -31.0217 -2
    endloop
  endfacet
  facet normal 0.453992 -0.891006 0
    outer loop
      vertex 12.5595 -28.2056 -2
      vertex 13.0056 -27.9783 0
      vertex 12.5595 -28.2056 0
    endloop
  endfacet
  facet normal 0.453992 -0.891006 0
    outer loop
      vertex 13.0056 -27.9783 0
      vertex 12.5595 -28.2056 -2
      vertex 13.0056 -27.9783 -2
    endloop
  endfacet
  facet normal 0.98769 -0.156424 0
    outer loop
      vertex 11.9 -29.5 0
      vertex 11.9783 -29.0056 -2
      vertex 11.9783 -29.0056 0
    endloop
  endfacet
  facet normal 0.98769 -0.156424 0
    outer loop
      vertex 11.9783 -29.0056 -2
      vertex 11.9 -29.5 0
      vertex 11.9 -29.5 -2
    endloop
  endfacet
  facet normal -0.98769 0.156424 0
    outer loop
      vertex 15.0217 -29.9944 -2
      vertex 15.1 -29.5 0
      vertex 15.1 -29.5 -2
    endloop
  endfacet
  facet normal -0.98769 0.156424 0
    outer loop
      vertex 15.1 -29.5 0
      vertex 15.0217 -29.9944 -2
      vertex 15.0217 -29.9944 0
    endloop
  endfacet
  facet normal 0.453992 0.891006 -0
    outer loop
      vertex 13.0056 -31.0217 -2
      vertex 12.5595 -30.7944 0
      vertex 13.0056 -31.0217 0
    endloop
  endfacet
  facet normal 0.453992 0.891006 0
    outer loop
      vertex 12.5595 -30.7944 0
      vertex 13.0056 -31.0217 -2
      vertex 12.5595 -30.7944 -2
    endloop
  endfacet
  facet normal -0.98769 -0.156424 0
    outer loop
      vertex 15.1 -29.5 -2
      vertex 15.0217 -29.0056 0
      vertex 15.0217 -29.0056 -2
    endloop
  endfacet
  facet normal -0.98769 -0.156424 0
    outer loop
      vertex 15.0217 -29.0056 0
      vertex 15.1 -29.5 -2
      vertex 15.1 -29.5 0
    endloop
  endfacet
  facet normal -0.891006 -0.453992 0
    outer loop
      vertex 15.0217 -29.0056 -2
      vertex 14.7944 -28.5595 0
      vertex 14.7944 -28.5595 -2
    endloop
  endfacet
  facet normal -0.891006 -0.453992 0
    outer loop
      vertex 14.7944 -28.5595 0
      vertex 15.0217 -29.0056 -2
      vertex 15.0217 -29.0056 0
    endloop
  endfacet
  facet normal 0.156424 -0.98769 0
    outer loop
      vertex 13.0056 -27.9783 -2
      vertex 13.5 -27.9 0
      vertex 13.0056 -27.9783 0
    endloop
  endfacet
  facet normal 0.156424 -0.98769 0
    outer loop
      vertex 13.5 -27.9 0
      vertex 13.0056 -27.9783 -2
      vertex 13.5 -27.9 -2
    endloop
  endfacet
  facet normal -0.707107 0.707107 0
    outer loop
      vertex 14.7944 -30.4405 -2
      vertex 14.4405 -30.7944 0
      vertex 14.7944 -30.4405 0
    endloop
  endfacet
  facet normal -0.707107 0.707107 0
    outer loop
      vertex 14.4405 -30.7944 0
      vertex 14.7944 -30.4405 -2
      vertex 14.4405 -30.7944 -2
    endloop
  endfacet
  facet normal -0.707107 -0.707107 0
    outer loop
      vertex 14.7944 -28.5595 -2
      vertex 14.4405 -28.2056 0
      vertex 14.4405 -28.2056 -2
    endloop
  endfacet
  facet normal -0.707107 -0.707107 0
    outer loop
      vertex 14.4405 -28.2056 0
      vertex 14.7944 -28.5595 -2
      vertex 14.7944 -28.5595 0
    endloop
  endfacet
  facet normal -0.156424 -0.98769 0
    outer loop
      vertex 13.5 -27.9 -2
      vertex 13.9944 -27.9783 0
      vertex 13.5 -27.9 0
    endloop
  endfacet
  facet normal -0.156424 -0.98769 -0
    outer loop
      vertex 13.9944 -27.9783 0
      vertex 13.5 -27.9 -2
      vertex 13.9944 -27.9783 -2
    endloop
  endfacet
  facet normal -0.453992 -0.891006 0
    outer loop
      vertex 13.9944 -27.9783 -2
      vertex 14.4405 -28.2056 0
      vertex 13.9944 -27.9783 0
    endloop
  endfacet
  facet normal -0.453992 -0.891006 -0
    outer loop
      vertex 14.4405 -28.2056 0
      vertex 13.9944 -27.9783 -2
      vertex 14.4405 -28.2056 -2
    endloop
  endfacet
  facet normal 0.707107 -0.707107 0
    outer loop
      vertex 12.2056 -28.5595 0
      vertex 12.5595 -28.2056 -2
      vertex 12.5595 -28.2056 0
    endloop
  endfacet
  facet normal 0.707107 -0.707107 0
    outer loop
      vertex 12.5595 -28.2056 -2
      vertex 12.2056 -28.5595 0
      vertex 12.2056 -28.5595 -2
    endloop
  endfacet
  facet normal -0.156424 0.98769 0
    outer loop
      vertex 13.9944 -31.0217 -2
      vertex 13.5 -31.1 0
      vertex 13.9944 -31.0217 0
    endloop
  endfacet
  facet normal -0.156424 0.98769 0
    outer loop
      vertex 13.5 -31.1 0
      vertex 13.9944 -31.0217 -2
      vertex 13.5 -31.1 -2
    endloop
  endfacet
  facet normal -0.891006 0.453992 0
    outer loop
      vertex 14.7944 -30.4405 -2
      vertex 15.0217 -29.9944 0
      vertex 15.0217 -29.9944 -2
    endloop
  endfacet
  facet normal -0.891006 0.453992 0
    outer loop
      vertex 15.0217 -29.9944 0
      vertex 14.7944 -30.4405 -2
      vertex 14.7944 -30.4405 0
    endloop
  endfacet
  facet normal 0.891006 0.453992 0
    outer loop
      vertex 12.2056 -30.4405 0
      vertex 11.9783 -29.9944 -2
      vertex 11.9783 -29.9944 0
    endloop
  endfacet
  facet normal 0.891006 0.453992 0
    outer loop
      vertex 11.9783 -29.9944 -2
      vertex 12.2056 -30.4405 0
      vertex 12.2056 -30.4405 -2
    endloop
  endfacet
  facet normal 0.707107 0.707107 -0
    outer loop
      vertex 12.5595 -30.7944 -2
      vertex 12.2056 -30.4405 0
      vertex 12.5595 -30.7944 0
    endloop
  endfacet
  facet normal 0.707107 0.707107 0
    outer loop
      vertex 12.2056 -30.4405 0
      vertex 12.5595 -30.7944 -2
      vertex 12.2056 -30.4405 -2
    endloop
  endfacet
endsolid OpenSCAD_Model
