solid OpenSCAD_Model
  facet normal -1 0 0
    outer loop
      vertex -2.7 -7.6 -0.79
      vertex -2.7 -4.6 0
      vertex -2.7 -4.6 -0.79
    endloop
  endfacet
  facet normal -1 -0 0
    outer loop
      vertex -2.7 -4.6 0
      vertex -2.7 -7.6 -0.79
      vertex -2.7 -7.6 0
    endloop
  endfacet
  facet normal -0 0 1
    outer loop
      vertex -5.7 -4.6 -0.79
      vertex -2.7 -7.6 -0.79
      vertex -2.7 -4.6 -0.79
    endloop
  endfacet
  facet normal 0 0 1
    outer loop
      vertex -2.7 -7.6 -0.79
      vertex -5.7 -4.6 -0.79
      vertex -5.7 -7.6 -0.79
    endloop
  endfacet
  facet normal 1 -0 0
    outer loop
      vertex -5.7 -7.6 0
      vertex -5.7 -4.6 -0.79
      vertex -5.7 -4.6 0
    endloop
  endfacet
  facet normal 1 0 0
    outer loop
      vertex -5.7 -4.6 -0.79
      vertex -5.7 -7.6 0
      vertex -5.7 -7.6 -0.79
    endloop
  endfacet
  facet normal 0 -1 0
    outer loop
      vertex -5.7 -4.6 -0.79
      vertex -2.7 -4.6 0
      vertex -5.7 -4.6 0
    endloop
  endfacet
  facet normal 0 -1 -0
    outer loop
      vertex -2.7 -4.6 0
      vertex -5.7 -4.6 -0.79
      vertex -2.7 -4.6 -0.79
    endloop
  endfacet
  facet normal 0 1 -0
    outer loop
      vertex -2.7 -7.6 -0.79
      vertex -5.7 -7.6 0
      vertex -2.7 -7.6 0
    endloop
  endfacet
  facet normal 0 1 0
    outer loop
      vertex -5.7 -7.6 0
      vertex -2.7 -7.6 -0.79
      vertex -5.7 -7.6 -0.79
    endloop
  endfacet
  facet normal -1 0 0
    outer loop
      vertex -2.7 -3.8 -0.79
      vertex -2.7 -0.800001 0
      vertex -2.7 -0.800001 -0.79
    endloop
  endfacet
  facet normal -1 -0 0
    outer loop
      vertex -2.7 -0.800001 0
      vertex -2.7 -3.8 -0.79
      vertex -2.7 -3.8 0
    endloop
  endfacet
  facet normal -0 0 1
    outer loop
      vertex -5.7 -0.800001 -0.79
      vertex -2.7 -3.8 -0.79
      vertex -2.7 -0.800001 -0.79
    endloop
  endfacet
  facet normal 0 0 1
    outer loop
      vertex -2.7 -3.8 -0.79
      vertex -5.7 -0.800001 -0.79
      vertex -5.7 -3.8 -0.79
    endloop
  endfacet
  facet normal 1 -0 0
    outer loop
      vertex -5.7 -3.8 0
      vertex -5.7 -0.800001 -0.79
      vertex -5.7 -0.800001 0
    endloop
  endfacet
  facet normal 1 0 0
    outer loop
      vertex -5.7 -0.800001 -0.79
      vertex -5.7 -3.8 0
      vertex -5.7 -3.8 -0.79
    endloop
  endfacet
  facet normal 0 -1 0
    outer loop
      vertex -5.7 -0.800001 -0.79
      vertex -2.7 -0.800001 0
      vertex -5.7 -0.800001 0
    endloop
  endfacet
  facet normal 0 -1 -0
    outer loop
      vertex -2.7 -0.800001 0
      vertex -5.7 -0.800001 -0.79
      vertex -2.7 -0.800001 -0.79
    endloop
  endfacet
  facet normal 0 1 -0
    outer loop
      vertex -2.7 -3.8 -0.79
      vertex -5.7 -3.8 0
      vertex -2.7 -3.8 0
    endloop
  endfacet
  facet normal 0 1 0
    outer loop
      vertex -5.7 -3.8 0
      vertex -2.7 -3.8 -0.79
      vertex -5.7 -3.8 -0.79
    endloop
  endfacet
  facet normal -1 0 0
    outer loop
      vertex -2.7 -5.72205e-07 -0.79
      vertex -2.7 3 0
      vertex -2.7 3 -0.79
    endloop
  endfacet
  facet normal -1 -0 0
    outer loop
      vertex -2.7 3 0
      vertex -2.7 -5.72205e-07 -0.79
      vertex -2.7 -5.72205e-07 0
    endloop
  endfacet
  facet normal -0 0 1
    outer loop
      vertex -5.7 3 -0.79
      vertex -2.7 -5.72205e-07 -0.79
      vertex -2.7 3 -0.79
    endloop
  endfacet
  facet normal 0 0 1
    outer loop
      vertex -2.7 -5.72205e-07 -0.79
      vertex -5.7 3 -0.79
      vertex -5.7 -5.72205e-07 -0.79
    endloop
  endfacet
  facet normal 1 -0 0
    outer loop
      vertex -5.7 -5.72205e-07 0
      vertex -5.7 3 -0.79
      vertex -5.7 3 0
    endloop
  endfacet
  facet normal 1 0 0
    outer loop
      vertex -5.7 3 -0.79
      vertex -5.7 -5.72205e-07 0
      vertex -5.7 -5.72205e-07 -0.79
    endloop
  endfacet
  facet normal 0 -1 0
    outer loop
      vertex -5.7 3 -0.79
      vertex -2.7 3 0
      vertex -5.7 3 0
    endloop
  endfacet
  facet normal 0 -1 -0
    outer loop
      vertex -2.7 3 0
      vertex -5.7 3 -0.79
      vertex -2.7 3 -0.79
    endloop
  endfacet
  facet normal 0 1 -0
    outer loop
      vertex -2.7 -5.72205e-07 -0.79
      vertex -5.7 -5.72205e-07 0
      vertex -2.7 -5.72205e-07 0
    endloop
  endfacet
  facet normal 0 1 0
    outer loop
      vertex -5.7 -5.72205e-07 0
      vertex -2.7 -5.72205e-07 -0.79
      vertex -5.7 -5.72205e-07 -0.79
    endloop
  endfacet
  facet normal -1 0 0
    outer loop
      vertex -2.7 3.8 -0.79
      vertex -2.7 6.8 0
      vertex -2.7 6.8 -0.79
    endloop
  endfacet
  facet normal -1 -0 0
    outer loop
      vertex -2.7 6.8 0
      vertex -2.7 3.8 -0.79
      vertex -2.7 3.8 0
    endloop
  endfacet
  facet normal -0 0 1
    outer loop
      vertex -5.7 6.8 -0.79
      vertex -2.7 3.8 -0.79
      vertex -2.7 6.8 -0.79
    endloop
  endfacet
  facet normal 0 0 1
    outer loop
      vertex -2.7 3.8 -0.79
      vertex -5.7 6.8 -0.79
      vertex -5.7 3.8 -0.79
    endloop
  endfacet
  facet normal 1 -0 0
    outer loop
      vertex -5.7 3.8 0
      vertex -5.7 6.8 -0.79
      vertex -5.7 6.8 0
    endloop
  endfacet
  facet normal 1 0 0
    outer loop
      vertex -5.7 6.8 -0.79
      vertex -5.7 3.8 0
      vertex -5.7 3.8 -0.79
    endloop
  endfacet
  facet normal 0 -1 0
    outer loop
      vertex -5.7 6.8 -0.79
      vertex -2.7 6.8 0
      vertex -5.7 6.8 0
    endloop
  endfacet
  facet normal 0 -1 -0
    outer loop
      vertex -2.7 6.8 0
      vertex -5.7 6.8 -0.79
      vertex -2.7 6.8 -0.79
    endloop
  endfacet
  facet normal 0 1 -0
    outer loop
      vertex -2.7 3.8 -0.79
      vertex -5.7 3.8 0
      vertex -2.7 3.8 0
    endloop
  endfacet
  facet normal 0 1 0
    outer loop
      vertex -5.7 3.8 0
      vertex -2.7 3.8 -0.79
      vertex -5.7 3.8 -0.79
    endloop
  endfacet
  facet normal -1 0 0
    outer loop
      vertex 1.1 -7.6 -0.79
      vertex 1.1 -4.6 0
      vertex 1.1 -4.6 -0.79
    endloop
  endfacet
  facet normal -1 -0 0
    outer loop
      vertex 1.1 -4.6 0
      vertex 1.1 -7.6 -0.79
      vertex 1.1 -7.6 0
    endloop
  endfacet
  facet normal -0 0 1
    outer loop
      vertex -1.9 -4.6 -0.79
      vertex 1.1 -7.6 -0.79
      vertex 1.1 -4.6 -0.79
    endloop
  endfacet
  facet normal 0 0 1
    outer loop
      vertex 1.1 -7.6 -0.79
      vertex -1.9 -4.6 -0.79
      vertex -1.9 -7.6 -0.79
    endloop
  endfacet
  facet normal 1 -0 0
    outer loop
      vertex -1.9 -7.6 0
      vertex -1.9 -4.6 -0.79
      vertex -1.9 -4.6 0
    endloop
  endfacet
  facet normal 1 0 0
    outer loop
      vertex -1.9 -4.6 -0.79
      vertex -1.9 -7.6 0
      vertex -1.9 -7.6 -0.79
    endloop
  endfacet
  facet normal 0 -1 0
    outer loop
      vertex -1.9 -4.6 -0.79
      vertex 1.1 -4.6 0
      vertex -1.9 -4.6 0
    endloop
  endfacet
  facet normal 0 -1 -0
    outer loop
      vertex 1.1 -4.6 0
      vertex -1.9 -4.6 -0.79
      vertex 1.1 -4.6 -0.79
    endloop
  endfacet
  facet normal 0 1 -0
    outer loop
      vertex 1.1 -7.6 -0.79
      vertex -1.9 -7.6 0
      vertex 1.1 -7.6 0
    endloop
  endfacet
  facet normal 0 1 0
    outer loop
      vertex -1.9 -7.6 0
      vertex 1.1 -7.6 -0.79
      vertex -1.9 -7.6 -0.79
    endloop
  endfacet
  facet normal -1 0 0
    outer loop
      vertex 1.1 -3.8 -0.79
      vertex 1.1 -0.800001 0
      vertex 1.1 -0.800001 -0.79
    endloop
  endfacet
  facet normal -1 -0 0
    outer loop
      vertex 1.1 -0.800001 0
      vertex 1.1 -3.8 -0.79
      vertex 1.1 -3.8 0
    endloop
  endfacet
  facet normal -0 0 1
    outer loop
      vertex -1.9 -0.800001 -0.79
      vertex 1.1 -3.8 -0.79
      vertex 1.1 -0.800001 -0.79
    endloop
  endfacet
  facet normal 0 0 1
    outer loop
      vertex 1.1 -3.8 -0.79
      vertex -1.9 -0.800001 -0.79
      vertex -1.9 -3.8 -0.79
    endloop
  endfacet
  facet normal 1 -0 0
    outer loop
      vertex -1.9 -3.8 0
      vertex -1.9 -0.800001 -0.79
      vertex -1.9 -0.800001 0
    endloop
  endfacet
  facet normal 1 0 0
    outer loop
      vertex -1.9 -0.800001 -0.79
      vertex -1.9 -3.8 0
      vertex -1.9 -3.8 -0.79
    endloop
  endfacet
  facet normal 0 -1 0
    outer loop
      vertex -1.9 -0.800001 -0.79
      vertex 1.1 -0.800001 0
      vertex -1.9 -0.800001 0
    endloop
  endfacet
  facet normal 0 -1 -0
    outer loop
      vertex 1.1 -0.800001 0
      vertex -1.9 -0.800001 -0.79
      vertex 1.1 -0.800001 -0.79
    endloop
  endfacet
  facet normal 0 1 -0
    outer loop
      vertex 1.1 -3.8 -0.79
      vertex -1.9 -3.8 0
      vertex 1.1 -3.8 0
    endloop
  endfacet
  facet normal 0 1 0
    outer loop
      vertex -1.9 -3.8 0
      vertex 1.1 -3.8 -0.79
      vertex -1.9 -3.8 -0.79
    endloop
  endfacet
  facet normal -1 0 0
    outer loop
      vertex 1.1 -5.72205e-07 -0.79
      vertex 1.1 3 0
      vertex 1.1 3 -0.79
    endloop
  endfacet
  facet normal -1 -0 0
    outer loop
      vertex 1.1 3 0
      vertex 1.1 -5.72205e-07 -0.79
      vertex 1.1 -5.72205e-07 0
    endloop
  endfacet
  facet normal -0 0 1
    outer loop
      vertex -1.9 3 -0.79
      vertex 1.1 -5.72205e-07 -0.79
      vertex 1.1 3 -0.79
    endloop
  endfacet
  facet normal 0 0 1
    outer loop
      vertex 1.1 -5.72205e-07 -0.79
      vertex -1.9 3 -0.79
      vertex -1.9 -5.72205e-07 -0.79
    endloop
  endfacet
  facet normal 1 -0 0
    outer loop
      vertex -1.9 -5.72205e-07 0
      vertex -1.9 3 -0.79
      vertex -1.9 3 0
    endloop
  endfacet
  facet normal 1 0 0
    outer loop
      vertex -1.9 3 -0.79
      vertex -1.9 -5.72205e-07 0
      vertex -1.9 -5.72205e-07 -0.79
    endloop
  endfacet
  facet normal 0 -1 0
    outer loop
      vertex -1.9 3 -0.79
      vertex 1.1 3 0
      vertex -1.9 3 0
    endloop
  endfacet
  facet normal 0 -1 -0
    outer loop
      vertex 1.1 3 0
      vertex -1.9 3 -0.79
      vertex 1.1 3 -0.79
    endloop
  endfacet
  facet normal 0 1 -0
    outer loop
      vertex 1.1 -5.72205e-07 -0.79
      vertex -1.9 -5.72205e-07 0
      vertex 1.1 -5.72205e-07 0
    endloop
  endfacet
  facet normal 0 1 0
    outer loop
      vertex -1.9 -5.72205e-07 0
      vertex 1.1 -5.72205e-07 -0.79
      vertex -1.9 -5.72205e-07 -0.79
    endloop
  endfacet
  facet normal -1 0 0
    outer loop
      vertex 1.1 3.8 -0.79
      vertex 1.1 6.8 0
      vertex 1.1 6.8 -0.79
    endloop
  endfacet
  facet normal -1 -0 0
    outer loop
      vertex 1.1 6.8 0
      vertex 1.1 3.8 -0.79
      vertex 1.1 3.8 0
    endloop
  endfacet
  facet normal -0 0 1
    outer loop
      vertex -1.9 6.8 -0.79
      vertex 1.1 3.8 -0.79
      vertex 1.1 6.8 -0.79
    endloop
  endfacet
  facet normal 0 0 1
    outer loop
      vertex 1.1 3.8 -0.79
      vertex -1.9 6.8 -0.79
      vertex -1.9 3.8 -0.79
    endloop
  endfacet
  facet normal 1 -0 0
    outer loop
      vertex -1.9 3.8 0
      vertex -1.9 6.8 -0.79
      vertex -1.9 6.8 0
    endloop
  endfacet
  facet normal 1 0 0
    outer loop
      vertex -1.9 6.8 -0.79
      vertex -1.9 3.8 0
      vertex -1.9 3.8 -0.79
    endloop
  endfacet
  facet normal 0 -1 0
    outer loop
      vertex -1.9 6.8 -0.79
      vertex 1.1 6.8 0
      vertex -1.9 6.8 0
    endloop
  endfacet
  facet normal 0 -1 -0
    outer loop
      vertex 1.1 6.8 0
      vertex -1.9 6.8 -0.79
      vertex 1.1 6.8 -0.79
    endloop
  endfacet
  facet normal 0 1 -0
    outer loop
      vertex 1.1 3.8 -0.79
      vertex -1.9 3.8 0
      vertex 1.1 3.8 0
    endloop
  endfacet
  facet normal 0 1 0
    outer loop
      vertex -1.9 3.8 0
      vertex 1.1 3.8 -0.79
      vertex -1.9 3.8 -0.79
    endloop
  endfacet
  facet normal -1 0 0
    outer loop
      vertex 4.9 -7.6 -0.79
      vertex 4.9 -4.6 0
      vertex 4.9 -4.6 -0.79
    endloop
  endfacet
  facet normal -1 -0 0
    outer loop
      vertex 4.9 -4.6 0
      vertex 4.9 -7.6 -0.79
      vertex 4.9 -7.6 0
    endloop
  endfacet
  facet normal -0 0 1
    outer loop
      vertex 1.9 -4.6 -0.79
      vertex 4.9 -7.6 -0.79
      vertex 4.9 -4.6 -0.79
    endloop
  endfacet
  facet normal 0 0 1
    outer loop
      vertex 4.9 -7.6 -0.79
      vertex 1.9 -4.6 -0.79
      vertex 1.9 -7.6 -0.79
    endloop
  endfacet
  facet normal 1 -0 0
    outer loop
      vertex 1.9 -7.6 0
      vertex 1.9 -4.6 -0.79
      vertex 1.9 -4.6 0
    endloop
  endfacet
  facet normal 1 0 0
    outer loop
      vertex 1.9 -4.6 -0.79
      vertex 1.9 -7.6 0
      vertex 1.9 -7.6 -0.79
    endloop
  endfacet
  facet normal 0 -1 0
    outer loop
      vertex 1.9 -4.6 -0.79
      vertex 4.9 -4.6 0
      vertex 1.9 -4.6 0
    endloop
  endfacet
  facet normal 0 -1 -0
    outer loop
      vertex 4.9 -4.6 0
      vertex 1.9 -4.6 -0.79
      vertex 4.9 -4.6 -0.79
    endloop
  endfacet
  facet normal 0 1 -0
    outer loop
      vertex 4.9 -7.6 -0.79
      vertex 1.9 -7.6 0
      vertex 4.9 -7.6 0
    endloop
  endfacet
  facet normal 0 1 0
    outer loop
      vertex 1.9 -7.6 0
      vertex 4.9 -7.6 -0.79
      vertex 1.9 -7.6 -0.79
    endloop
  endfacet
  facet normal -1 0 0
    outer loop
      vertex 4.9 -3.8 -0.79
      vertex 4.9 -0.800001 0
      vertex 4.9 -0.800001 -0.79
    endloop
  endfacet
  facet normal -1 -0 0
    outer loop
      vertex 4.9 -0.800001 0
      vertex 4.9 -3.8 -0.79
      vertex 4.9 -3.8 0
    endloop
  endfacet
  facet normal -0 0 1
    outer loop
      vertex 1.9 -0.800001 -0.79
      vertex 4.9 -3.8 -0.79
      vertex 4.9 -0.800001 -0.79
    endloop
  endfacet
  facet normal 0 0 1
    outer loop
      vertex 4.9 -3.8 -0.79
      vertex 1.9 -0.800001 -0.79
      vertex 1.9 -3.8 -0.79
    endloop
  endfacet
  facet normal 1 -0 0
    outer loop
      vertex 1.9 -3.8 0
      vertex 1.9 -0.800001 -0.79
      vertex 1.9 -0.800001 0
    endloop
  endfacet
  facet normal 1 0 0
    outer loop
      vertex 1.9 -0.800001 -0.79
      vertex 1.9 -3.8 0
      vertex 1.9 -3.8 -0.79
    endloop
  endfacet
  facet normal 0 -1 0
    outer loop
      vertex 1.9 -0.800001 -0.79
      vertex 4.9 -0.800001 0
      vertex 1.9 -0.800001 0
    endloop
  endfacet
  facet normal 0 -1 -0
    outer loop
      vertex 4.9 -0.800001 0
      vertex 1.9 -0.800001 -0.79
      vertex 4.9 -0.800001 -0.79
    endloop
  endfacet
  facet normal 0 1 -0
    outer loop
      vertex 4.9 -3.8 -0.79
      vertex 1.9 -3.8 0
      vertex 4.9 -3.8 0
    endloop
  endfacet
  facet normal 0 1 0
    outer loop
      vertex 1.9 -3.8 0
      vertex 4.9 -3.8 -0.79
      vertex 1.9 -3.8 -0.79
    endloop
  endfacet
  facet normal -1 0 0
    outer loop
      vertex 4.9 -5.72205e-07 -0.79
      vertex 4.9 3 0
      vertex 4.9 3 -0.79
    endloop
  endfacet
  facet normal -1 -0 0
    outer loop
      vertex 4.9 3 0
      vertex 4.9 -5.72205e-07 -0.79
      vertex 4.9 -5.72205e-07 0
    endloop
  endfacet
  facet normal -0 0 1
    outer loop
      vertex 1.9 3 -0.79
      vertex 4.9 -5.72205e-07 -0.79
      vertex 4.9 3 -0.79
    endloop
  endfacet
  facet normal 0 0 1
    outer loop
      vertex 4.9 -5.72205e-07 -0.79
      vertex 1.9 3 -0.79
      vertex 1.9 -5.72205e-07 -0.79
    endloop
  endfacet
  facet normal 1 -0 0
    outer loop
      vertex 1.9 -5.72205e-07 0
      vertex 1.9 3 -0.79
      vertex 1.9 3 0
    endloop
  endfacet
  facet normal 1 0 0
    outer loop
      vertex 1.9 3 -0.79
      vertex 1.9 -5.72205e-07 0
      vertex 1.9 -5.72205e-07 -0.79
    endloop
  endfacet
  facet normal 0 -1 0
    outer loop
      vertex 1.9 3 -0.79
      vertex 4.9 3 0
      vertex 1.9 3 0
    endloop
  endfacet
  facet normal 0 -1 -0
    outer loop
      vertex 4.9 3 0
      vertex 1.9 3 -0.79
      vertex 4.9 3 -0.79
    endloop
  endfacet
  facet normal 0 1 -0
    outer loop
      vertex 4.9 -5.72205e-07 -0.79
      vertex 1.9 -5.72205e-07 0
      vertex 4.9 -5.72205e-07 0
    endloop
  endfacet
  facet normal 0 1 0
    outer loop
      vertex 1.9 -5.72205e-07 0
      vertex 4.9 -5.72205e-07 -0.79
      vertex 1.9 -5.72205e-07 -0.79
    endloop
  endfacet
  facet normal -1 0 0
    outer loop
      vertex 4.9 3.8 -0.79
      vertex 4.9 6.8 0
      vertex 4.9 6.8 -0.79
    endloop
  endfacet
  facet normal -1 -0 0
    outer loop
      vertex 4.9 6.8 0
      vertex 4.9 3.8 -0.79
      vertex 4.9 3.8 0
    endloop
  endfacet
  facet normal -0 0 1
    outer loop
      vertex 1.9 6.8 -0.79
      vertex 4.9 3.8 -0.79
      vertex 4.9 6.8 -0.79
    endloop
  endfacet
  facet normal 0 0 1
    outer loop
      vertex 4.9 3.8 -0.79
      vertex 1.9 6.8 -0.79
      vertex 1.9 3.8 -0.79
    endloop
  endfacet
  facet normal 1 -0 0
    outer loop
      vertex 1.9 3.8 0
      vertex 1.9 6.8 -0.79
      vertex 1.9 6.8 0
    endloop
  endfacet
  facet normal 1 0 0
    outer loop
      vertex 1.9 6.8 -0.79
      vertex 1.9 3.8 0
      vertex 1.9 3.8 -0.79
    endloop
  endfacet
  facet normal 0 -1 0
    outer loop
      vertex 1.9 6.8 -0.79
      vertex 4.9 6.8 0
      vertex 1.9 6.8 0
    endloop
  endfacet
  facet normal 0 -1 -0
    outer loop
      vertex 4.9 6.8 0
      vertex 1.9 6.8 -0.79
      vertex 4.9 6.8 -0.79
    endloop
  endfacet
  facet normal 0 1 -0
    outer loop
      vertex 4.9 3.8 -0.79
      vertex 1.9 3.8 0
      vertex 4.9 3.8 0
    endloop
  endfacet
  facet normal 0 1 0
    outer loop
      vertex 1.9 3.8 0
      vertex 4.9 3.8 -0.79
      vertex 1.9 3.8 -0.79
    endloop
  endfacet
  facet normal 1 -0 0
    outer loop
      vertex 24 -37.5 0
      vertex 24 37.5 -1.2
      vertex 24 37.5 0
    endloop
  endfacet
  facet normal 1 0 0
    outer loop
      vertex 24 37.5 -1.2
      vertex 24 -37.5 0
      vertex 24 -37.5 -1.2
    endloop
  endfacet
  facet normal -0 0 1
    outer loop
      vertex -5.7 -3.8 0
      vertex -2.7 -4.6 0
      vertex -2.7 -3.8 0
    endloop
  endfacet
  facet normal 0 0 1
    outer loop
      vertex -2.7 -4.6 0
      vertex -5.7 -3.8 0
      vertex -5.7 -4.6 0
    endloop
  endfacet
  facet normal -0 0 1
    outer loop
      vertex -5.7 -5.72205e-07 0
      vertex -2.7 -0.800001 0
      vertex -2.7 -5.72205e-07 0
    endloop
  endfacet
  facet normal 0 0 1
    outer loop
      vertex -2.7 -0.800001 0
      vertex -5.7 -5.72205e-07 0
      vertex -5.7 -0.800001 0
    endloop
  endfacet
  facet normal -0 0 1
    outer loop
      vertex -5.7 3.8 0
      vertex -2.7 3 0
      vertex -2.7 3.8 0
    endloop
  endfacet
  facet normal 0 0 1
    outer loop
      vertex -2.7 3 0
      vertex -5.7 3.8 0
      vertex -5.7 3 0
    endloop
  endfacet
  facet normal -0 0 1
    outer loop
      vertex -1.9 -3.8 0
      vertex 1.1 -4.6 0
      vertex 1.1 -3.8 0
    endloop
  endfacet
  facet normal 0 0 1
    outer loop
      vertex 1.1 -4.6 0
      vertex -1.9 -3.8 0
      vertex -1.9 -4.6 0
    endloop
  endfacet
  facet normal -0 0 1
    outer loop
      vertex -1.9 -5.72205e-07 0
      vertex 1.1 -0.800001 0
      vertex 1.1 -5.72205e-07 0
    endloop
  endfacet
  facet normal 0 0 1
    outer loop
      vertex 1.1 -0.800001 0
      vertex -1.9 -5.72205e-07 0
      vertex -1.9 -0.800001 0
    endloop
  endfacet
  facet normal -0 0 1
    outer loop
      vertex -1.9 3.8 0
      vertex 1.1 3 0
      vertex 1.1 3.8 0
    endloop
  endfacet
  facet normal 0 0 1
    outer loop
      vertex 1.1 3 0
      vertex -1.9 3.8 0
      vertex -1.9 3 0
    endloop
  endfacet
  facet normal -0 0 1
    outer loop
      vertex 1.9 -3.8 0
      vertex 4.9 -4.6 0
      vertex 4.9 -3.8 0
    endloop
  endfacet
  facet normal 0 0 1
    outer loop
      vertex 4.9 -4.6 0
      vertex 1.9 -3.8 0
      vertex 1.9 -4.6 0
    endloop
  endfacet
  facet normal -0 0 1
    outer loop
      vertex 1.9 -5.72205e-07 0
      vertex 4.9 -0.800001 0
      vertex 4.9 -5.72205e-07 0
    endloop
  endfacet
  facet normal 0 0 1
    outer loop
      vertex 4.9 -0.800001 0
      vertex 1.9 -5.72205e-07 0
      vertex 1.9 -0.800001 0
    endloop
  endfacet
  facet normal -0 0 1
    outer loop
      vertex 1.9 3.8 0
      vertex 4.9 3 0
      vertex 4.9 3.8 0
    endloop
  endfacet
  facet normal 0 0 1
    outer loop
      vertex 4.9 3 0
      vertex 1.9 3.8 0
      vertex 1.9 3 0
    endloop
  endfacet
  facet normal -0 0 1
    outer loop
      vertex 22.5217 -34.0056 0
      vertex 24 -37.5 0
      vertex 24 37.5 0
    endloop
  endfacet
  facet normal 0 0 1
    outer loop
      vertex 24 -37.5 0
      vertex 22.5217 -34.0056 0
      vertex 22.6 -34.5 0
    endloop
  endfacet
  facet normal 0 0 1
    outer loop
      vertex 22.4266 34.0365 0
      vertex 24 37.5 0
      vertex 22.5 34.5 0
    endloop
  endfacet
  facet normal 0 0 1
    outer loop
      vertex 24 37.5 0
      vertex 22.4266 34.9635 0
      vertex 22.5 34.5 0
    endloop
  endfacet
  facet normal 0 0 1
    outer loop
      vertex 24 37.5 0
      vertex 22.2135 35.3817 0
      vertex 22.4266 34.9635 0
    endloop
  endfacet
  facet normal 0 0 1
    outer loop
      vertex 24 37.5 0
      vertex 21.8817 35.7135 0
      vertex 22.2135 35.3817 0
    endloop
  endfacet
  facet normal 0 0 1
    outer loop
      vertex 24 37.5 0
      vertex 21.4635 35.9266 0
      vertex 21.8817 35.7135 0
    endloop
  endfacet
  facet normal 0 0 1
    outer loop
      vertex 24 37.5 0
      vertex 21 36 0
      vertex 21.4635 35.9266 0
    endloop
  endfacet
  facet normal 0 0 1
    outer loop
      vertex 24 37.5 0
      vertex 20.5365 35.9266 0
      vertex 21 36 0
    endloop
  endfacet
  facet normal 0 0 1
    outer loop
      vertex 21.4944 -32.9783 0
      vertex 4.9 -7.6 0
      vertex 21 -32.9 0
    endloop
  endfacet
  facet normal 0 0 1
    outer loop
      vertex 4.9 3.8 0
      vertex 19.5 34.5 0
      vertex 4.9 6.8 0
    endloop
  endfacet
  facet normal 0 0 1
    outer loop
      vertex -19.5 34.5 0
      vertex 19.5 34.5 0
      vertex 19.5734 34.9635 0
    endloop
  endfacet
  facet normal 0 0 1
    outer loop
      vertex -19.5734 34.9635 0
      vertex 19.5734 34.9635 0
      vertex 19.7865 35.3817 0
    endloop
  endfacet
  facet normal 0 0 1
    outer loop
      vertex 19.5 34.5 0
      vertex 1.9 6.8 0
      vertex 4.9 6.8 0
    endloop
  endfacet
  facet normal 0 0 1
    outer loop
      vertex 1.1 3.8 0
      vertex 1.9 3.8 0
      vertex 1.9 6.8 0
    endloop
  endfacet
  facet normal 0 0 1
    outer loop
      vertex 1.9 3.8 0
      vertex 1.1 3.8 0
      vertex 1.9 3 0
    endloop
  endfacet
  facet normal 0 0 1
    outer loop
      vertex 1.9 3 0
      vertex 1.1 3 0
      vertex 1.9 -5.72205e-07 0
    endloop
  endfacet
  facet normal 0 0 1
    outer loop
      vertex 1.1 -5.72205e-07 0
      vertex 1.9 -5.72205e-07 0
      vertex 1.1 3 0
    endloop
  endfacet
  facet normal 0 0 1
    outer loop
      vertex 1.1 -0.800001 0
      vertex 1.9 -0.800001 0
      vertex 1.1 -5.72205e-07 0
    endloop
  endfacet
  facet normal 0 0 1
    outer loop
      vertex 1.9 -0.800001 0
      vertex 1.1 -0.800001 0
      vertex 1.9 -3.8 0
    endloop
  endfacet
  facet normal 0 0 1
    outer loop
      vertex 1.1 3.8 0
      vertex 1.9 6.8 0
      vertex 1.1 6.8 0
    endloop
  endfacet
  facet normal 0 0 1
    outer loop
      vertex 19.5 34.5 0
      vertex 1.1 6.8 0
      vertex 1.9 6.8 0
    endloop
  endfacet
  facet normal 0 0 1
    outer loop
      vertex 19.5 34.5 0
      vertex -19.5734 34.0365 0
      vertex 1.1 6.8 0
    endloop
  endfacet
  facet normal 0 0 1
    outer loop
      vertex -2.7 3.8 0
      vertex -1.9 3.8 0
      vertex -1.9 6.8 0
    endloop
  endfacet
  facet normal 0 0 1
    outer loop
      vertex -1.9 3.8 0
      vertex -2.7 3.8 0
      vertex -1.9 3 0
    endloop
  endfacet
  facet normal 0 0 1
    outer loop
      vertex -1.9 3 0
      vertex -2.7 3 0
      vertex -1.9 -5.72205e-07 0
    endloop
  endfacet
  facet normal 0 0 1
    outer loop
      vertex -2.7 -5.72205e-07 0
      vertex -1.9 -5.72205e-07 0
      vertex -2.7 3 0
    endloop
  endfacet
  facet normal 0 0 1
    outer loop
      vertex -2.7 -0.800001 0
      vertex -1.9 -0.800001 0
      vertex -2.7 -5.72205e-07 0
    endloop
  endfacet
  facet normal 0 0 1
    outer loop
      vertex -1.9 -0.800001 0
      vertex -2.7 -0.800001 0
      vertex -1.9 -3.8 0
    endloop
  endfacet
  facet normal 0 0 1
    outer loop
      vertex -2.7 3.8 0
      vertex -1.9 6.8 0
      vertex -2.7 6.8 0
    endloop
  endfacet
  facet normal 0 0 1
    outer loop
      vertex 1.1 6.8 0
      vertex -19.5734 34.0365 0
      vertex -1.9 6.8 0
    endloop
  endfacet
  facet normal 0 0 1
    outer loop
      vertex -1.9 6.8 0
      vertex -19.5734 34.0365 0
      vertex -2.7 6.8 0
    endloop
  endfacet
  facet normal 0 0 1
    outer loop
      vertex -21.8817 33.2865 0
      vertex -5.7 3.8 0
      vertex -5.7 6.8 0
    endloop
  endfacet
  facet normal 0 0 1
    outer loop
      vertex -5.7 3.8 0
      vertex -21.8817 33.2865 0
      vertex -5.7 3 0
    endloop
  endfacet
  facet normal 0 0 1
    outer loop
      vertex -5.7 3 0
      vertex -21.8817 33.2865 0
      vertex -5.7 -5.72205e-07 0
    endloop
  endfacet
  facet normal 0 0 1
    outer loop
      vertex -21.9405 -33.2056 0
      vertex -5.7 -5.72205e-07 0
      vertex -21.8817 33.2865 0
    endloop
  endfacet
  facet normal 0 0 1
    outer loop
      vertex -5.7 -5.72205e-07 0
      vertex -21.9405 -33.2056 0
      vertex -5.7 -0.800001 0
    endloop
  endfacet
  facet normal 0 0 1
    outer loop
      vertex -5.7 -0.800001 0
      vertex -21.9405 -33.2056 0
      vertex -5.7 -3.8 0
    endloop
  endfacet
  facet normal 0 0 1
    outer loop
      vertex -5.7 -4.6 0
      vertex -21.9405 -33.2056 0
      vertex -5.7 -7.6 0
    endloop
  endfacet
  facet normal 0 0 1
    outer loop
      vertex -5.7 -7.6 0
      vertex -19.4783 -34.0056 0
      vertex -19.4 -34.5 0
    endloop
  endfacet
  facet normal -0 0 1
    outer loop
      vertex -19.7865 33.6183 0
      vertex -2.7 6.8 0
      vertex -19.5734 34.0365 0
    endloop
  endfacet
  facet normal 0 0 1
    outer loop
      vertex 19.5 34.5 0
      vertex -19.5 34.5 0
      vertex -19.5734 34.0365 0
    endloop
  endfacet
  facet normal 0 0 1
    outer loop
      vertex -19.7865 35.3817 0
      vertex 19.7865 35.3817 0
      vertex 20.1183 35.7135 0
    endloop
  endfacet
  facet normal 0 0 1
    outer loop
      vertex -20.1183 35.7135 0
      vertex 20.1183 35.7135 0
      vertex 20.5365 35.9266 0
    endloop
  endfacet
  facet normal 0 0 1
    outer loop
      vertex -20.5365 35.9266 0
      vertex 20.5365 35.9266 0
      vertex 24 37.5 0
    endloop
  endfacet
  facet normal 0 0 1
    outer loop
      vertex 19.5734 34.9635 0
      vertex -19.5734 34.9635 0
      vertex -19.5 34.5 0
    endloop
  endfacet
  facet normal 0 0 1
    outer loop
      vertex 19.7865 35.3817 0
      vertex -19.7865 35.3817 0
      vertex -19.5734 34.9635 0
    endloop
  endfacet
  facet normal 0 0 1
    outer loop
      vertex 20.1183 35.7135 0
      vertex -20.1183 35.7135 0
      vertex -19.7865 35.3817 0
    endloop
  endfacet
  facet normal 0 0 1
    outer loop
      vertex 20.5365 35.9266 0
      vertex -20.5365 35.9266 0
      vertex -20.1183 35.7135 0
    endloop
  endfacet
  facet normal -0 0 1
    outer loop
      vertex -24 37.5 0
      vertex -20.5365 35.9266 0
      vertex 24 37.5 0
    endloop
  endfacet
  facet normal 0 0 1
    outer loop
      vertex -22.4266 34.0365 0
      vertex -24 37.5 0
      vertex -22.5217 -34.0056 0
    endloop
  endfacet
  facet normal 0 0 1
    outer loop
      vertex -24 -37.5 0
      vertex -22.5217 -34.0056 0
      vertex -24 37.5 0
    endloop
  endfacet
  facet normal 0 0 1
    outer loop
      vertex -22.4266 34.9635 0
      vertex -24 37.5 0
      vertex -22.5 34.5 0
    endloop
  endfacet
  facet normal 0 0 1
    outer loop
      vertex -22.2135 35.3817 0
      vertex -24 37.5 0
      vertex -22.4266 34.9635 0
    endloop
  endfacet
  facet normal 0 0 1
    outer loop
      vertex -21.8817 35.7135 0
      vertex -24 37.5 0
      vertex -22.2135 35.3817 0
    endloop
  endfacet
  facet normal 0 0 1
    outer loop
      vertex -21.4635 35.9266 0
      vertex -24 37.5 0
      vertex -21.8817 35.7135 0
    endloop
  endfacet
  facet normal 0 0 1
    outer loop
      vertex -21 36 0
      vertex -24 37.5 0
      vertex -21.4635 35.9266 0
    endloop
  endfacet
  facet normal 0 0 1
    outer loop
      vertex -20.5365 35.9266 0
      vertex -24 37.5 0
      vertex -21 36 0
    endloop
  endfacet
  facet normal -0 0 1
    outer loop
      vertex 22.5217 -34.9944 0
      vertex 24 -37.5 0
      vertex 22.6 -34.5 0
    endloop
  endfacet
  facet normal -0 0 1
    outer loop
      vertex 22.2944 -35.4405 0
      vertex 24 -37.5 0
      vertex 22.5217 -34.9944 0
    endloop
  endfacet
  facet normal -0 0 1
    outer loop
      vertex 21.9405 -35.7944 0
      vertex 24 -37.5 0
      vertex 22.2944 -35.4405 0
    endloop
  endfacet
  facet normal -0 0 1
    outer loop
      vertex 21.4944 -36.0217 0
      vertex 24 -37.5 0
      vertex 21.9405 -35.7944 0
    endloop
  endfacet
  facet normal -0 0 1
    outer loop
      vertex 21 -36.1 0
      vertex 24 -37.5 0
      vertex 21.4944 -36.0217 0
    endloop
  endfacet
  facet normal 0 0 1
    outer loop
      vertex 20.5056 -36.0217 0
      vertex 24 -37.5 0
      vertex 21 -36.1 0
    endloop
  endfacet
  facet normal 0 0 1
    outer loop
      vertex 4.9 3 0
      vertex 19.5 34.5 0
      vertex 4.9 3.8 0
    endloop
  endfacet
  facet normal 0 0 1
    outer loop
      vertex 4.9 -5.72205e-07 0
      vertex 19.5 34.5 0
      vertex 4.9 3 0
    endloop
  endfacet
  facet normal 0 0 1
    outer loop
      vertex 21 -32.9 0
      vertex 4.9 -7.6 0
      vertex 20.5056 -32.9783 0
    endloop
  endfacet
  facet normal 0 0 1
    outer loop
      vertex 20.5056 -32.9783 0
      vertex 4.9 -7.6 0
      vertex 20.0595 -33.2056 0
    endloop
  endfacet
  facet normal 0 0 1
    outer loop
      vertex 20.0595 -33.2056 0
      vertex 4.9 -7.6 0
      vertex 19.7056 -33.5595 0
    endloop
  endfacet
  facet normal 0 0 1
    outer loop
      vertex 19.7056 -33.5595 0
      vertex 4.9 -7.6 0
      vertex 19.4783 -34.0056 0
    endloop
  endfacet
  facet normal -0 0 1
    outer loop
      vertex 1.9 -7.6 0
      vertex 19.4783 -34.0056 0
      vertex 4.9 -7.6 0
    endloop
  endfacet
  facet normal -0 0 1
    outer loop
      vertex 1.1 -7.6 0
      vertex 19.4783 -34.0056 0
      vertex 1.9 -7.6 0
    endloop
  endfacet
  facet normal 0 0 1
    outer loop
      vertex -19.4 -34.5 0
      vertex 19.4783 -34.0056 0
      vertex 1.1 -7.6 0
    endloop
  endfacet
  facet normal 0 0 1
    outer loop
      vertex 19.4783 -34.0056 0
      vertex -19.4 -34.5 0
      vertex 19.4 -34.5 0
    endloop
  endfacet
  facet normal 0 0 1
    outer loop
      vertex 1.9 3 0
      vertex 1.1 3.8 0
      vertex 1.1 3 0
    endloop
  endfacet
  facet normal 0 0 1
    outer loop
      vertex 1.9 -5.72205e-07 0
      vertex 1.1 -5.72205e-07 0
      vertex 1.9 -0.800001 0
    endloop
  endfacet
  facet normal 0 0 1
    outer loop
      vertex 1.1 -3.8 0
      vertex 1.9 -3.8 0
      vertex 1.1 -0.800001 0
    endloop
  endfacet
  facet normal 0 0 1
    outer loop
      vertex 1.9 -3.8 0
      vertex 1.1 -3.8 0
      vertex 1.9 -4.6 0
    endloop
  endfacet
  facet normal 0 0 1
    outer loop
      vertex 1.1 -4.6 0
      vertex 1.9 -4.6 0
      vertex 1.1 -3.8 0
    endloop
  endfacet
  facet normal 0 0 1
    outer loop
      vertex 1.9 -4.6 0
      vertex 1.1 -4.6 0
      vertex 1.9 -7.6 0
    endloop
  endfacet
  facet normal 0 0 1
    outer loop
      vertex 1.1 -7.6 0
      vertex 1.9 -7.6 0
      vertex 1.1 -4.6 0
    endloop
  endfacet
  facet normal 0 0 1
    outer loop
      vertex 19.4 -34.5 0
      vertex -19.4 -34.5 0
      vertex 19.4783 -34.9944 0
    endloop
  endfacet
  facet normal 0 0 1
    outer loop
      vertex -19.4 -34.5 0
      vertex 1.1 -7.6 0
      vertex -1.9 -7.6 0
    endloop
  endfacet
  facet normal 0 0 1
    outer loop
      vertex -1.9 3 0
      vertex -2.7 3.8 0
      vertex -2.7 3 0
    endloop
  endfacet
  facet normal 0 0 1
    outer loop
      vertex -1.9 -5.72205e-07 0
      vertex -2.7 -5.72205e-07 0
      vertex -1.9 -0.800001 0
    endloop
  endfacet
  facet normal 0 0 1
    outer loop
      vertex -2.7 -3.8 0
      vertex -1.9 -3.8 0
      vertex -2.7 -0.800001 0
    endloop
  endfacet
  facet normal 0 0 1
    outer loop
      vertex -1.9 -3.8 0
      vertex -2.7 -3.8 0
      vertex -1.9 -4.6 0
    endloop
  endfacet
  facet normal 0 0 1
    outer loop
      vertex -2.7 -4.6 0
      vertex -1.9 -4.6 0
      vertex -2.7 -3.8 0
    endloop
  endfacet
  facet normal 0 0 1
    outer loop
      vertex -1.9 -4.6 0
      vertex -2.7 -4.6 0
      vertex -1.9 -7.6 0
    endloop
  endfacet
  facet normal 0 0 1
    outer loop
      vertex -2.7 -7.6 0
      vertex -1.9 -7.6 0
      vertex -2.7 -4.6 0
    endloop
  endfacet
  facet normal 0 0 1
    outer loop
      vertex -19.4 -34.5 0
      vertex -1.9 -7.6 0
      vertex -2.7 -7.6 0
    endloop
  endfacet
  facet normal 0 0 1
    outer loop
      vertex -19.4 -34.5 0
      vertex -2.7 -7.6 0
      vertex -5.7 -7.6 0
    endloop
  endfacet
  facet normal 0 0 1
    outer loop
      vertex -19.4783 -34.9944 0
      vertex 19.4783 -34.9944 0
      vertex -19.4 -34.5 0
    endloop
  endfacet
  facet normal 0 0 1
    outer loop
      vertex 19.4783 -34.9944 0
      vertex -19.4783 -34.9944 0
      vertex 19.7056 -35.4405 0
    endloop
  endfacet
  facet normal 0 0 1
    outer loop
      vertex -19.7056 -35.4405 0
      vertex 19.7056 -35.4405 0
      vertex -19.4783 -34.9944 0
    endloop
  endfacet
  facet normal 0 0 1
    outer loop
      vertex 19.7056 -35.4405 0
      vertex -19.7056 -35.4405 0
      vertex 20.0595 -35.7944 0
    endloop
  endfacet
  facet normal 0 0 1
    outer loop
      vertex -20.0595 -35.7944 0
      vertex 20.0595 -35.7944 0
      vertex -19.7056 -35.4405 0
    endloop
  endfacet
  facet normal 0 0 1
    outer loop
      vertex 20.0595 -35.7944 0
      vertex -20.0595 -35.7944 0
      vertex 20.5056 -36.0217 0
    endloop
  endfacet
  facet normal 0 0 1
    outer loop
      vertex -20.5056 -36.0217 0
      vertex 20.5056 -36.0217 0
      vertex -20.0595 -35.7944 0
    endloop
  endfacet
  facet normal 0 0 1
    outer loop
      vertex 20.5056 -36.0217 0
      vertex -20.5056 -36.0217 0
      vertex 24 -37.5 0
    endloop
  endfacet
  facet normal 0 0 1
    outer loop
      vertex -24 -37.5 0
      vertex -20.5056 -36.0217 0
      vertex -21 -36.1 0
    endloop
  endfacet
  facet normal 0 0 1
    outer loop
      vertex -20.5056 -36.0217 0
      vertex -24 -37.5 0
      vertex 24 -37.5 0
    endloop
  endfacet
  facet normal 0 0 1
    outer loop
      vertex -21.4944 -36.0217 0
      vertex -24 -37.5 0
      vertex -21 -36.1 0
    endloop
  endfacet
  facet normal 0 0 1
    outer loop
      vertex -21.9405 -35.7944 0
      vertex -24 -37.5 0
      vertex -21.4944 -36.0217 0
    endloop
  endfacet
  facet normal 0 0 1
    outer loop
      vertex -22.2944 -35.4405 0
      vertex -24 -37.5 0
      vertex -21.9405 -35.7944 0
    endloop
  endfacet
  facet normal 0 0 1
    outer loop
      vertex -22.5217 -34.9944 0
      vertex -24 -37.5 0
      vertex -22.2944 -35.4405 0
    endloop
  endfacet
  facet normal 0 0 1
    outer loop
      vertex -22.6 -34.5 0
      vertex -24 -37.5 0
      vertex -22.5217 -34.9944 0
    endloop
  endfacet
  facet normal 0 0 1
    outer loop
      vertex -22.5217 -34.0056 0
      vertex -24 -37.5 0
      vertex -22.6 -34.5 0
    endloop
  endfacet
  facet normal 0 0 1
    outer loop
      vertex 24 37.5 0
      vertex 22.4266 34.0365 0
      vertex 22.5217 -34.0056 0
    endloop
  endfacet
  facet normal 0 0 1
    outer loop
      vertex 22.4266 34.0365 0
      vertex 22.2944 -33.5595 0
      vertex 22.5217 -34.0056 0
    endloop
  endfacet
  facet normal -0 0 1
    outer loop
      vertex 22.2135 33.6183 0
      vertex 22.2944 -33.5595 0
      vertex 22.4266 34.0365 0
    endloop
  endfacet
  facet normal 0 0 1
    outer loop
      vertex 22.2135 33.6183 0
      vertex 21.9405 -33.2056 0
      vertex 22.2944 -33.5595 0
    endloop
  endfacet
  facet normal -0 0 1
    outer loop
      vertex 21.8817 33.2865 0
      vertex 21.9405 -33.2056 0
      vertex 22.2135 33.6183 0
    endloop
  endfacet
  facet normal -0 0 1
    outer loop
      vertex 4.9 -5.72205e-07 0
      vertex 21.9405 -33.2056 0
      vertex 21.8817 33.2865 0
    endloop
  endfacet
  facet normal 0 0 1
    outer loop
      vertex 4.9 -5.72205e-07 0
      vertex 21.8817 33.2865 0
      vertex 21.4635 33.0734 0
    endloop
  endfacet
  facet normal 0 0 1
    outer loop
      vertex 4.9 -5.72205e-07 0
      vertex 21.4635 33.0734 0
      vertex 21 33 0
    endloop
  endfacet
  facet normal -0 0 1
    outer loop
      vertex 4.9 -0.800001 0
      vertex 21.9405 -33.2056 0
      vertex 4.9 -5.72205e-07 0
    endloop
  endfacet
  facet normal 0 0 1
    outer loop
      vertex 4.9 -5.72205e-07 0
      vertex 21 33 0
      vertex 20.5365 33.0734 0
    endloop
  endfacet
  facet normal -0 0 1
    outer loop
      vertex 4.9 -3.8 0
      vertex 21.9405 -33.2056 0
      vertex 4.9 -0.800001 0
    endloop
  endfacet
  facet normal 0 0 1
    outer loop
      vertex 4.9 -5.72205e-07 0
      vertex 20.5365 33.0734 0
      vertex 20.1183 33.2865 0
    endloop
  endfacet
  facet normal -0 0 1
    outer loop
      vertex 4.9 -4.6 0
      vertex 21.9405 -33.2056 0
      vertex 4.9 -3.8 0
    endloop
  endfacet
  facet normal 0 0 1
    outer loop
      vertex 4.9 -5.72205e-07 0
      vertex 20.1183 33.2865 0
      vertex 19.7865 33.6183 0
    endloop
  endfacet
  facet normal 0 0 1
    outer loop
      vertex 21.9405 -33.2056 0
      vertex 4.9 -4.6 0
      vertex 21.4944 -32.9783 0
    endloop
  endfacet
  facet normal 0 0 1
    outer loop
      vertex 4.9 -5.72205e-07 0
      vertex 19.7865 33.6183 0
      vertex 19.5734 34.0365 0
    endloop
  endfacet
  facet normal 0 0 1
    outer loop
      vertex 4.9 -5.72205e-07 0
      vertex 19.5734 34.0365 0
      vertex 19.5 34.5 0
    endloop
  endfacet
  facet normal -0 0 1
    outer loop
      vertex 4.9 -7.6 0
      vertex 21.4944 -32.9783 0
      vertex 4.9 -4.6 0
    endloop
  endfacet
  facet normal 0 0 1
    outer loop
      vertex -2.7 6.8 0
      vertex -19.7865 33.6183 0
      vertex -5.7 6.8 0
    endloop
  endfacet
  facet normal 0 0 1
    outer loop
      vertex -5.7 -7.6 0
      vertex -19.7056 -33.5595 0
      vertex -19.4783 -34.0056 0
    endloop
  endfacet
  facet normal -0 0 1
    outer loop
      vertex -20.1183 33.2865 0
      vertex -5.7 6.8 0
      vertex -19.7865 33.6183 0
    endloop
  endfacet
  facet normal 0 0 1
    outer loop
      vertex -5.7 -7.6 0
      vertex -20.0595 -33.2056 0
      vertex -19.7056 -33.5595 0
    endloop
  endfacet
  facet normal -0 0 1
    outer loop
      vertex -20.5365 33.0734 0
      vertex -5.7 6.8 0
      vertex -20.1183 33.2865 0
    endloop
  endfacet
  facet normal 0 0 1
    outer loop
      vertex -5.7 -7.6 0
      vertex -20.5056 -32.9783 0
      vertex -20.0595 -33.2056 0
    endloop
  endfacet
  facet normal -0 0 1
    outer loop
      vertex -21 33 0
      vertex -5.7 6.8 0
      vertex -20.5365 33.0734 0
    endloop
  endfacet
  facet normal 0 0 1
    outer loop
      vertex -21.4635 33.0734 0
      vertex -5.7 6.8 0
      vertex -21 33 0
    endloop
  endfacet
  facet normal 0 0 1
    outer loop
      vertex -5.7 -7.6 0
      vertex -21 -32.9 0
      vertex -20.5056 -32.9783 0
    endloop
  endfacet
  facet normal 0 0 1
    outer loop
      vertex -21.8817 33.2865 0
      vertex -5.7 6.8 0
      vertex -21.4635 33.0734 0
    endloop
  endfacet
  facet normal 0 0 1
    outer loop
      vertex -5.7 -7.6 0
      vertex -21.4944 -32.9783 0
      vertex -21 -32.9 0
    endloop
  endfacet
  facet normal 0 0 1
    outer loop
      vertex -5.7 -3.8 0
      vertex -21.9405 -33.2056 0
      vertex -5.7 -4.6 0
    endloop
  endfacet
  facet normal 0 0 1
    outer loop
      vertex -5.7 -7.6 0
      vertex -21.9405 -33.2056 0
      vertex -21.4944 -32.9783 0
    endloop
  endfacet
  facet normal 0 0 1
    outer loop
      vertex -22.2135 33.6183 0
      vertex -21.9405 -33.2056 0
      vertex -21.8817 33.2865 0
    endloop
  endfacet
  facet normal 0 0 1
    outer loop
      vertex -22.2135 33.6183 0
      vertex -22.2944 -33.5595 0
      vertex -21.9405 -33.2056 0
    endloop
  endfacet
  facet normal 0 0 1
    outer loop
      vertex -22.4266 34.0365 0
      vertex -22.2944 -33.5595 0
      vertex -22.2135 33.6183 0
    endloop
  endfacet
  facet normal 0 0 1
    outer loop
      vertex -24 37.5 0
      vertex -22.4266 34.0365 0
      vertex -22.5 34.5 0
    endloop
  endfacet
  facet normal 0 0 1
    outer loop
      vertex -22.4266 34.0365 0
      vertex -22.5217 -34.0056 0
      vertex -22.2944 -33.5595 0
    endloop
  endfacet
  facet normal 0 0 -1
    outer loop
      vertex 19.5734 34.0365 -1.2
      vertex -19.5734 34.0365 -1.2
      vertex -19.5 34.5 -1.2
    endloop
  endfacet
  facet normal 0 0 -1
    outer loop
      vertex 20.0595 -33.2056 -1.2
      vertex -20.0595 -33.2056 -1.2
      vertex 20.1183 33.2865 -1.2
    endloop
  endfacet
  facet normal 0 0 -1
    outer loop
      vertex 20.1183 33.2865 -1.2
      vertex -19.7865 33.6183 -1.2
      vertex -19.5734 34.0365 -1.2
    endloop
  endfacet
  facet normal 0 0 -1
    outer loop
      vertex -20.1183 33.2865 -1.2
      vertex 20.1183 33.2865 -1.2
      vertex -20.0595 -33.2056 -1.2
    endloop
  endfacet
  facet normal 0 0 -1
    outer loop
      vertex 20.1183 33.2865 -1.2
      vertex -20.1183 33.2865 -1.2
      vertex -19.7865 33.6183 -1.2
    endloop
  endfacet
  facet normal 0 0 -1
    outer loop
      vertex -20.5056 -32.9783 -1.2
      vertex -20.1183 33.2865 -1.2
      vertex -20.0595 -33.2056 -1.2
    endloop
  endfacet
  facet normal 0 0 -1
    outer loop
      vertex -20.5056 -32.9783 -1.2
      vertex -20.5365 33.0734 -1.2
      vertex -20.1183 33.2865 -1.2
    endloop
  endfacet
  facet normal 0 0 -1
    outer loop
      vertex -21 -32.9 -1.2
      vertex -20.5365 33.0734 -1.2
      vertex -20.5056 -32.9783 -1.2
    endloop
  endfacet
  facet normal 0 0 -1
    outer loop
      vertex -21 -32.9 -1.2
      vertex -21 33 -1.2
      vertex -20.5365 33.0734 -1.2
    endloop
  endfacet
  facet normal 0 0 -1
    outer loop
      vertex -21 -32.9 -1.2
      vertex -21.4635 33.0734 -1.2
      vertex -21 33 -1.2
    endloop
  endfacet
  facet normal 0 0 -1
    outer loop
      vertex -21.4944 -32.9783 -1.2
      vertex -21.4635 33.0734 -1.2
      vertex -21 -32.9 -1.2
    endloop
  endfacet
  facet normal 0 0 -1
    outer loop
      vertex -21.4944 -32.9783 -1.2
      vertex -21.8817 33.2865 -1.2
      vertex -21.4635 33.0734 -1.2
    endloop
  endfacet
  facet normal 0 0 -1
    outer loop
      vertex -21.9405 -33.2056 -1.2
      vertex -21.8817 33.2865 -1.2
      vertex -21.4944 -32.9783 -1.2
    endloop
  endfacet
  facet normal 0 0 -1
    outer loop
      vertex -21.9405 -33.2056 -1.2
      vertex -22.2135 33.6183 -1.2
      vertex -21.8817 33.2865 -1.2
    endloop
  endfacet
  facet normal 0 0 -1
    outer loop
      vertex -22.2944 -33.5595 -1.2
      vertex -22.2135 33.6183 -1.2
      vertex -21.9405 -33.2056 -1.2
    endloop
  endfacet
  facet normal 0 0 -1
    outer loop
      vertex -22.2944 -33.5595 -1.2
      vertex -22.4266 34.0365 -1.2
      vertex -22.2135 33.6183 -1.2
    endloop
  endfacet
  facet normal 0 0 -1
    outer loop
      vertex -22.5217 -34.0056 -1.2
      vertex -22.4266 34.0365 -1.2
      vertex -22.2944 -33.5595 -1.2
    endloop
  endfacet
  facet normal 0 0 -1
    outer loop
      vertex -24 37.5 -1.2
      vertex -22.4266 34.0365 -1.2
      vertex -22.5217 -34.0056 -1.2
    endloop
  endfacet
  facet normal 0 0 -1
    outer loop
      vertex 24 37.5 -1.2
      vertex 22.4266 34.0365 -1.2
      vertex 22.5 34.5 -1.2
    endloop
  endfacet
  facet normal 0 0 -1
    outer loop
      vertex 22.2944 -33.5595 -1.2
      vertex 22.4266 34.0365 -1.2
      vertex 22.5217 -34.0056 -1.2
    endloop
  endfacet
  facet normal 0 0 -1
    outer loop
      vertex 22.2944 -33.5595 -1.2
      vertex 22.2135 33.6183 -1.2
      vertex 22.4266 34.0365 -1.2
    endloop
  endfacet
  facet normal 0 0 -1
    outer loop
      vertex 21.9405 -33.2056 -1.2
      vertex 22.2135 33.6183 -1.2
      vertex 22.2944 -33.5595 -1.2
    endloop
  endfacet
  facet normal 0 0 -1
    outer loop
      vertex 21.9405 -33.2056 -1.2
      vertex 21.8817 33.2865 -1.2
      vertex 22.2135 33.6183 -1.2
    endloop
  endfacet
  facet normal 0 0 -1
    outer loop
      vertex 21.4944 -32.9783 -1.2
      vertex 21.8817 33.2865 -1.2
      vertex 21.9405 -33.2056 -1.2
    endloop
  endfacet
  facet normal 0 0 -1
    outer loop
      vertex 21.4944 -32.9783 -1.2
      vertex 21.4635 33.0734 -1.2
      vertex 21.8817 33.2865 -1.2
    endloop
  endfacet
  facet normal 0 0 -1
    outer loop
      vertex 21 -32.9 -1.2
      vertex 21.4635 33.0734 -1.2
      vertex 21.4944 -32.9783 -1.2
    endloop
  endfacet
  facet normal 0 0 -1
    outer loop
      vertex 21 -32.9 -1.2
      vertex 21 33 -1.2
      vertex 21.4635 33.0734 -1.2
    endloop
  endfacet
  facet normal 0 0 -1
    outer loop
      vertex 21 -32.9 -1.2
      vertex 20.5365 33.0734 -1.2
      vertex 21 33 -1.2
    endloop
  endfacet
  facet normal 0 0 -1
    outer loop
      vertex 20.5056 -32.9783 -1.2
      vertex 20.5365 33.0734 -1.2
      vertex 21 -32.9 -1.2
    endloop
  endfacet
  facet normal 0 0 -1
    outer loop
      vertex 20.5056 -32.9783 -1.2
      vertex 20.1183 33.2865 -1.2
      vertex 20.5365 33.0734 -1.2
    endloop
  endfacet
  facet normal 0 0 -1
    outer loop
      vertex 20.0595 -33.2056 -1.2
      vertex 20.1183 33.2865 -1.2
      vertex 20.5056 -32.9783 -1.2
    endloop
  endfacet
  facet normal 0 0 -1
    outer loop
      vertex 19.7056 -33.5595 -1.2
      vertex -19.7056 -33.5595 -1.2
      vertex 20.0595 -33.2056 -1.2
    endloop
  endfacet
  facet normal 0 0 -1
    outer loop
      vertex -19.7056 -33.5595 -1.2
      vertex 19.7056 -33.5595 -1.2
      vertex -19.4783 -34.0056 -1.2
    endloop
  endfacet
  facet normal 0 0 -1
    outer loop
      vertex -20.0595 -33.2056 -1.2
      vertex 20.0595 -33.2056 -1.2
      vertex -19.7056 -33.5595 -1.2
    endloop
  endfacet
  facet normal 0 0 -1
    outer loop
      vertex -19.5734 34.0365 -1.2
      vertex 19.7865 33.6183 -1.2
      vertex 20.1183 33.2865 -1.2
    endloop
  endfacet
  facet normal 0 0 -1
    outer loop
      vertex -19.4783 -34.0056 -1.2
      vertex 19.7056 -33.5595 -1.2
      vertex 19.4783 -34.0056 -1.2
    endloop
  endfacet
  facet normal 0 0 -1
    outer loop
      vertex 22.5217 -34.0056 -1.2
      vertex 24 -37.5 -1.2
      vertex 22.6 -34.5 -1.2
    endloop
  endfacet
  facet normal 0 0 -1
    outer loop
      vertex 24 -37.5 -1.2
      vertex 22.5217 -34.9944 -1.2
      vertex 22.6 -34.5 -1.2
    endloop
  endfacet
  facet normal 0 0 -1
    outer loop
      vertex 24 -37.5 -1.2
      vertex 22.2944 -35.4405 -1.2
      vertex 22.5217 -34.9944 -1.2
    endloop
  endfacet
  facet normal 0 0 -1
    outer loop
      vertex 24 -37.5 -1.2
      vertex 21.9405 -35.7944 -1.2
      vertex 22.2944 -35.4405 -1.2
    endloop
  endfacet
  facet normal 0 0 -1
    outer loop
      vertex 24 -37.5 -1.2
      vertex 21.4944 -36.0217 -1.2
      vertex 21.9405 -35.7944 -1.2
    endloop
  endfacet
  facet normal 0 0 -1
    outer loop
      vertex 24 -37.5 -1.2
      vertex 21 -36.1 -1.2
      vertex 21.4944 -36.0217 -1.2
    endloop
  endfacet
  facet normal 0 0 -1
    outer loop
      vertex 24 -37.5 -1.2
      vertex 20.5056 -36.0217 -1.2
      vertex 21 -36.1 -1.2
    endloop
  endfacet
  facet normal 0 0 -1
    outer loop
      vertex 19.4783 -34.9944 -1.2
      vertex -19.4 -34.5 -1.2
      vertex 19.4 -34.5 -1.2
    endloop
  endfacet
  facet normal 0 0 -1
    outer loop
      vertex -19.4783 -34.9944 -1.2
      vertex 19.4783 -34.9944 -1.2
      vertex 19.7056 -35.4405 -1.2
    endloop
  endfacet
  facet normal 0 0 -1
    outer loop
      vertex -19.7056 -35.4405 -1.2
      vertex 19.7056 -35.4405 -1.2
      vertex 20.0595 -35.7944 -1.2
    endloop
  endfacet
  facet normal 0 0 -1
    outer loop
      vertex -20.0595 -35.7944 -1.2
      vertex 20.0595 -35.7944 -1.2
      vertex 20.5056 -36.0217 -1.2
    endloop
  endfacet
  facet normal 0 0 -1
    outer loop
      vertex -20.5056 -36.0217 -1.2
      vertex 20.5056 -36.0217 -1.2
      vertex 24 -37.5 -1.2
    endloop
  endfacet
  facet normal 0 0 -1
    outer loop
      vertex 19.4783 -34.9944 -1.2
      vertex -19.4783 -34.9944 -1.2
      vertex -19.4 -34.5 -1.2
    endloop
  endfacet
  facet normal 0 0 -1
    outer loop
      vertex 19.7056 -35.4405 -1.2
      vertex -19.7056 -35.4405 -1.2
      vertex -19.4783 -34.9944 -1.2
    endloop
  endfacet
  facet normal 0 0 -1
    outer loop
      vertex 20.0595 -35.7944 -1.2
      vertex -20.0595 -35.7944 -1.2
      vertex -19.7056 -35.4405 -1.2
    endloop
  endfacet
  facet normal 0 0 -1
    outer loop
      vertex 20.5056 -36.0217 -1.2
      vertex -20.5056 -36.0217 -1.2
      vertex -20.0595 -35.7944 -1.2
    endloop
  endfacet
  facet normal 0 0 -1
    outer loop
      vertex -24 -37.5 -1.2
      vertex -20.5056 -36.0217 -1.2
      vertex 24 -37.5 -1.2
    endloop
  endfacet
  facet normal -0 0 -1
    outer loop
      vertex -22.5217 -34.9944 -1.2
      vertex -24 -37.5 -1.2
      vertex -22.6 -34.5 -1.2
    endloop
  endfacet
  facet normal -0 0 -1
    outer loop
      vertex -22.2944 -35.4405 -1.2
      vertex -24 -37.5 -1.2
      vertex -22.5217 -34.9944 -1.2
    endloop
  endfacet
  facet normal -0 0 -1
    outer loop
      vertex -21.9405 -35.7944 -1.2
      vertex -24 -37.5 -1.2
      vertex -22.2944 -35.4405 -1.2
    endloop
  endfacet
  facet normal -0 0 -1
    outer loop
      vertex -21.4944 -36.0217 -1.2
      vertex -24 -37.5 -1.2
      vertex -21.9405 -35.7944 -1.2
    endloop
  endfacet
  facet normal -0 0 -1
    outer loop
      vertex -21 -36.1 -1.2
      vertex -24 -37.5 -1.2
      vertex -21.4944 -36.0217 -1.2
    endloop
  endfacet
  facet normal 0 0 -1
    outer loop
      vertex -20.5056 -36.0217 -1.2
      vertex -24 -37.5 -1.2
      vertex -21 -36.1 -1.2
    endloop
  endfacet
  facet normal 0 0 -1
    outer loop
      vertex 24 -37.5 -1.2
      vertex 22.5217 -34.0056 -1.2
      vertex 24 37.5 -1.2
    endloop
  endfacet
  facet normal 0 0 -1
    outer loop
      vertex 22.4266 34.0365 -1.2
      vertex 24 37.5 -1.2
      vertex 22.5217 -34.0056 -1.2
    endloop
  endfacet
  facet normal 0 0 -1
    outer loop
      vertex 22.4266 34.9635 -1.2
      vertex 24 37.5 -1.2
      vertex 22.5 34.5 -1.2
    endloop
  endfacet
  facet normal 0 0 -1
    outer loop
      vertex 22.2135 35.3817 -1.2
      vertex 24 37.5 -1.2
      vertex 22.4266 34.9635 -1.2
    endloop
  endfacet
  facet normal 0 0 -1
    outer loop
      vertex 21.8817 35.7135 -1.2
      vertex 24 37.5 -1.2
      vertex 22.2135 35.3817 -1.2
    endloop
  endfacet
  facet normal 0 0 -1
    outer loop
      vertex 21.4635 35.9266 -1.2
      vertex 24 37.5 -1.2
      vertex 21.8817 35.7135 -1.2
    endloop
  endfacet
  facet normal 0 0 -1
    outer loop
      vertex 21 36 -1.2
      vertex 24 37.5 -1.2
      vertex 21.4635 35.9266 -1.2
    endloop
  endfacet
  facet normal 0 0 -1
    outer loop
      vertex 20.5365 35.9266 -1.2
      vertex 24 37.5 -1.2
      vertex 21 36 -1.2
    endloop
  endfacet
  facet normal 0 0 -1
    outer loop
      vertex -19.4783 -34.0056 -1.2
      vertex 19.4783 -34.0056 -1.2
      vertex 19.4 -34.5 -1.2
    endloop
  endfacet
  facet normal 0 0 -1
    outer loop
      vertex -19.4783 -34.0056 -1.2
      vertex 19.4 -34.5 -1.2
      vertex -19.4 -34.5 -1.2
    endloop
  endfacet
  facet normal 0 0 -1
    outer loop
      vertex -19.5734 34.0365 -1.2
      vertex 19.5734 34.0365 -1.2
      vertex 19.7865 33.6183 -1.2
    endloop
  endfacet
  facet normal 0 0 -1
    outer loop
      vertex 19.5734 34.0365 -1.2
      vertex -19.5 34.5 -1.2
      vertex 19.5 34.5 -1.2
    endloop
  endfacet
  facet normal 0 0 -1
    outer loop
      vertex 19.5 34.5 -1.2
      vertex -19.5 34.5 -1.2
      vertex 19.5734 34.9635 -1.2
    endloop
  endfacet
  facet normal 0 0 -1
    outer loop
      vertex -19.5734 34.9635 -1.2
      vertex 19.5734 34.9635 -1.2
      vertex -19.5 34.5 -1.2
    endloop
  endfacet
  facet normal 0 0 -1
    outer loop
      vertex 19.5734 34.9635 -1.2
      vertex -19.5734 34.9635 -1.2
      vertex 19.7865 35.3817 -1.2
    endloop
  endfacet
  facet normal 0 0 -1
    outer loop
      vertex -19.7865 35.3817 -1.2
      vertex 19.7865 35.3817 -1.2
      vertex -19.5734 34.9635 -1.2
    endloop
  endfacet
  facet normal 0 0 -1
    outer loop
      vertex 19.7865 35.3817 -1.2
      vertex -19.7865 35.3817 -1.2
      vertex 20.1183 35.7135 -1.2
    endloop
  endfacet
  facet normal 0 0 -1
    outer loop
      vertex -20.1183 35.7135 -1.2
      vertex 20.1183 35.7135 -1.2
      vertex -19.7865 35.3817 -1.2
    endloop
  endfacet
  facet normal 0 0 -1
    outer loop
      vertex 20.1183 35.7135 -1.2
      vertex -20.1183 35.7135 -1.2
      vertex 20.5365 35.9266 -1.2
    endloop
  endfacet
  facet normal 0 0 -1
    outer loop
      vertex -20.5365 35.9266 -1.2
      vertex 20.5365 35.9266 -1.2
      vertex -20.1183 35.7135 -1.2
    endloop
  endfacet
  facet normal 0 0 -1
    outer loop
      vertex 20.5365 35.9266 -1.2
      vertex -20.5365 35.9266 -1.2
      vertex 24 37.5 -1.2
    endloop
  endfacet
  facet normal 0 0 -1
    outer loop
      vertex -24 37.5 -1.2
      vertex -20.5365 35.9266 -1.2
      vertex -21 36 -1.2
    endloop
  endfacet
  facet normal 0 0 -1
    outer loop
      vertex -24 -37.5 -1.2
      vertex -22.5217 -34.0056 -1.2
      vertex -22.6 -34.5 -1.2
    endloop
  endfacet
  facet normal -0 0 -1
    outer loop
      vertex -22.5217 -34.0056 -1.2
      vertex -24 -37.5 -1.2
      vertex -24 37.5 -1.2
    endloop
  endfacet
  facet normal 0 0 -1
    outer loop
      vertex -20.5365 35.9266 -1.2
      vertex -24 37.5 -1.2
      vertex 24 37.5 -1.2
    endloop
  endfacet
  facet normal 0 0 -1
    outer loop
      vertex -21.4635 35.9266 -1.2
      vertex -24 37.5 -1.2
      vertex -21 36 -1.2
    endloop
  endfacet
  facet normal 0 0 -1
    outer loop
      vertex -21.8817 35.7135 -1.2
      vertex -24 37.5 -1.2
      vertex -21.4635 35.9266 -1.2
    endloop
  endfacet
  facet normal 0 0 -1
    outer loop
      vertex -22.2135 35.3817 -1.2
      vertex -24 37.5 -1.2
      vertex -21.8817 35.7135 -1.2
    endloop
  endfacet
  facet normal 0 0 -1
    outer loop
      vertex -22.4266 34.9635 -1.2
      vertex -24 37.5 -1.2
      vertex -22.2135 35.3817 -1.2
    endloop
  endfacet
  facet normal 0 0 -1
    outer loop
      vertex -22.5 34.5 -1.2
      vertex -24 37.5 -1.2
      vertex -22.4266 34.9635 -1.2
    endloop
  endfacet
  facet normal 0 0 -1
    outer loop
      vertex -22.4266 34.0365 -1.2
      vertex -24 37.5 -1.2
      vertex -22.5 34.5 -1.2
    endloop
  endfacet
  facet normal -1 0 0
    outer loop
      vertex -24 -37.5 -1.2
      vertex -24 37.5 0
      vertex -24 37.5 -1.2
    endloop
  endfacet
  facet normal -1 -0 0
    outer loop
      vertex -24 37.5 0
      vertex -24 -37.5 -1.2
      vertex -24 -37.5 0
    endloop
  endfacet
  facet normal 0 1 -0
    outer loop
      vertex 24 37.5 -1.2
      vertex -24 37.5 0
      vertex 24 37.5 0
    endloop
  endfacet
  facet normal 0 1 0
    outer loop
      vertex -24 37.5 0
      vertex 24 37.5 -1.2
      vertex -24 37.5 -1.2
    endloop
  endfacet
  facet normal 0 -1 0
    outer loop
      vertex -24 -37.5 -1.2
      vertex 24 -37.5 0
      vertex -24 -37.5 0
    endloop
  endfacet
  facet normal 0 -1 -0
    outer loop
      vertex 24 -37.5 0
      vertex -24 -37.5 -1.2
      vertex 24 -37.5 -1.2
    endloop
  endfacet
  facet normal -0.890992 -0.454018 0
    outer loop
      vertex 22.4266 34.9635 -1.2
      vertex 22.2135 35.3817 0
      vertex 22.2135 35.3817 -1.2
    endloop
  endfacet
  facet normal -0.890992 -0.454018 0
    outer loop
      vertex 22.2135 35.3817 0
      vertex 22.4266 34.9635 -1.2
      vertex 22.4266 34.9635 0
    endloop
  endfacet
  facet normal -0.987692 -0.156411 0
    outer loop
      vertex 22.5 34.5 -1.2
      vertex 22.4266 34.9635 0
      vertex 22.4266 34.9635 -1.2
    endloop
  endfacet
  facet normal -0.987692 -0.156411 0
    outer loop
      vertex 22.4266 34.9635 0
      vertex 22.5 34.5 -1.2
      vertex 22.5 34.5 0
    endloop
  endfacet
  facet normal -0.707107 -0.707107 0
    outer loop
      vertex 22.2135 35.3817 -1.2
      vertex 21.8817 35.7135 0
      vertex 21.8817 35.7135 -1.2
    endloop
  endfacet
  facet normal -0.707107 -0.707107 0
    outer loop
      vertex 21.8817 35.7135 0
      vertex 22.2135 35.3817 -1.2
      vertex 22.2135 35.3817 0
    endloop
  endfacet
  facet normal 0.156411 -0.987692 0
    outer loop
      vertex 20.5365 35.9266 -1.2
      vertex 21 36 0
      vertex 20.5365 35.9266 0
    endloop
  endfacet
  facet normal 0.156411 -0.987692 0
    outer loop
      vertex 21 36 0
      vertex 20.5365 35.9266 -1.2
      vertex 21 36 -1.2
    endloop
  endfacet
  facet normal 0.707107 -0.707107 0
    outer loop
      vertex 19.7865 35.3817 0
      vertex 20.1183 35.7135 -1.2
      vertex 20.1183 35.7135 0
    endloop
  endfacet
  facet normal 0.707107 -0.707107 0
    outer loop
      vertex 20.1183 35.7135 -1.2
      vertex 19.7865 35.3817 0
      vertex 19.7865 35.3817 -1.2
    endloop
  endfacet
  facet normal -0.454018 -0.890992 0
    outer loop
      vertex 21.4635 35.9266 -1.2
      vertex 21.8817 35.7135 0
      vertex 21.4635 35.9266 0
    endloop
  endfacet
  facet normal -0.454018 -0.890992 -0
    outer loop
      vertex 21.8817 35.7135 0
      vertex 21.4635 35.9266 -1.2
      vertex 21.8817 35.7135 -1.2
    endloop
  endfacet
  facet normal -0.890992 0.454018 0
    outer loop
      vertex 22.2135 33.6183 -1.2
      vertex 22.4266 34.0365 0
      vertex 22.4266 34.0365 -1.2
    endloop
  endfacet
  facet normal -0.890992 0.454018 0
    outer loop
      vertex 22.4266 34.0365 0
      vertex 22.2135 33.6183 -1.2
      vertex 22.2135 33.6183 0
    endloop
  endfacet
  facet normal -0.156411 -0.987692 0
    outer loop
      vertex 21 36 -1.2
      vertex 21.4635 35.9266 0
      vertex 21 36 0
    endloop
  endfacet
  facet normal -0.156411 -0.987692 -0
    outer loop
      vertex 21.4635 35.9266 0
      vertex 21 36 -1.2
      vertex 21.4635 35.9266 -1.2
    endloop
  endfacet
  facet normal 0.454018 0.890992 -0
    outer loop
      vertex 20.5365 33.0734 -1.2
      vertex 20.1183 33.2865 0
      vertex 20.5365 33.0734 0
    endloop
  endfacet
  facet normal 0.454018 0.890992 0
    outer loop
      vertex 20.1183 33.2865 0
      vertex 20.5365 33.0734 -1.2
      vertex 20.1183 33.2865 -1.2
    endloop
  endfacet
  facet normal -0.454018 0.890992 0
    outer loop
      vertex 21.8817 33.2865 -1.2
      vertex 21.4635 33.0734 0
      vertex 21.8817 33.2865 0
    endloop
  endfacet
  facet normal -0.454018 0.890992 0
    outer loop
      vertex 21.4635 33.0734 0
      vertex 21.8817 33.2865 -1.2
      vertex 21.4635 33.0734 -1.2
    endloop
  endfacet
  facet normal -0.987692 0.156411 0
    outer loop
      vertex 22.4266 34.0365 -1.2
      vertex 22.5 34.5 0
      vertex 22.5 34.5 -1.2
    endloop
  endfacet
  facet normal -0.987692 0.156411 0
    outer loop
      vertex 22.5 34.5 0
      vertex 22.4266 34.0365 -1.2
      vertex 22.4266 34.0365 0
    endloop
  endfacet
  facet normal -0.707107 0.707107 0
    outer loop
      vertex 22.2135 33.6183 -1.2
      vertex 21.8817 33.2865 0
      vertex 22.2135 33.6183 0
    endloop
  endfacet
  facet normal -0.707107 0.707107 0
    outer loop
      vertex 21.8817 33.2865 0
      vertex 22.2135 33.6183 -1.2
      vertex 21.8817 33.2865 -1.2
    endloop
  endfacet
  facet normal 0.890992 0.454018 0
    outer loop
      vertex 19.7865 33.6183 0
      vertex 19.5734 34.0365 -1.2
      vertex 19.5734 34.0365 0
    endloop
  endfacet
  facet normal 0.890992 0.454018 0
    outer loop
      vertex 19.5734 34.0365 -1.2
      vertex 19.7865 33.6183 0
      vertex 19.7865 33.6183 -1.2
    endloop
  endfacet
  facet normal 0.454018 -0.890992 0
    outer loop
      vertex 20.1183 35.7135 -1.2
      vertex 20.5365 35.9266 0
      vertex 20.1183 35.7135 0
    endloop
  endfacet
  facet normal 0.454018 -0.890992 0
    outer loop
      vertex 20.5365 35.9266 0
      vertex 20.1183 35.7135 -1.2
      vertex 20.5365 35.9266 -1.2
    endloop
  endfacet
  facet normal 0.890992 -0.454018 0
    outer loop
      vertex 19.5734 34.9635 0
      vertex 19.7865 35.3817 -1.2
      vertex 19.7865 35.3817 0
    endloop
  endfacet
  facet normal 0.890992 -0.454018 0
    outer loop
      vertex 19.7865 35.3817 -1.2
      vertex 19.5734 34.9635 0
      vertex 19.5734 34.9635 -1.2
    endloop
  endfacet
  facet normal 0.156411 0.987692 -0
    outer loop
      vertex 21 33 -1.2
      vertex 20.5365 33.0734 0
      vertex 21 33 0
    endloop
  endfacet
  facet normal 0.156411 0.987692 0
    outer loop
      vertex 20.5365 33.0734 0
      vertex 21 33 -1.2
      vertex 20.5365 33.0734 -1.2
    endloop
  endfacet
  facet normal 0.987692 0.156411 0
    outer loop
      vertex 19.5734 34.0365 0
      vertex 19.5 34.5 -1.2
      vertex 19.5 34.5 0
    endloop
  endfacet
  facet normal 0.987692 0.156411 0
    outer loop
      vertex 19.5 34.5 -1.2
      vertex 19.5734 34.0365 0
      vertex 19.5734 34.0365 -1.2
    endloop
  endfacet
  facet normal 0.987692 -0.156411 0
    outer loop
      vertex 19.5 34.5 0
      vertex 19.5734 34.9635 -1.2
      vertex 19.5734 34.9635 0
    endloop
  endfacet
  facet normal 0.987692 -0.156411 0
    outer loop
      vertex 19.5734 34.9635 -1.2
      vertex 19.5 34.5 0
      vertex 19.5 34.5 -1.2
    endloop
  endfacet
  facet normal 0.707107 0.707107 -0
    outer loop
      vertex 20.1183 33.2865 -1.2
      vertex 19.7865 33.6183 0
      vertex 20.1183 33.2865 0
    endloop
  endfacet
  facet normal 0.707107 0.707107 0
    outer loop
      vertex 19.7865 33.6183 0
      vertex 20.1183 33.2865 -1.2
      vertex 19.7865 33.6183 -1.2
    endloop
  endfacet
  facet normal -0.156411 0.987692 0
    outer loop
      vertex 21.4635 33.0734 -1.2
      vertex 21 33 0
      vertex 21.4635 33.0734 0
    endloop
  endfacet
  facet normal -0.156411 0.987692 0
    outer loop
      vertex 21 33 0
      vertex 21.4635 33.0734 -1.2
      vertex 21 33 -1.2
    endloop
  endfacet
  facet normal 0.454018 0.890992 -0
    outer loop
      vertex -21.4635 33.0734 -1.2
      vertex -21.8817 33.2865 0
      vertex -21.4635 33.0734 0
    endloop
  endfacet
  facet normal 0.454018 0.890992 0
    outer loop
      vertex -21.8817 33.2865 0
      vertex -21.4635 33.0734 -1.2
      vertex -21.8817 33.2865 -1.2
    endloop
  endfacet
  facet normal -0.890992 -0.454018 0
    outer loop
      vertex -19.5734 34.9635 -1.2
      vertex -19.7865 35.3817 0
      vertex -19.7865 35.3817 -1.2
    endloop
  endfacet
  facet normal -0.890992 -0.454018 0
    outer loop
      vertex -19.7865 35.3817 0
      vertex -19.5734 34.9635 -1.2
      vertex -19.5734 34.9635 0
    endloop
  endfacet
  facet normal -0.987692 -0.156411 0
    outer loop
      vertex -19.5 34.5 -1.2
      vertex -19.5734 34.9635 0
      vertex -19.5734 34.9635 -1.2
    endloop
  endfacet
  facet normal -0.987692 -0.156411 0
    outer loop
      vertex -19.5734 34.9635 0
      vertex -19.5 34.5 -1.2
      vertex -19.5 34.5 0
    endloop
  endfacet
  facet normal -0.707107 -0.707107 0
    outer loop
      vertex -19.7865 35.3817 -1.2
      vertex -20.1183 35.7135 0
      vertex -20.1183 35.7135 -1.2
    endloop
  endfacet
  facet normal -0.707107 -0.707107 0
    outer loop
      vertex -20.1183 35.7135 0
      vertex -19.7865 35.3817 -1.2
      vertex -19.7865 35.3817 0
    endloop
  endfacet
  facet normal -0.707107 0.707107 0
    outer loop
      vertex -19.7865 33.6183 -1.2
      vertex -20.1183 33.2865 0
      vertex -19.7865 33.6183 0
    endloop
  endfacet
  facet normal -0.707107 0.707107 0
    outer loop
      vertex -20.1183 33.2865 0
      vertex -19.7865 33.6183 -1.2
      vertex -20.1183 33.2865 -1.2
    endloop
  endfacet
  facet normal -0.454018 0.890992 0
    outer loop
      vertex -20.1183 33.2865 -1.2
      vertex -20.5365 33.0734 0
      vertex -20.1183 33.2865 0
    endloop
  endfacet
  facet normal -0.454018 0.890992 0
    outer loop
      vertex -20.5365 33.0734 0
      vertex -20.1183 33.2865 -1.2
      vertex -20.5365 33.0734 -1.2
    endloop
  endfacet
  facet normal 0.454018 -0.890992 0
    outer loop
      vertex -21.8817 35.7135 -1.2
      vertex -21.4635 35.9266 0
      vertex -21.8817 35.7135 0
    endloop
  endfacet
  facet normal 0.454018 -0.890992 0
    outer loop
      vertex -21.4635 35.9266 0
      vertex -21.8817 35.7135 -1.2
      vertex -21.4635 35.9266 -1.2
    endloop
  endfacet
  facet normal -0.156411 0.987692 0
    outer loop
      vertex -20.5365 33.0734 -1.2
      vertex -21 33 0
      vertex -20.5365 33.0734 0
    endloop
  endfacet
  facet normal -0.156411 0.987692 0
    outer loop
      vertex -21 33 0
      vertex -20.5365 33.0734 -1.2
      vertex -21 33 -1.2
    endloop
  endfacet
  facet normal 0.156411 0.987692 -0
    outer loop
      vertex -21 33 -1.2
      vertex -21.4635 33.0734 0
      vertex -21 33 0
    endloop
  endfacet
  facet normal 0.156411 0.987692 0
    outer loop
      vertex -21.4635 33.0734 0
      vertex -21 33 -1.2
      vertex -21.4635 33.0734 -1.2
    endloop
  endfacet
  facet normal 0.707107 -0.707107 0
    outer loop
      vertex -22.2135 35.3817 0
      vertex -21.8817 35.7135 -1.2
      vertex -21.8817 35.7135 0
    endloop
  endfacet
  facet normal 0.707107 -0.707107 0
    outer loop
      vertex -21.8817 35.7135 -1.2
      vertex -22.2135 35.3817 0
      vertex -22.2135 35.3817 -1.2
    endloop
  endfacet
  facet normal 0.987692 0.156411 0
    outer loop
      vertex -22.4266 34.0365 0
      vertex -22.5 34.5 -1.2
      vertex -22.5 34.5 0
    endloop
  endfacet
  facet normal 0.987692 0.156411 0
    outer loop
      vertex -22.5 34.5 -1.2
      vertex -22.4266 34.0365 0
      vertex -22.4266 34.0365 -1.2
    endloop
  endfacet
  facet normal -0.987692 0.156411 0
    outer loop
      vertex -19.5734 34.0365 -1.2
      vertex -19.5 34.5 0
      vertex -19.5 34.5 -1.2
    endloop
  endfacet
  facet normal -0.987692 0.156411 0
    outer loop
      vertex -19.5 34.5 0
      vertex -19.5734 34.0365 -1.2
      vertex -19.5734 34.0365 0
    endloop
  endfacet
  facet normal -0.454018 -0.890992 0
    outer loop
      vertex -20.5365 35.9266 -1.2
      vertex -20.1183 35.7135 0
      vertex -20.5365 35.9266 0
    endloop
  endfacet
  facet normal -0.454018 -0.890992 -0
    outer loop
      vertex -20.1183 35.7135 0
      vertex -20.5365 35.9266 -1.2
      vertex -20.1183 35.7135 -1.2
    endloop
  endfacet
  facet normal 0.890992 0.454018 0
    outer loop
      vertex -22.2135 33.6183 0
      vertex -22.4266 34.0365 -1.2
      vertex -22.4266 34.0365 0
    endloop
  endfacet
  facet normal 0.890992 0.454018 0
    outer loop
      vertex -22.4266 34.0365 -1.2
      vertex -22.2135 33.6183 0
      vertex -22.2135 33.6183 -1.2
    endloop
  endfacet
  facet normal -0.890992 0.454018 0
    outer loop
      vertex -19.7865 33.6183 -1.2
      vertex -19.5734 34.0365 0
      vertex -19.5734 34.0365 -1.2
    endloop
  endfacet
  facet normal -0.890992 0.454018 0
    outer loop
      vertex -19.5734 34.0365 0
      vertex -19.7865 33.6183 -1.2
      vertex -19.7865 33.6183 0
    endloop
  endfacet
  facet normal -0.156411 -0.987692 0
    outer loop
      vertex -21 36 -1.2
      vertex -20.5365 35.9266 0
      vertex -21 36 0
    endloop
  endfacet
  facet normal -0.156411 -0.987692 -0
    outer loop
      vertex -20.5365 35.9266 0
      vertex -21 36 -1.2
      vertex -20.5365 35.9266 -1.2
    endloop
  endfacet
  facet normal 0.156411 -0.987692 0
    outer loop
      vertex -21.4635 35.9266 -1.2
      vertex -21 36 0
      vertex -21.4635 35.9266 0
    endloop
  endfacet
  facet normal 0.156411 -0.987692 0
    outer loop
      vertex -21 36 0
      vertex -21.4635 35.9266 -1.2
      vertex -21 36 -1.2
    endloop
  endfacet
  facet normal 0.890992 -0.454018 0
    outer loop
      vertex -22.4266 34.9635 0
      vertex -22.2135 35.3817 -1.2
      vertex -22.2135 35.3817 0
    endloop
  endfacet
  facet normal 0.890992 -0.454018 0
    outer loop
      vertex -22.2135 35.3817 -1.2
      vertex -22.4266 34.9635 0
      vertex -22.4266 34.9635 -1.2
    endloop
  endfacet
  facet normal 0.987692 -0.156411 0
    outer loop
      vertex -22.5 34.5 0
      vertex -22.4266 34.9635 -1.2
      vertex -22.4266 34.9635 0
    endloop
  endfacet
  facet normal 0.987692 -0.156411 0
    outer loop
      vertex -22.4266 34.9635 -1.2
      vertex -22.5 34.5 0
      vertex -22.5 34.5 -1.2
    endloop
  endfacet
  facet normal 0.707107 0.707107 -0
    outer loop
      vertex -21.8817 33.2865 -1.2
      vertex -22.2135 33.6183 0
      vertex -21.8817 33.2865 0
    endloop
  endfacet
  facet normal 0.707107 0.707107 0
    outer loop
      vertex -22.2135 33.6183 0
      vertex -21.8817 33.2865 -1.2
      vertex -22.2135 33.6183 -1.2
    endloop
  endfacet
  facet normal -0.891006 -0.453992 0
    outer loop
      vertex -19.4783 -34.0056 -1.2
      vertex -19.7056 -33.5595 0
      vertex -19.7056 -33.5595 -1.2
    endloop
  endfacet
  facet normal -0.891006 -0.453992 0
    outer loop
      vertex -19.7056 -33.5595 0
      vertex -19.4783 -34.0056 -1.2
      vertex -19.4783 -34.0056 0
    endloop
  endfacet
  facet normal -0.98769 -0.156424 0
    outer loop
      vertex -19.4 -34.5 -1.2
      vertex -19.4783 -34.0056 0
      vertex -19.4783 -34.0056 -1.2
    endloop
  endfacet
  facet normal -0.98769 -0.156424 0
    outer loop
      vertex -19.4783 -34.0056 0
      vertex -19.4 -34.5 -1.2
      vertex -19.4 -34.5 0
    endloop
  endfacet
  facet normal -0.707107 -0.707107 0
    outer loop
      vertex -20.0595 -33.2056 -1.2
      vertex -19.7056 -33.5595 0
      vertex -20.0595 -33.2056 0
    endloop
  endfacet
  facet normal -0.707107 -0.707107 -0
    outer loop
      vertex -19.7056 -33.5595 0
      vertex -20.0595 -33.2056 -1.2
      vertex -19.7056 -33.5595 -1.2
    endloop
  endfacet
  facet normal 0.707107 0.707107 0
    outer loop
      vertex -21.9405 -35.7944 0
      vertex -22.2944 -35.4405 -1.2
      vertex -22.2944 -35.4405 0
    endloop
  endfacet
  facet normal 0.707107 0.707107 0
    outer loop
      vertex -22.2944 -35.4405 -1.2
      vertex -21.9405 -35.7944 0
      vertex -21.9405 -35.7944 -1.2
    endloop
  endfacet
  facet normal -0.707107 0.707107 0
    outer loop
      vertex -19.7056 -35.4405 -1.2
      vertex -20.0595 -35.7944 0
      vertex -19.7056 -35.4405 0
    endloop
  endfacet
  facet normal -0.707107 0.707107 0
    outer loop
      vertex -20.0595 -35.7944 0
      vertex -19.7056 -35.4405 -1.2
      vertex -20.0595 -35.7944 -1.2
    endloop
  endfacet
  facet normal -0.453992 0.891006 0
    outer loop
      vertex -20.0595 -35.7944 -1.2
      vertex -20.5056 -36.0217 0
      vertex -20.0595 -35.7944 0
    endloop
  endfacet
  facet normal -0.453992 0.891006 0
    outer loop
      vertex -20.5056 -36.0217 0
      vertex -20.0595 -35.7944 -1.2
      vertex -20.5056 -36.0217 -1.2
    endloop
  endfacet
  facet normal 0.453992 0.891006 -0
    outer loop
      vertex -21.4944 -36.0217 -1.2
      vertex -21.9405 -35.7944 0
      vertex -21.4944 -36.0217 0
    endloop
  endfacet
  facet normal 0.453992 0.891006 0
    outer loop
      vertex -21.9405 -35.7944 0
      vertex -21.4944 -36.0217 -1.2
      vertex -21.9405 -35.7944 -1.2
    endloop
  endfacet
  facet normal 0.98769 -0.156424 0
    outer loop
      vertex -22.6 -34.5 0
      vertex -22.5217 -34.0056 -1.2
      vertex -22.5217 -34.0056 0
    endloop
  endfacet
  facet normal 0.98769 -0.156424 0
    outer loop
      vertex -22.5217 -34.0056 -1.2
      vertex -22.6 -34.5 0
      vertex -22.6 -34.5 -1.2
    endloop
  endfacet
  facet normal 0.707107 -0.707107 0
    outer loop
      vertex -22.2944 -33.5595 0
      vertex -21.9405 -33.2056 -1.2
      vertex -21.9405 -33.2056 0
    endloop
  endfacet
  facet normal 0.707107 -0.707107 0
    outer loop
      vertex -21.9405 -33.2056 -1.2
      vertex -22.2944 -33.5595 0
      vertex -22.2944 -33.5595 -1.2
    endloop
  endfacet
  facet normal 0.156424 0.98769 -0
    outer loop
      vertex -21 -36.1 -1.2
      vertex -21.4944 -36.0217 0
      vertex -21 -36.1 0
    endloop
  endfacet
  facet normal 0.156424 0.98769 0
    outer loop
      vertex -21.4944 -36.0217 0
      vertex -21 -36.1 -1.2
      vertex -21.4944 -36.0217 -1.2
    endloop
  endfacet
  facet normal 0.891006 -0.453992 0
    outer loop
      vertex -22.5217 -34.0056 0
      vertex -22.2944 -33.5595 -1.2
      vertex -22.2944 -33.5595 0
    endloop
  endfacet
  facet normal 0.891006 -0.453992 0
    outer loop
      vertex -22.2944 -33.5595 -1.2
      vertex -22.5217 -34.0056 0
      vertex -22.5217 -34.0056 -1.2
    endloop
  endfacet
  facet normal 0.891006 0.453992 0
    outer loop
      vertex -22.2944 -35.4405 0
      vertex -22.5217 -34.9944 -1.2
      vertex -22.5217 -34.9944 0
    endloop
  endfacet
  facet normal 0.891006 0.453992 0
    outer loop
      vertex -22.5217 -34.9944 -1.2
      vertex -22.2944 -35.4405 0
      vertex -22.2944 -35.4405 -1.2
    endloop
  endfacet
  facet normal -0.453992 -0.891006 0
    outer loop
      vertex -20.5056 -32.9783 -1.2
      vertex -20.0595 -33.2056 0
      vertex -20.5056 -32.9783 0
    endloop
  endfacet
  facet normal -0.453992 -0.891006 -0
    outer loop
      vertex -20.0595 -33.2056 0
      vertex -20.5056 -32.9783 -1.2
      vertex -20.0595 -33.2056 -1.2
    endloop
  endfacet
  facet normal -0.98769 0.156424 0
    outer loop
      vertex -19.4783 -34.9944 -1.2
      vertex -19.4 -34.5 0
      vertex -19.4 -34.5 -1.2
    endloop
  endfacet
  facet normal -0.98769 0.156424 0
    outer loop
      vertex -19.4 -34.5 0
      vertex -19.4783 -34.9944 -1.2
      vertex -19.4783 -34.9944 0
    endloop
  endfacet
  facet normal 0.156424 -0.98769 0
    outer loop
      vertex -21.4944 -32.9783 -1.2
      vertex -21 -32.9 0
      vertex -21.4944 -32.9783 0
    endloop
  endfacet
  facet normal 0.156424 -0.98769 0
    outer loop
      vertex -21 -32.9 0
      vertex -21.4944 -32.9783 -1.2
      vertex -21 -32.9 -1.2
    endloop
  endfacet
  facet normal -0.891006 0.453992 0
    outer loop
      vertex -19.7056 -35.4405 -1.2
      vertex -19.4783 -34.9944 0
      vertex -19.4783 -34.9944 -1.2
    endloop
  endfacet
  facet normal -0.891006 0.453992 0
    outer loop
      vertex -19.4783 -34.9944 0
      vertex -19.7056 -35.4405 -1.2
      vertex -19.7056 -35.4405 0
    endloop
  endfacet
  facet normal 0.453992 -0.891006 0
    outer loop
      vertex -21.9405 -33.2056 -1.2
      vertex -21.4944 -32.9783 0
      vertex -21.9405 -33.2056 0
    endloop
  endfacet
  facet normal 0.453992 -0.891006 0
    outer loop
      vertex -21.4944 -32.9783 0
      vertex -21.9405 -33.2056 -1.2
      vertex -21.4944 -32.9783 -1.2
    endloop
  endfacet
  facet normal -0.156424 -0.98769 0
    outer loop
      vertex -21 -32.9 -1.2
      vertex -20.5056 -32.9783 0
      vertex -21 -32.9 0
    endloop
  endfacet
  facet normal -0.156424 -0.98769 -0
    outer loop
      vertex -20.5056 -32.9783 0
      vertex -21 -32.9 -1.2
      vertex -20.5056 -32.9783 -1.2
    endloop
  endfacet
  facet normal -0.156424 0.98769 0
    outer loop
      vertex -20.5056 -36.0217 -1.2
      vertex -21 -36.1 0
      vertex -20.5056 -36.0217 0
    endloop
  endfacet
  facet normal -0.156424 0.98769 0
    outer loop
      vertex -21 -36.1 0
      vertex -20.5056 -36.0217 -1.2
      vertex -21 -36.1 -1.2
    endloop
  endfacet
  facet normal 0.98769 0.156424 0
    outer loop
      vertex -22.5217 -34.9944 0
      vertex -22.6 -34.5 -1.2
      vertex -22.6 -34.5 0
    endloop
  endfacet
  facet normal 0.98769 0.156424 0
    outer loop
      vertex -22.6 -34.5 -1.2
      vertex -22.5217 -34.9944 0
      vertex -22.5217 -34.9944 -1.2
    endloop
  endfacet
  facet normal -0.891006 -0.453992 0
    outer loop
      vertex 22.5217 -34.0056 -1.2
      vertex 22.2944 -33.5595 0
      vertex 22.2944 -33.5595 -1.2
    endloop
  endfacet
  facet normal -0.891006 -0.453992 0
    outer loop
      vertex 22.2944 -33.5595 0
      vertex 22.5217 -34.0056 -1.2
      vertex 22.5217 -34.0056 0
    endloop
  endfacet
  facet normal -0.98769 -0.156424 0
    outer loop
      vertex 22.6 -34.5 -1.2
      vertex 22.5217 -34.0056 0
      vertex 22.5217 -34.0056 -1.2
    endloop
  endfacet
  facet normal -0.98769 -0.156424 0
    outer loop
      vertex 22.5217 -34.0056 0
      vertex 22.6 -34.5 -1.2
      vertex 22.6 -34.5 0
    endloop
  endfacet
  facet normal -0.707107 -0.707107 0
    outer loop
      vertex 22.2944 -33.5595 -1.2
      vertex 21.9405 -33.2056 0
      vertex 21.9405 -33.2056 -1.2
    endloop
  endfacet
  facet normal -0.707107 -0.707107 0
    outer loop
      vertex 21.9405 -33.2056 0
      vertex 22.2944 -33.5595 -1.2
      vertex 22.2944 -33.5595 0
    endloop
  endfacet
  facet normal -0.707107 0.707107 0
    outer loop
      vertex 21.9405 -35.7944 -1.2
      vertex 22.2944 -35.4405 0
      vertex 22.2944 -35.4405 -1.2
    endloop
  endfacet
  facet normal -0.707107 0.707107 0
    outer loop
      vertex 22.2944 -35.4405 0
      vertex 21.9405 -35.7944 -1.2
      vertex 21.9405 -35.7944 0
    endloop
  endfacet
  facet normal -0.453992 0.891006 0
    outer loop
      vertex 21.9405 -35.7944 -1.2
      vertex 21.4944 -36.0217 0
      vertex 21.9405 -35.7944 0
    endloop
  endfacet
  facet normal -0.453992 0.891006 0
    outer loop
      vertex 21.4944 -36.0217 0
      vertex 21.9405 -35.7944 -1.2
      vertex 21.4944 -36.0217 -1.2
    endloop
  endfacet
  facet normal -0.98769 0.156424 0
    outer loop
      vertex 22.5217 -34.9944 -1.2
      vertex 22.6 -34.5 0
      vertex 22.6 -34.5 -1.2
    endloop
  endfacet
  facet normal -0.98769 0.156424 0
    outer loop
      vertex 22.6 -34.5 0
      vertex 22.5217 -34.9944 -1.2
      vertex 22.5217 -34.9944 0
    endloop
  endfacet
  facet normal 0.707107 -0.707107 0
    outer loop
      vertex 19.7056 -33.5595 -1.2
      vertex 20.0595 -33.2056 0
      vertex 19.7056 -33.5595 0
    endloop
  endfacet
  facet normal 0.707107 -0.707107 0
    outer loop
      vertex 20.0595 -33.2056 0
      vertex 19.7056 -33.5595 -1.2
      vertex 20.0595 -33.2056 -1.2
    endloop
  endfacet
  facet normal 0.156424 0.98769 -0
    outer loop
      vertex 21 -36.1 -1.2
      vertex 20.5056 -36.0217 0
      vertex 21 -36.1 0
    endloop
  endfacet
  facet normal 0.156424 0.98769 0
    outer loop
      vertex 20.5056 -36.0217 0
      vertex 21 -36.1 -1.2
      vertex 20.5056 -36.0217 -1.2
    endloop
  endfacet
  facet normal 0.453992 -0.891006 0
    outer loop
      vertex 20.0595 -33.2056 -1.2
      vertex 20.5056 -32.9783 0
      vertex 20.0595 -33.2056 0
    endloop
  endfacet
  facet normal 0.453992 -0.891006 0
    outer loop
      vertex 20.5056 -32.9783 0
      vertex 20.0595 -33.2056 -1.2
      vertex 20.5056 -32.9783 -1.2
    endloop
  endfacet
  facet normal -0.891006 0.453992 0
    outer loop
      vertex 22.2944 -35.4405 -1.2
      vertex 22.5217 -34.9944 0
      vertex 22.5217 -34.9944 -1.2
    endloop
  endfacet
  facet normal -0.891006 0.453992 0
    outer loop
      vertex 22.5217 -34.9944 0
      vertex 22.2944 -35.4405 -1.2
      vertex 22.2944 -35.4405 0
    endloop
  endfacet
  facet normal 0.98769 -0.156424 0
    outer loop
      vertex 19.4 -34.5 0
      vertex 19.4783 -34.0056 -1.2
      vertex 19.4783 -34.0056 0
    endloop
  endfacet
  facet normal 0.98769 -0.156424 0
    outer loop
      vertex 19.4783 -34.0056 -1.2
      vertex 19.4 -34.5 0
      vertex 19.4 -34.5 -1.2
    endloop
  endfacet
  facet normal -0.453992 -0.891006 0
    outer loop
      vertex 21.4944 -32.9783 -1.2
      vertex 21.9405 -33.2056 0
      vertex 21.4944 -32.9783 0
    endloop
  endfacet
  facet normal -0.453992 -0.891006 -0
    outer loop
      vertex 21.9405 -33.2056 0
      vertex 21.4944 -32.9783 -1.2
      vertex 21.9405 -33.2056 -1.2
    endloop
  endfacet
  facet normal 0.156424 -0.98769 0
    outer loop
      vertex 20.5056 -32.9783 -1.2
      vertex 21 -32.9 0
      vertex 20.5056 -32.9783 0
    endloop
  endfacet
  facet normal 0.156424 -0.98769 0
    outer loop
      vertex 21 -32.9 0
      vertex 20.5056 -32.9783 -1.2
      vertex 21 -32.9 -1.2
    endloop
  endfacet
  facet normal -0.156424 -0.98769 0
    outer loop
      vertex 21 -32.9 -1.2
      vertex 21.4944 -32.9783 0
      vertex 21 -32.9 0
    endloop
  endfacet
  facet normal -0.156424 -0.98769 -0
    outer loop
      vertex 21.4944 -32.9783 0
      vertex 21 -32.9 -1.2
      vertex 21.4944 -32.9783 -1.2
    endloop
  endfacet
  facet normal 0.98769 0.156424 0
    outer loop
      vertex 19.4783 -34.9944 0
      vertex 19.4 -34.5 -1.2
      vertex 19.4 -34.5 0
    endloop
  endfacet
  facet normal 0.98769 0.156424 0
    outer loop
      vertex 19.4 -34.5 -1.2
      vertex 19.4783 -34.9944 0
      vertex 19.4783 -34.9944 -1.2
    endloop
  endfacet
  facet normal 0.891006 -0.453992 0
    outer loop
      vertex 19.4783 -34.0056 0
      vertex 19.7056 -33.5595 -1.2
      vertex 19.7056 -33.5595 0
    endloop
  endfacet
  facet normal 0.891006 -0.453992 0
    outer loop
      vertex 19.7056 -33.5595 -1.2
      vertex 19.4783 -34.0056 0
      vertex 19.4783 -34.0056 -1.2
    endloop
  endfacet
  facet normal -0.156424 0.98769 0
    outer loop
      vertex 21.4944 -36.0217 -1.2
      vertex 21 -36.1 0
      vertex 21.4944 -36.0217 0
    endloop
  endfacet
  facet normal -0.156424 0.98769 0
    outer loop
      vertex 21 -36.1 0
      vertex 21.4944 -36.0217 -1.2
      vertex 21 -36.1 -1.2
    endloop
  endfacet
  facet normal 0.891006 0.453992 0
    outer loop
      vertex 19.7056 -35.4405 0
      vertex 19.4783 -34.9944 -1.2
      vertex 19.4783 -34.9944 0
    endloop
  endfacet
  facet normal 0.891006 0.453992 0
    outer loop
      vertex 19.4783 -34.9944 -1.2
      vertex 19.7056 -35.4405 0
      vertex 19.7056 -35.4405 -1.2
    endloop
  endfacet
  facet normal 0.707107 0.707107 -0
    outer loop
      vertex 20.0595 -35.7944 -1.2
      vertex 19.7056 -35.4405 0
      vertex 20.0595 -35.7944 0
    endloop
  endfacet
  facet normal 0.707107 0.707107 0
    outer loop
      vertex 19.7056 -35.4405 0
      vertex 20.0595 -35.7944 -1.2
      vertex 19.7056 -35.4405 -1.2
    endloop
  endfacet
  facet normal 0.453992 0.891006 -0
    outer loop
      vertex 20.5056 -36.0217 -1.2
      vertex 20.0595 -35.7944 0
      vertex 20.5056 -36.0217 0
    endloop
  endfacet
  facet normal 0.453992 0.891006 0
    outer loop
      vertex 20.0595 -35.7944 0
      vertex 20.5056 -36.0217 -1.2
      vertex 20.0595 -35.7944 -1.2
    endloop
  endfacet
endsolid OpenSCAD_Model
