solid OpenSCAD_Model
  facet normal -1 0 0
    outer loop
      vertex -2.7 -7.6 -0.79
      vertex -2.7 -4.6 0
      vertex -2.7 -4.6 -0.79
    endloop
  endfacet
  facet normal -1 -0 0
    outer loop
      vertex -2.7 -4.6 0
      vertex -2.7 -7.6 -0.79
      vertex -2.7 -7.6 0
    endloop
  endfacet
  facet normal -0 0 1
    outer loop
      vertex -5.7 -4.6 -0.79
      vertex -2.7 -7.6 -0.79
      vertex -2.7 -4.6 -0.79
    endloop
  endfacet
  facet normal 0 0 1
    outer loop
      vertex -2.7 -7.6 -0.79
      vertex -5.7 -4.6 -0.79
      vertex -5.7 -7.6 -0.79
    endloop
  endfacet
  facet normal 1 -0 0
    outer loop
      vertex -5.7 -7.6 0
      vertex -5.7 -4.6 -0.79
      vertex -5.7 -4.6 0
    endloop
  endfacet
  facet normal 1 0 0
    outer loop
      vertex -5.7 -4.6 -0.79
      vertex -5.7 -7.6 0
      vertex -5.7 -7.6 -0.79
    endloop
  endfacet
  facet normal 0 -1 0
    outer loop
      vertex -5.7 -4.6 -0.79
      vertex -2.7 -4.6 0
      vertex -5.7 -4.6 0
    endloop
  endfacet
  facet normal 0 -1 -0
    outer loop
      vertex -2.7 -4.6 0
      vertex -5.7 -4.6 -0.79
      vertex -2.7 -4.6 -0.79
    endloop
  endfacet
  facet normal 0 1 -0
    outer loop
      vertex -2.7 -7.6 -0.79
      vertex -5.7 -7.6 0
      vertex -2.7 -7.6 0
    endloop
  endfacet
  facet normal 0 1 0
    outer loop
      vertex -5.7 -7.6 0
      vertex -2.7 -7.6 -0.79
      vertex -5.7 -7.6 -0.79
    endloop
  endfacet
  facet normal -1 0 0
    outer loop
      vertex -2.7 -3.8 -0.79
      vertex -2.7 -0.800001 0
      vertex -2.7 -0.800001 -0.79
    endloop
  endfacet
  facet normal -1 -0 0
    outer loop
      vertex -2.7 -0.800001 0
      vertex -2.7 -3.8 -0.79
      vertex -2.7 -3.8 0
    endloop
  endfacet
  facet normal -0 0 1
    outer loop
      vertex -5.7 -0.800001 -0.79
      vertex -2.7 -3.8 -0.79
      vertex -2.7 -0.800001 -0.79
    endloop
  endfacet
  facet normal 0 0 1
    outer loop
      vertex -2.7 -3.8 -0.79
      vertex -5.7 -0.800001 -0.79
      vertex -5.7 -3.8 -0.79
    endloop
  endfacet
  facet normal 1 -0 0
    outer loop
      vertex -5.7 -3.8 0
      vertex -5.7 -0.800001 -0.79
      vertex -5.7 -0.800001 0
    endloop
  endfacet
  facet normal 1 0 0
    outer loop
      vertex -5.7 -0.800001 -0.79
      vertex -5.7 -3.8 0
      vertex -5.7 -3.8 -0.79
    endloop
  endfacet
  facet normal 0 -1 0
    outer loop
      vertex -5.7 -0.800001 -0.79
      vertex -2.7 -0.800001 0
      vertex -5.7 -0.800001 0
    endloop
  endfacet
  facet normal 0 -1 -0
    outer loop
      vertex -2.7 -0.800001 0
      vertex -5.7 -0.800001 -0.79
      vertex -2.7 -0.800001 -0.79
    endloop
  endfacet
  facet normal 0 1 -0
    outer loop
      vertex -2.7 -3.8 -0.79
      vertex -5.7 -3.8 0
      vertex -2.7 -3.8 0
    endloop
  endfacet
  facet normal 0 1 0
    outer loop
      vertex -5.7 -3.8 0
      vertex -2.7 -3.8 -0.79
      vertex -5.7 -3.8 -0.79
    endloop
  endfacet
  facet normal -1 0 0
    outer loop
      vertex -2.7 -5.72205e-07 -0.79
      vertex -2.7 3 0
      vertex -2.7 3 -0.79
    endloop
  endfacet
  facet normal -1 -0 0
    outer loop
      vertex -2.7 3 0
      vertex -2.7 -5.72205e-07 -0.79
      vertex -2.7 -5.72205e-07 0
    endloop
  endfacet
  facet normal -0 0 1
    outer loop
      vertex -5.7 3 -0.79
      vertex -2.7 -5.72205e-07 -0.79
      vertex -2.7 3 -0.79
    endloop
  endfacet
  facet normal 0 0 1
    outer loop
      vertex -2.7 -5.72205e-07 -0.79
      vertex -5.7 3 -0.79
      vertex -5.7 -5.72205e-07 -0.79
    endloop
  endfacet
  facet normal 1 -0 0
    outer loop
      vertex -5.7 -5.72205e-07 0
      vertex -5.7 3 -0.79
      vertex -5.7 3 0
    endloop
  endfacet
  facet normal 1 0 0
    outer loop
      vertex -5.7 3 -0.79
      vertex -5.7 -5.72205e-07 0
      vertex -5.7 -5.72205e-07 -0.79
    endloop
  endfacet
  facet normal 0 -1 0
    outer loop
      vertex -5.7 3 -0.79
      vertex -2.7 3 0
      vertex -5.7 3 0
    endloop
  endfacet
  facet normal 0 -1 -0
    outer loop
      vertex -2.7 3 0
      vertex -5.7 3 -0.79
      vertex -2.7 3 -0.79
    endloop
  endfacet
  facet normal 0 1 -0
    outer loop
      vertex -2.7 -5.72205e-07 -0.79
      vertex -5.7 -5.72205e-07 0
      vertex -2.7 -5.72205e-07 0
    endloop
  endfacet
  facet normal 0 1 0
    outer loop
      vertex -5.7 -5.72205e-07 0
      vertex -2.7 -5.72205e-07 -0.79
      vertex -5.7 -5.72205e-07 -0.79
    endloop
  endfacet
  facet normal -1 0 0
    outer loop
      vertex -2.7 3.8 -0.79
      vertex -2.7 6.8 0
      vertex -2.7 6.8 -0.79
    endloop
  endfacet
  facet normal -1 -0 0
    outer loop
      vertex -2.7 6.8 0
      vertex -2.7 3.8 -0.79
      vertex -2.7 3.8 0
    endloop
  endfacet
  facet normal -0 0 1
    outer loop
      vertex -5.7 6.8 -0.79
      vertex -2.7 3.8 -0.79
      vertex -2.7 6.8 -0.79
    endloop
  endfacet
  facet normal 0 0 1
    outer loop
      vertex -2.7 3.8 -0.79
      vertex -5.7 6.8 -0.79
      vertex -5.7 3.8 -0.79
    endloop
  endfacet
  facet normal 1 -0 0
    outer loop
      vertex -5.7 3.8 0
      vertex -5.7 6.8 -0.79
      vertex -5.7 6.8 0
    endloop
  endfacet
  facet normal 1 0 0
    outer loop
      vertex -5.7 6.8 -0.79
      vertex -5.7 3.8 0
      vertex -5.7 3.8 -0.79
    endloop
  endfacet
  facet normal 0 -1 0
    outer loop
      vertex -5.7 6.8 -0.79
      vertex -2.7 6.8 0
      vertex -5.7 6.8 0
    endloop
  endfacet
  facet normal 0 -1 -0
    outer loop
      vertex -2.7 6.8 0
      vertex -5.7 6.8 -0.79
      vertex -2.7 6.8 -0.79
    endloop
  endfacet
  facet normal 0 1 -0
    outer loop
      vertex -2.7 3.8 -0.79
      vertex -5.7 3.8 0
      vertex -2.7 3.8 0
    endloop
  endfacet
  facet normal 0 1 0
    outer loop
      vertex -5.7 3.8 0
      vertex -2.7 3.8 -0.79
      vertex -5.7 3.8 -0.79
    endloop
  endfacet
  facet normal -1 0 0
    outer loop
      vertex 1.1 -7.6 -0.79
      vertex 1.1 -4.6 0
      vertex 1.1 -4.6 -0.79
    endloop
  endfacet
  facet normal -1 -0 0
    outer loop
      vertex 1.1 -4.6 0
      vertex 1.1 -7.6 -0.79
      vertex 1.1 -7.6 0
    endloop
  endfacet
  facet normal -0 0 1
    outer loop
      vertex -1.9 -4.6 -0.79
      vertex 1.1 -7.6 -0.79
      vertex 1.1 -4.6 -0.79
    endloop
  endfacet
  facet normal 0 0 1
    outer loop
      vertex 1.1 -7.6 -0.79
      vertex -1.9 -4.6 -0.79
      vertex -1.9 -7.6 -0.79
    endloop
  endfacet
  facet normal 1 -0 0
    outer loop
      vertex -1.9 -7.6 0
      vertex -1.9 -4.6 -0.79
      vertex -1.9 -4.6 0
    endloop
  endfacet
  facet normal 1 0 0
    outer loop
      vertex -1.9 -4.6 -0.79
      vertex -1.9 -7.6 0
      vertex -1.9 -7.6 -0.79
    endloop
  endfacet
  facet normal 0 -1 0
    outer loop
      vertex -1.9 -4.6 -0.79
      vertex 1.1 -4.6 0
      vertex -1.9 -4.6 0
    endloop
  endfacet
  facet normal 0 -1 -0
    outer loop
      vertex 1.1 -4.6 0
      vertex -1.9 -4.6 -0.79
      vertex 1.1 -4.6 -0.79
    endloop
  endfacet
  facet normal 0 1 -0
    outer loop
      vertex 1.1 -7.6 -0.79
      vertex -1.9 -7.6 0
      vertex 1.1 -7.6 0
    endloop
  endfacet
  facet normal 0 1 0
    outer loop
      vertex -1.9 -7.6 0
      vertex 1.1 -7.6 -0.79
      vertex -1.9 -7.6 -0.79
    endloop
  endfacet
  facet normal -1 0 0
    outer loop
      vertex 1.1 -3.8 -0.79
      vertex 1.1 -0.800001 0
      vertex 1.1 -0.800001 -0.79
    endloop
  endfacet
  facet normal -1 -0 0
    outer loop
      vertex 1.1 -0.800001 0
      vertex 1.1 -3.8 -0.79
      vertex 1.1 -3.8 0
    endloop
  endfacet
  facet normal -0 0 1
    outer loop
      vertex -1.9 -0.800001 -0.79
      vertex 1.1 -3.8 -0.79
      vertex 1.1 -0.800001 -0.79
    endloop
  endfacet
  facet normal 0 0 1
    outer loop
      vertex 1.1 -3.8 -0.79
      vertex -1.9 -0.800001 -0.79
      vertex -1.9 -3.8 -0.79
    endloop
  endfacet
  facet normal 1 -0 0
    outer loop
      vertex -1.9 -3.8 0
      vertex -1.9 -0.800001 -0.79
      vertex -1.9 -0.800001 0
    endloop
  endfacet
  facet normal 1 0 0
    outer loop
      vertex -1.9 -0.800001 -0.79
      vertex -1.9 -3.8 0
      vertex -1.9 -3.8 -0.79
    endloop
  endfacet
  facet normal 0 -1 0
    outer loop
      vertex -1.9 -0.800001 -0.79
      vertex 1.1 -0.800001 0
      vertex -1.9 -0.800001 0
    endloop
  endfacet
  facet normal 0 -1 -0
    outer loop
      vertex 1.1 -0.800001 0
      vertex -1.9 -0.800001 -0.79
      vertex 1.1 -0.800001 -0.79
    endloop
  endfacet
  facet normal 0 1 -0
    outer loop
      vertex 1.1 -3.8 -0.79
      vertex -1.9 -3.8 0
      vertex 1.1 -3.8 0
    endloop
  endfacet
  facet normal 0 1 0
    outer loop
      vertex -1.9 -3.8 0
      vertex 1.1 -3.8 -0.79
      vertex -1.9 -3.8 -0.79
    endloop
  endfacet
  facet normal -1 0 0
    outer loop
      vertex 1.1 -5.72205e-07 -0.79
      vertex 1.1 3 0
      vertex 1.1 3 -0.79
    endloop
  endfacet
  facet normal -1 -0 0
    outer loop
      vertex 1.1 3 0
      vertex 1.1 -5.72205e-07 -0.79
      vertex 1.1 -5.72205e-07 0
    endloop
  endfacet
  facet normal -0 0 1
    outer loop
      vertex -1.9 3 -0.79
      vertex 1.1 -5.72205e-07 -0.79
      vertex 1.1 3 -0.79
    endloop
  endfacet
  facet normal 0 0 1
    outer loop
      vertex 1.1 -5.72205e-07 -0.79
      vertex -1.9 3 -0.79
      vertex -1.9 -5.72205e-07 -0.79
    endloop
  endfacet
  facet normal 1 -0 0
    outer loop
      vertex -1.9 -5.72205e-07 0
      vertex -1.9 3 -0.79
      vertex -1.9 3 0
    endloop
  endfacet
  facet normal 1 0 0
    outer loop
      vertex -1.9 3 -0.79
      vertex -1.9 -5.72205e-07 0
      vertex -1.9 -5.72205e-07 -0.79
    endloop
  endfacet
  facet normal 0 -1 0
    outer loop
      vertex -1.9 3 -0.79
      vertex 1.1 3 0
      vertex -1.9 3 0
    endloop
  endfacet
  facet normal 0 -1 -0
    outer loop
      vertex 1.1 3 0
      vertex -1.9 3 -0.79
      vertex 1.1 3 -0.79
    endloop
  endfacet
  facet normal 0 1 -0
    outer loop
      vertex 1.1 -5.72205e-07 -0.79
      vertex -1.9 -5.72205e-07 0
      vertex 1.1 -5.72205e-07 0
    endloop
  endfacet
  facet normal 0 1 0
    outer loop
      vertex -1.9 -5.72205e-07 0
      vertex 1.1 -5.72205e-07 -0.79
      vertex -1.9 -5.72205e-07 -0.79
    endloop
  endfacet
  facet normal -1 0 0
    outer loop
      vertex 1.1 3.8 -0.79
      vertex 1.1 6.8 0
      vertex 1.1 6.8 -0.79
    endloop
  endfacet
  facet normal -1 -0 0
    outer loop
      vertex 1.1 6.8 0
      vertex 1.1 3.8 -0.79
      vertex 1.1 3.8 0
    endloop
  endfacet
  facet normal -0 0 1
    outer loop
      vertex -1.9 6.8 -0.79
      vertex 1.1 3.8 -0.79
      vertex 1.1 6.8 -0.79
    endloop
  endfacet
  facet normal 0 0 1
    outer loop
      vertex 1.1 3.8 -0.79
      vertex -1.9 6.8 -0.79
      vertex -1.9 3.8 -0.79
    endloop
  endfacet
  facet normal 1 -0 0
    outer loop
      vertex -1.9 3.8 0
      vertex -1.9 6.8 -0.79
      vertex -1.9 6.8 0
    endloop
  endfacet
  facet normal 1 0 0
    outer loop
      vertex -1.9 6.8 -0.79
      vertex -1.9 3.8 0
      vertex -1.9 3.8 -0.79
    endloop
  endfacet
  facet normal 0 -1 0
    outer loop
      vertex -1.9 6.8 -0.79
      vertex 1.1 6.8 0
      vertex -1.9 6.8 0
    endloop
  endfacet
  facet normal 0 -1 -0
    outer loop
      vertex 1.1 6.8 0
      vertex -1.9 6.8 -0.79
      vertex 1.1 6.8 -0.79
    endloop
  endfacet
  facet normal 0 1 -0
    outer loop
      vertex 1.1 3.8 -0.79
      vertex -1.9 3.8 0
      vertex 1.1 3.8 0
    endloop
  endfacet
  facet normal 0 1 0
    outer loop
      vertex -1.9 3.8 0
      vertex 1.1 3.8 -0.79
      vertex -1.9 3.8 -0.79
    endloop
  endfacet
  facet normal -1 0 0
    outer loop
      vertex 4.9 -7.6 -0.79
      vertex 4.9 -4.6 0
      vertex 4.9 -4.6 -0.79
    endloop
  endfacet
  facet normal -1 -0 0
    outer loop
      vertex 4.9 -4.6 0
      vertex 4.9 -7.6 -0.79
      vertex 4.9 -7.6 0
    endloop
  endfacet
  facet normal -0 0 1
    outer loop
      vertex 1.9 -4.6 -0.79
      vertex 4.9 -7.6 -0.79
      vertex 4.9 -4.6 -0.79
    endloop
  endfacet
  facet normal 0 0 1
    outer loop
      vertex 4.9 -7.6 -0.79
      vertex 1.9 -4.6 -0.79
      vertex 1.9 -7.6 -0.79
    endloop
  endfacet
  facet normal 1 -0 0
    outer loop
      vertex 1.9 -7.6 0
      vertex 1.9 -4.6 -0.79
      vertex 1.9 -4.6 0
    endloop
  endfacet
  facet normal 1 0 0
    outer loop
      vertex 1.9 -4.6 -0.79
      vertex 1.9 -7.6 0
      vertex 1.9 -7.6 -0.79
    endloop
  endfacet
  facet normal 0 -1 0
    outer loop
      vertex 1.9 -4.6 -0.79
      vertex 4.9 -4.6 0
      vertex 1.9 -4.6 0
    endloop
  endfacet
  facet normal 0 -1 -0
    outer loop
      vertex 4.9 -4.6 0
      vertex 1.9 -4.6 -0.79
      vertex 4.9 -4.6 -0.79
    endloop
  endfacet
  facet normal 0 1 -0
    outer loop
      vertex 4.9 -7.6 -0.79
      vertex 1.9 -7.6 0
      vertex 4.9 -7.6 0
    endloop
  endfacet
  facet normal 0 1 0
    outer loop
      vertex 1.9 -7.6 0
      vertex 4.9 -7.6 -0.79
      vertex 1.9 -7.6 -0.79
    endloop
  endfacet
  facet normal -1 0 0
    outer loop
      vertex 4.9 -3.8 -0.79
      vertex 4.9 -0.800001 0
      vertex 4.9 -0.800001 -0.79
    endloop
  endfacet
  facet normal -1 -0 0
    outer loop
      vertex 4.9 -0.800001 0
      vertex 4.9 -3.8 -0.79
      vertex 4.9 -3.8 0
    endloop
  endfacet
  facet normal -0 0 1
    outer loop
      vertex 1.9 -0.800001 -0.79
      vertex 4.9 -3.8 -0.79
      vertex 4.9 -0.800001 -0.79
    endloop
  endfacet
  facet normal 0 0 1
    outer loop
      vertex 4.9 -3.8 -0.79
      vertex 1.9 -0.800001 -0.79
      vertex 1.9 -3.8 -0.79
    endloop
  endfacet
  facet normal 1 -0 0
    outer loop
      vertex 1.9 -3.8 0
      vertex 1.9 -0.800001 -0.79
      vertex 1.9 -0.800001 0
    endloop
  endfacet
  facet normal 1 0 0
    outer loop
      vertex 1.9 -0.800001 -0.79
      vertex 1.9 -3.8 0
      vertex 1.9 -3.8 -0.79
    endloop
  endfacet
  facet normal 0 -1 0
    outer loop
      vertex 1.9 -0.800001 -0.79
      vertex 4.9 -0.800001 0
      vertex 1.9 -0.800001 0
    endloop
  endfacet
  facet normal 0 -1 -0
    outer loop
      vertex 4.9 -0.800001 0
      vertex 1.9 -0.800001 -0.79
      vertex 4.9 -0.800001 -0.79
    endloop
  endfacet
  facet normal 0 1 -0
    outer loop
      vertex 4.9 -3.8 -0.79
      vertex 1.9 -3.8 0
      vertex 4.9 -3.8 0
    endloop
  endfacet
  facet normal 0 1 0
    outer loop
      vertex 1.9 -3.8 0
      vertex 4.9 -3.8 -0.79
      vertex 1.9 -3.8 -0.79
    endloop
  endfacet
  facet normal -1 0 0
    outer loop
      vertex 4.9 -5.72205e-07 -0.79
      vertex 4.9 3 0
      vertex 4.9 3 -0.79
    endloop
  endfacet
  facet normal -1 -0 0
    outer loop
      vertex 4.9 3 0
      vertex 4.9 -5.72205e-07 -0.79
      vertex 4.9 -5.72205e-07 0
    endloop
  endfacet
  facet normal -0 0 1
    outer loop
      vertex 1.9 3 -0.79
      vertex 4.9 -5.72205e-07 -0.79
      vertex 4.9 3 -0.79
    endloop
  endfacet
  facet normal 0 0 1
    outer loop
      vertex 4.9 -5.72205e-07 -0.79
      vertex 1.9 3 -0.79
      vertex 1.9 -5.72205e-07 -0.79
    endloop
  endfacet
  facet normal 1 -0 0
    outer loop
      vertex 1.9 -5.72205e-07 0
      vertex 1.9 3 -0.79
      vertex 1.9 3 0
    endloop
  endfacet
  facet normal 1 0 0
    outer loop
      vertex 1.9 3 -0.79
      vertex 1.9 -5.72205e-07 0
      vertex 1.9 -5.72205e-07 -0.79
    endloop
  endfacet
  facet normal 0 -1 0
    outer loop
      vertex 1.9 3 -0.79
      vertex 4.9 3 0
      vertex 1.9 3 0
    endloop
  endfacet
  facet normal 0 -1 -0
    outer loop
      vertex 4.9 3 0
      vertex 1.9 3 -0.79
      vertex 4.9 3 -0.79
    endloop
  endfacet
  facet normal 0 1 -0
    outer loop
      vertex 4.9 -5.72205e-07 -0.79
      vertex 1.9 -5.72205e-07 0
      vertex 4.9 -5.72205e-07 0
    endloop
  endfacet
  facet normal 0 1 0
    outer loop
      vertex 1.9 -5.72205e-07 0
      vertex 4.9 -5.72205e-07 -0.79
      vertex 1.9 -5.72205e-07 -0.79
    endloop
  endfacet
  facet normal -1 0 0
    outer loop
      vertex 4.9 3.8 -0.79
      vertex 4.9 6.8 0
      vertex 4.9 6.8 -0.79
    endloop
  endfacet
  facet normal -1 -0 0
    outer loop
      vertex 4.9 6.8 0
      vertex 4.9 3.8 -0.79
      vertex 4.9 3.8 0
    endloop
  endfacet
  facet normal -0 0 1
    outer loop
      vertex 1.9 6.8 -0.79
      vertex 4.9 3.8 -0.79
      vertex 4.9 6.8 -0.79
    endloop
  endfacet
  facet normal 0 0 1
    outer loop
      vertex 4.9 3.8 -0.79
      vertex 1.9 6.8 -0.79
      vertex 1.9 3.8 -0.79
    endloop
  endfacet
  facet normal 1 -0 0
    outer loop
      vertex 1.9 3.8 0
      vertex 1.9 6.8 -0.79
      vertex 1.9 6.8 0
    endloop
  endfacet
  facet normal 1 0 0
    outer loop
      vertex 1.9 6.8 -0.79
      vertex 1.9 3.8 0
      vertex 1.9 3.8 -0.79
    endloop
  endfacet
  facet normal 0 -1 0
    outer loop
      vertex 1.9 6.8 -0.79
      vertex 4.9 6.8 0
      vertex 1.9 6.8 0
    endloop
  endfacet
  facet normal 0 -1 -0
    outer loop
      vertex 4.9 6.8 0
      vertex 1.9 6.8 -0.79
      vertex 4.9 6.8 -0.79
    endloop
  endfacet
  facet normal 0 1 -0
    outer loop
      vertex 4.9 3.8 -0.79
      vertex 1.9 3.8 0
      vertex 4.9 3.8 0
    endloop
  endfacet
  facet normal 0 1 0
    outer loop
      vertex 1.9 3.8 0
      vertex 4.9 3.8 -0.79
      vertex 1.9 3.8 -0.79
    endloop
  endfacet
  facet normal 1 0 0
    outer loop
      vertex 16.5 32.5 0
      vertex 16.5 24.5 -2
      vertex 16.5 32.5 -40
    endloop
  endfacet
  facet normal 1 0 0
    outer loop
      vertex 16.5 32.5 0
      vertex 16.5 -24.5 -2
      vertex 16.5 24.5 -2
    endloop
  endfacet
  facet normal 1 -0 0
    outer loop
      vertex 16.5 -32.5 0
      vertex 16.5 -24.5 -2
      vertex 16.5 32.5 0
    endloop
  endfacet
  facet normal 1 0 0
    outer loop
      vertex 16.5 -32.5 -40
      vertex 16.5 -24.5 -2
      vertex 16.5 -32.5 0
    endloop
  endfacet
  facet normal 1 0 0
    outer loop
      vertex 16.5 -24.5 -2
      vertex 16.5 -32.5 -40
      vertex 16.5 -24.5 -40
    endloop
  endfacet
  facet normal 1 0 0
    outer loop
      vertex 16.5 32.5 -40
      vertex 16.5 24.5 -2
      vertex 16.5 24.5 -40
    endloop
  endfacet
  facet normal -0 0 1
    outer loop
      vertex -5.7 -3.8 0
      vertex -2.7 -4.6 0
      vertex -2.7 -3.8 0
    endloop
  endfacet
  facet normal 0 0 1
    outer loop
      vertex -2.7 -4.6 0
      vertex -5.7 -3.8 0
      vertex -5.7 -4.6 0
    endloop
  endfacet
  facet normal -0 0 1
    outer loop
      vertex -5.7 -5.72205e-07 0
      vertex -2.7 -0.800001 0
      vertex -2.7 -5.72205e-07 0
    endloop
  endfacet
  facet normal 0 0 1
    outer loop
      vertex -2.7 -0.800001 0
      vertex -5.7 -5.72205e-07 0
      vertex -5.7 -0.800001 0
    endloop
  endfacet
  facet normal -0 0 1
    outer loop
      vertex -5.7 3.8 0
      vertex -2.7 3 0
      vertex -2.7 3.8 0
    endloop
  endfacet
  facet normal 0 0 1
    outer loop
      vertex -2.7 3 0
      vertex -5.7 3.8 0
      vertex -5.7 3 0
    endloop
  endfacet
  facet normal -0 0 1
    outer loop
      vertex -1.9 -3.8 0
      vertex 1.1 -4.6 0
      vertex 1.1 -3.8 0
    endloop
  endfacet
  facet normal 0 0 1
    outer loop
      vertex 1.1 -4.6 0
      vertex -1.9 -3.8 0
      vertex -1.9 -4.6 0
    endloop
  endfacet
  facet normal -0 0 1
    outer loop
      vertex -1.9 -5.72205e-07 0
      vertex 1.1 -0.800001 0
      vertex 1.1 -5.72205e-07 0
    endloop
  endfacet
  facet normal 0 0 1
    outer loop
      vertex 1.1 -0.800001 0
      vertex -1.9 -5.72205e-07 0
      vertex -1.9 -0.800001 0
    endloop
  endfacet
  facet normal -0 0 1
    outer loop
      vertex -1.9 3.8 0
      vertex 1.1 3 0
      vertex 1.1 3.8 0
    endloop
  endfacet
  facet normal 0 0 1
    outer loop
      vertex 1.1 3 0
      vertex -1.9 3.8 0
      vertex -1.9 3 0
    endloop
  endfacet
  facet normal -0 0 1
    outer loop
      vertex 1.9 -3.8 0
      vertex 4.9 -4.6 0
      vertex 4.9 -3.8 0
    endloop
  endfacet
  facet normal 0 0 1
    outer loop
      vertex 4.9 -4.6 0
      vertex 1.9 -3.8 0
      vertex 1.9 -4.6 0
    endloop
  endfacet
  facet normal -0 0 1
    outer loop
      vertex 1.9 -5.72205e-07 0
      vertex 4.9 -0.800001 0
      vertex 4.9 -5.72205e-07 0
    endloop
  endfacet
  facet normal 0 0 1
    outer loop
      vertex 4.9 -0.800001 0
      vertex 1.9 -5.72205e-07 0
      vertex 1.9 -0.800001 0
    endloop
  endfacet
  facet normal -0 0 1
    outer loop
      vertex 1.9 3.8 0
      vertex 4.9 3 0
      vertex 4.9 3.8 0
    endloop
  endfacet
  facet normal 0 0 1
    outer loop
      vertex 4.9 3 0
      vertex 1.9 3.8 0
      vertex 1.9 3 0
    endloop
  endfacet
  facet normal 0 0 1
    outer loop
      vertex 4.9 3.8 0
      vertex 16.5 32.5 0
      vertex 4.9 6.8 0
    endloop
  endfacet
  facet normal 0 0 1
    outer loop
      vertex 16.5 32.5 0
      vertex 1.9 6.8 0
      vertex 4.9 6.8 0
    endloop
  endfacet
  facet normal 0 0 1
    outer loop
      vertex 1.1 3.8 0
      vertex 1.9 3.8 0
      vertex 1.9 6.8 0
    endloop
  endfacet
  facet normal 0 0 1
    outer loop
      vertex 1.9 3.8 0
      vertex 1.1 3.8 0
      vertex 1.9 3 0
    endloop
  endfacet
  facet normal 0 0 1
    outer loop
      vertex 1.9 3 0
      vertex 1.1 3 0
      vertex 1.9 -5.72205e-07 0
    endloop
  endfacet
  facet normal 0 0 1
    outer loop
      vertex 1.1 -5.72205e-07 0
      vertex 1.9 -5.72205e-07 0
      vertex 1.1 3 0
    endloop
  endfacet
  facet normal 0 0 1
    outer loop
      vertex 1.1 -0.800001 0
      vertex 1.9 -0.800001 0
      vertex 1.1 -5.72205e-07 0
    endloop
  endfacet
  facet normal 0 0 1
    outer loop
      vertex 1.9 -0.800001 0
      vertex 1.1 -0.800001 0
      vertex 1.9 -3.8 0
    endloop
  endfacet
  facet normal 0 0 1
    outer loop
      vertex 1.1 3.8 0
      vertex 1.9 6.8 0
      vertex 1.1 6.8 0
    endloop
  endfacet
  facet normal 0 0 1
    outer loop
      vertex 16.5 32.5 0
      vertex 1.1 6.8 0
      vertex 1.9 6.8 0
    endloop
  endfacet
  facet normal -0 0 1
    outer loop
      vertex -16.5 32.5 0
      vertex 1.1 6.8 0
      vertex 16.5 32.5 0
    endloop
  endfacet
  facet normal 0 0 1
    outer loop
      vertex -2.7 3.8 0
      vertex -1.9 3.8 0
      vertex -1.9 6.8 0
    endloop
  endfacet
  facet normal 0 0 1
    outer loop
      vertex -1.9 3.8 0
      vertex -2.7 3.8 0
      vertex -1.9 3 0
    endloop
  endfacet
  facet normal 0 0 1
    outer loop
      vertex -1.9 3 0
      vertex -2.7 3 0
      vertex -1.9 -5.72205e-07 0
    endloop
  endfacet
  facet normal 0 0 1
    outer loop
      vertex -2.7 -5.72205e-07 0
      vertex -1.9 -5.72205e-07 0
      vertex -2.7 3 0
    endloop
  endfacet
  facet normal 0 0 1
    outer loop
      vertex -2.7 -0.800001 0
      vertex -1.9 -0.800001 0
      vertex -2.7 -5.72205e-07 0
    endloop
  endfacet
  facet normal 0 0 1
    outer loop
      vertex -1.9 -0.800001 0
      vertex -2.7 -0.800001 0
      vertex -1.9 -3.8 0
    endloop
  endfacet
  facet normal 0 0 1
    outer loop
      vertex -2.7 3.8 0
      vertex -1.9 6.8 0
      vertex -2.7 6.8 0
    endloop
  endfacet
  facet normal 0 0 1
    outer loop
      vertex 1.1 6.8 0
      vertex -16.5 32.5 0
      vertex -1.9 6.8 0
    endloop
  endfacet
  facet normal 0 0 1
    outer loop
      vertex -1.9 6.8 0
      vertex -16.5 32.5 0
      vertex -2.7 6.8 0
    endloop
  endfacet
  facet normal 0 0 1
    outer loop
      vertex -16.5 32.5 0
      vertex -5.7 3.8 0
      vertex -5.7 6.8 0
    endloop
  endfacet
  facet normal 0 0 1
    outer loop
      vertex -5.7 3.8 0
      vertex -16.5 32.5 0
      vertex -5.7 3 0
    endloop
  endfacet
  facet normal 0 0 1
    outer loop
      vertex -5.7 3 0
      vertex -16.5 32.5 0
      vertex -5.7 -5.72205e-07 0
    endloop
  endfacet
  facet normal 0 0 1
    outer loop
      vertex -5.7 -5.72205e-07 0
      vertex -16.5 32.5 0
      vertex -5.7 -0.800001 0
    endloop
  endfacet
  facet normal 0 0 1
    outer loop
      vertex -16.5 -32.5 0
      vertex -5.7 -0.800001 0
      vertex -16.5 32.5 0
    endloop
  endfacet
  facet normal 0 0 1
    outer loop
      vertex -5.7 -0.800001 0
      vertex -16.5 -32.5 0
      vertex -5.7 -3.8 0
    endloop
  endfacet
  facet normal 0 0 1
    outer loop
      vertex -5.7 -3.8 0
      vertex -16.5 -32.5 0
      vertex -5.7 -4.6 0
    endloop
  endfacet
  facet normal 0 0 1
    outer loop
      vertex -2.7 6.8 0
      vertex -16.5 32.5 0
      vertex -5.7 6.8 0
    endloop
  endfacet
  facet normal 0 0 1
    outer loop
      vertex 4.9 3 0
      vertex 16.5 32.5 0
      vertex 4.9 3.8 0
    endloop
  endfacet
  facet normal 0 0 1
    outer loop
      vertex 4.9 -5.72205e-07 0
      vertex 16.5 32.5 0
      vertex 4.9 3 0
    endloop
  endfacet
  facet normal 0 0 1
    outer loop
      vertex 16.5 32.5 0
      vertex 4.9 -5.72205e-07 0
      vertex 16.5 -32.5 0
    endloop
  endfacet
  facet normal -0 0 1
    outer loop
      vertex 4.9 -0.800001 0
      vertex 16.5 -32.5 0
      vertex 4.9 -5.72205e-07 0
    endloop
  endfacet
  facet normal -0 0 1
    outer loop
      vertex 4.9 -3.8 0
      vertex 16.5 -32.5 0
      vertex 4.9 -0.800001 0
    endloop
  endfacet
  facet normal -0 0 1
    outer loop
      vertex 4.9 -4.6 0
      vertex 16.5 -32.5 0
      vertex 4.9 -3.8 0
    endloop
  endfacet
  facet normal -0 0 1
    outer loop
      vertex 4.9 -7.6 0
      vertex 16.5 -32.5 0
      vertex 4.9 -4.6 0
    endloop
  endfacet
  facet normal -0 0 1
    outer loop
      vertex 1.9 -7.6 0
      vertex 16.5 -32.5 0
      vertex 4.9 -7.6 0
    endloop
  endfacet
  facet normal 0 0 1
    outer loop
      vertex 1.9 3 0
      vertex 1.1 3.8 0
      vertex 1.1 3 0
    endloop
  endfacet
  facet normal 0 0 1
    outer loop
      vertex 1.9 -5.72205e-07 0
      vertex 1.1 -5.72205e-07 0
      vertex 1.9 -0.800001 0
    endloop
  endfacet
  facet normal 0 0 1
    outer loop
      vertex 1.1 -3.8 0
      vertex 1.9 -3.8 0
      vertex 1.1 -0.800001 0
    endloop
  endfacet
  facet normal 0 0 1
    outer loop
      vertex 1.9 -3.8 0
      vertex 1.1 -3.8 0
      vertex 1.9 -4.6 0
    endloop
  endfacet
  facet normal 0 0 1
    outer loop
      vertex 1.1 -4.6 0
      vertex 1.9 -4.6 0
      vertex 1.1 -3.8 0
    endloop
  endfacet
  facet normal 0 0 1
    outer loop
      vertex 1.9 -4.6 0
      vertex 1.1 -4.6 0
      vertex 1.9 -7.6 0
    endloop
  endfacet
  facet normal 0 0 1
    outer loop
      vertex 1.1 -7.6 0
      vertex 1.9 -7.6 0
      vertex 1.1 -4.6 0
    endloop
  endfacet
  facet normal -0 0 1
    outer loop
      vertex 1.1 -7.6 0
      vertex 16.5 -32.5 0
      vertex 1.9 -7.6 0
    endloop
  endfacet
  facet normal 0 0 1
    outer loop
      vertex -16.5 -32.5 0
      vertex 1.1 -7.6 0
      vertex -1.9 -7.6 0
    endloop
  endfacet
  facet normal 0 0 1
    outer loop
      vertex -1.9 3 0
      vertex -2.7 3.8 0
      vertex -2.7 3 0
    endloop
  endfacet
  facet normal 0 0 1
    outer loop
      vertex -1.9 -5.72205e-07 0
      vertex -2.7 -5.72205e-07 0
      vertex -1.9 -0.800001 0
    endloop
  endfacet
  facet normal 0 0 1
    outer loop
      vertex -2.7 -3.8 0
      vertex -1.9 -3.8 0
      vertex -2.7 -0.800001 0
    endloop
  endfacet
  facet normal 0 0 1
    outer loop
      vertex -1.9 -3.8 0
      vertex -2.7 -3.8 0
      vertex -1.9 -4.6 0
    endloop
  endfacet
  facet normal 0 0 1
    outer loop
      vertex -2.7 -4.6 0
      vertex -1.9 -4.6 0
      vertex -2.7 -3.8 0
    endloop
  endfacet
  facet normal 0 0 1
    outer loop
      vertex -1.9 -4.6 0
      vertex -2.7 -4.6 0
      vertex -1.9 -7.6 0
    endloop
  endfacet
  facet normal 0 0 1
    outer loop
      vertex -2.7 -7.6 0
      vertex -1.9 -7.6 0
      vertex -2.7 -4.6 0
    endloop
  endfacet
  facet normal 0 0 1
    outer loop
      vertex -16.5 -32.5 0
      vertex -1.9 -7.6 0
      vertex -2.7 -7.6 0
    endloop
  endfacet
  facet normal 0 0 1
    outer loop
      vertex -16.5 -32.5 0
      vertex -2.7 -7.6 0
      vertex -5.7 -7.6 0
    endloop
  endfacet
  facet normal 0 0 1
    outer loop
      vertex 1.1 -7.6 0
      vertex -16.5 -32.5 0
      vertex 16.5 -32.5 0
    endloop
  endfacet
  facet normal 0 0 1
    outer loop
      vertex -5.7 -4.6 0
      vertex -16.5 -32.5 0
      vertex -5.7 -7.6 0
    endloop
  endfacet
  facet normal 0 0 -1
    outer loop
      vertex -16.5 -24.5 -2
      vertex -8.5 24.5 -2
      vertex -8.5 -24.5 -2
    endloop
  endfacet
  facet normal -0 0 -1
    outer loop
      vertex -8.5 24.5 -2
      vertex -16.5 -24.5 -2
      vertex -16.5 24.5 -2
    endloop
  endfacet
  facet normal 0 0 -1
    outer loop
      vertex -8.5 -24.5 -2
      vertex 8.5 -24.5 -2
      vertex 8.5 -32.5 -2
    endloop
  endfacet
  facet normal 0 0 -1
    outer loop
      vertex 8.5 -24.5 -2
      vertex -8.5 -24.5 -2
      vertex 8.5 24.5 -2
    endloop
  endfacet
  facet normal 0 0 -1
    outer loop
      vertex -8.5 -24.5 -2
      vertex 8.5 -32.5 -2
      vertex -8.5 -32.5 -2
    endloop
  endfacet
  facet normal 0 0 -1
    outer loop
      vertex -8.5 24.5 -2
      vertex 8.5 24.5 -2
      vertex -8.5 -24.5 -2
    endloop
  endfacet
  facet normal 0 0 -1
    outer loop
      vertex 8.5 24.5 -2
      vertex -8.5 24.5 -2
      vertex 8.5 32.5 -2
    endloop
  endfacet
  facet normal -0 0 -1
    outer loop
      vertex 8.5 32.5 -2
      vertex -8.5 24.5 -2
      vertex -8.5 32.5 -2
    endloop
  endfacet
  facet normal 0 0 -1
    outer loop
      vertex 8.5 -24.5 -2
      vertex 16.5 24.5 -2
      vertex 16.5 -24.5 -2
    endloop
  endfacet
  facet normal -0 0 -1
    outer loop
      vertex 16.5 24.5 -2
      vertex 8.5 -24.5 -2
      vertex 8.5 24.5 -2
    endloop
  endfacet
  facet normal -1 0 0
    outer loop
      vertex -16.5 -24.5 -40
      vertex -16.5 -32.5 -40
      vertex -16.5 -24.5 -2
    endloop
  endfacet
  facet normal -1 0 0
    outer loop
      vertex -16.5 24.5 -2
      vertex -16.5 32.5 -40
      vertex -16.5 24.5 -40
    endloop
  endfacet
  facet normal -1 0 0
    outer loop
      vertex -16.5 32.5 -40
      vertex -16.5 24.5 -2
      vertex -16.5 32.5 0
    endloop
  endfacet
  facet normal -1 0 0
    outer loop
      vertex -16.5 -24.5 -2
      vertex -16.5 32.5 0
      vertex -16.5 24.5 -2
    endloop
  endfacet
  facet normal -1 0 0
    outer loop
      vertex -16.5 -24.5 -2
      vertex -16.5 -32.5 0
      vertex -16.5 32.5 0
    endloop
  endfacet
  facet normal -1 0 0
    outer loop
      vertex -16.5 -32.5 0
      vertex -16.5 -24.5 -2
      vertex -16.5 -32.5 -40
    endloop
  endfacet
  facet normal 0 1 0
    outer loop
      vertex 16.5 32.5 0
      vertex 8.5 32.5 -2
      vertex -16.5 32.5 0
    endloop
  endfacet
  facet normal 0 1 -0
    outer loop
      vertex 16.5 32.5 -40
      vertex 8.5 32.5 -2
      vertex 16.5 32.5 0
    endloop
  endfacet
  facet normal 0 1 0
    outer loop
      vertex 8.5 32.5 -2
      vertex 16.5 32.5 -40
      vertex 8.5 32.5 -40
    endloop
  endfacet
  facet normal 0 1 -0
    outer loop
      vertex -8.5 32.5 -2
      vertex -16.5 32.5 0
      vertex 8.5 32.5 -2
    endloop
  endfacet
  facet normal 0 1 0
    outer loop
      vertex -16.5 32.5 -40
      vertex -8.5 32.5 -2
      vertex -8.5 32.5 -40
    endloop
  endfacet
  facet normal 0 1 0
    outer loop
      vertex -8.5 32.5 -2
      vertex -16.5 32.5 -40
      vertex -16.5 32.5 0
    endloop
  endfacet
  facet normal 0 -1 0
    outer loop
      vertex -16.5 -32.5 0
      vertex -8.5 -32.5 -2
      vertex 16.5 -32.5 0
    endloop
  endfacet
  facet normal 0 -1 0
    outer loop
      vertex -16.5 -32.5 -40
      vertex -8.5 -32.5 -2
      vertex -16.5 -32.5 0
    endloop
  endfacet
  facet normal 0 -1 -0
    outer loop
      vertex -8.5 -32.5 -2
      vertex -16.5 -32.5 -40
      vertex -8.5 -32.5 -40
    endloop
  endfacet
  facet normal 0 -1 0
    outer loop
      vertex 8.5 -32.5 -2
      vertex 16.5 -32.5 0
      vertex -8.5 -32.5 -2
    endloop
  endfacet
  facet normal 0 -1 0
    outer loop
      vertex 16.5 -32.5 -40
      vertex 8.5 -32.5 -2
      vertex 8.5 -32.5 -40
    endloop
  endfacet
  facet normal 0 -1 0
    outer loop
      vertex 8.5 -32.5 -2
      vertex 16.5 -32.5 -40
      vertex 16.5 -32.5 0
    endloop
  endfacet
  facet normal 0 0 -1
    outer loop
      vertex 8.5 24.5 -40
      vertex 16.5 32.5 -40
      vertex 16.5 24.5 -40
    endloop
  endfacet
  facet normal -0 0 -1
    outer loop
      vertex 16.5 32.5 -40
      vertex 8.5 24.5 -40
      vertex 8.5 32.5 -40
    endloop
  endfacet
  facet normal -1 0 0
    outer loop
      vertex 8.5 24.5 -40
      vertex 8.5 32.5 -2
      vertex 8.5 32.5 -40
    endloop
  endfacet
  facet normal -1 -0 0
    outer loop
      vertex 8.5 32.5 -2
      vertex 8.5 24.5 -40
      vertex 8.5 24.5 -2
    endloop
  endfacet
  facet normal 0 -1 0
    outer loop
      vertex 8.5 24.5 -40
      vertex 16.5 24.5 -2
      vertex 8.5 24.5 -2
    endloop
  endfacet
  facet normal 0 -1 -0
    outer loop
      vertex 16.5 24.5 -2
      vertex 8.5 24.5 -40
      vertex 16.5 24.5 -40
    endloop
  endfacet
  facet normal 1 -0 0
    outer loop
      vertex -8.5 24.5 -2
      vertex -8.5 32.5 -40
      vertex -8.5 32.5 -2
    endloop
  endfacet
  facet normal 1 0 0
    outer loop
      vertex -8.5 32.5 -40
      vertex -8.5 24.5 -2
      vertex -8.5 24.5 -40
    endloop
  endfacet
  facet normal 0 0 -1
    outer loop
      vertex -16.5 24.5 -40
      vertex -8.5 32.5 -40
      vertex -8.5 24.5 -40
    endloop
  endfacet
  facet normal -0 0 -1
    outer loop
      vertex -8.5 32.5 -40
      vertex -16.5 24.5 -40
      vertex -16.5 32.5 -40
    endloop
  endfacet
  facet normal 0 -1 0
    outer loop
      vertex -16.5 24.5 -40
      vertex -8.5 24.5 -2
      vertex -16.5 24.5 -2
    endloop
  endfacet
  facet normal 0 -1 -0
    outer loop
      vertex -8.5 24.5 -2
      vertex -16.5 24.5 -40
      vertex -8.5 24.5 -40
    endloop
  endfacet
  facet normal 1 -0 0
    outer loop
      vertex -8.5 -32.5 -2
      vertex -8.5 -24.5 -40
      vertex -8.5 -24.5 -2
    endloop
  endfacet
  facet normal 1 0 0
    outer loop
      vertex -8.5 -24.5 -40
      vertex -8.5 -32.5 -2
      vertex -8.5 -32.5 -40
    endloop
  endfacet
  facet normal 0 0 -1
    outer loop
      vertex -16.5 -32.5 -40
      vertex -8.5 -24.5 -40
      vertex -8.5 -32.5 -40
    endloop
  endfacet
  facet normal -0 0 -1
    outer loop
      vertex -8.5 -24.5 -40
      vertex -16.5 -32.5 -40
      vertex -16.5 -24.5 -40
    endloop
  endfacet
  facet normal 0 1 -0
    outer loop
      vertex -8.5 -24.5 -40
      vertex -16.5 -24.5 -2
      vertex -8.5 -24.5 -2
    endloop
  endfacet
  facet normal 0 1 0
    outer loop
      vertex -16.5 -24.5 -2
      vertex -8.5 -24.5 -40
      vertex -16.5 -24.5 -40
    endloop
  endfacet
  facet normal 0 0 -1
    outer loop
      vertex 8.5 -32.5 -40
      vertex 16.5 -24.5 -40
      vertex 16.5 -32.5 -40
    endloop
  endfacet
  facet normal -0 0 -1
    outer loop
      vertex 16.5 -24.5 -40
      vertex 8.5 -32.5 -40
      vertex 8.5 -24.5 -40
    endloop
  endfacet
  facet normal -1 0 0
    outer loop
      vertex 8.5 -32.5 -40
      vertex 8.5 -24.5 -2
      vertex 8.5 -24.5 -40
    endloop
  endfacet
  facet normal -1 -0 0
    outer loop
      vertex 8.5 -24.5 -2
      vertex 8.5 -32.5 -40
      vertex 8.5 -32.5 -2
    endloop
  endfacet
  facet normal 0 1 -0
    outer loop
      vertex 16.5 -24.5 -40
      vertex 8.5 -24.5 -2
      vertex 16.5 -24.5 -2
    endloop
  endfacet
  facet normal 0 1 0
    outer loop
      vertex 8.5 -24.5 -2
      vertex 16.5 -24.5 -40
      vertex 8.5 -24.5 -40
    endloop
  endfacet
endsolid OpenSCAD_Model
